<svg xmlns="http://www.w3.org/2000/svg" width="61.871" height="97.748" viewBox="0 0 61.871 97.748">
  <g id="グループ_9652" data-name="グループ 9652" transform="translate(-41 0)">
    <path id="パス_4189" data-name="パス 4189" d="M0,0V97.748l2.5-.9H2.5l3.2-1.153,2.03-.736,23.2-8.354,23.2,8.354,5.229,1.888,2.506.9V0Z" transform="translate(41)" fill="#fcf546"/>
    <path id="パス_6484" data-name="パス 6484" d="M8.176-.752A4.107,4.107,0,0,1,5.291.28,4.346,4.346,0,0,1,1.873-1.114,5.582,5.582,0,0,1,.629-4.956,5.534,5.534,0,0,1,2.044-9.023a4.217,4.217,0,0,1,3.131-1.244A4.234,4.234,0,0,1,8.894-8.6a3.611,3.611,0,0,1,.7,1.88H7.485a2.844,2.844,0,0,0-.526-1.094,2.141,2.141,0,0,0-1.7-.656,2.11,2.11,0,0,0-1.812.926,4.453,4.453,0,0,0-.663,2.622,3.908,3.908,0,0,0,.7,2.54,2.214,2.214,0,0,0,1.781.844,2.037,2.037,0,0,0,1.688-.725,3.148,3.148,0,0,0,.533-1.169H9.57A4.531,4.531,0,0,1,8.176-.752Zm8.9-1.319H13.364L12.667,0h-2.2l3.6-10.076H16.44L20.009,0H17.726Zm-.588-1.736L15.23-7.772l-1.3,3.965Zm8.456,2.352a3.708,3.708,0,0,0,1.21-.164,1.169,1.169,0,0,0,.882-1.169.863.863,0,0,0-.437-.772,4.7,4.7,0,0,0-1.374-.472l-1.066-.239a6.739,6.739,0,0,1-2.174-.772,2.457,2.457,0,0,1-1.019-2.181,2.912,2.912,0,0,1,.984-2.249,4.162,4.162,0,0,1,2.892-.9,4.4,4.4,0,0,1,2.717.844,3.014,3.014,0,0,1,1.179,2.451H26.715a1.445,1.445,0,0,0-.793-1.292A2.659,2.659,0,0,0,24.7-8.62a2.285,2.285,0,0,0-1.3.328,1.045,1.045,0,0,0-.485.916.867.867,0,0,0,.479.807,5.857,5.857,0,0,0,1.313.417l1.736.417A4.489,4.489,0,0,1,28.164-5a2.464,2.464,0,0,1,.9,2.058A2.9,2.9,0,0,1,28.01-.653,4.425,4.425,0,0,1,25.026.26a4.84,4.84,0,0,1-3.1-.9A2.987,2.987,0,0,1,20.8-3.11h2.01a2.069,2.069,0,0,0,.376,1.032A2.163,2.163,0,0,0,24.944-1.456ZM37.639-4.4H32.744v2.591h5.578V0H30.687V-10.076h7.39v1.784H32.744v2.14h4.895Z" transform="translate(52 28)" fill="#195eae"/>
    <path id="パス_6483" data-name="パス 6483" d="M20.068-33.984a6.5,6.5,0,0,0,.586-1.416H26.44L18.921,0H11.792l5.176-24.414H8.643l1-4.736a32.579,32.579,0,0,0,4.712-.439,8.363,8.363,0,0,0,3.809-1.855A7.762,7.762,0,0,0,20.068-33.984Z" transform="translate(55 72)" fill="#195eae"/>
  </g>
</svg>
