<svg xmlns="http://www.w3.org/2000/svg" width="80" height="80" viewBox="0 0 80 80">
  <g id="グループ_9067" data-name="グループ 9067" transform="translate(-1671 -704)">
    <circle id="楕円形_18" data-name="楕円形 18" cx="40" cy="40" r="40" transform="translate(1671 704)" fill="#fff"/>
    <g id="インフルエンザ対策のマスクの無料アイコン素材_2" data-name="インフルエンザ対策のマスクの無料アイコン素材 2" transform="translate(1693 678.056)">
      <path id="パス_4151" data-name="パス 4151" d="M31.928,40.51l.031-.015.023-.025c1.071-1.192,3.11-3.265,4.733-3.746a4.4,4.4,0,0,1,1.2-.194,1.606,1.606,0,0,1,1.2.417c.5.514.638,1.58.374,3.038v.121l.116.036c.433.136.933.292,1.506.464l.174.053.035-.179c.543-2.728-.166-4.147-.856-4.858a3.467,3.467,0,0,0-2.552-.985,6.141,6.141,0,0,0-1.73.27c-2.547.757-5.406,3.956-6.885,5.8l-.226.282.508-.018A5.27,5.27,0,0,0,31.928,40.51Z" transform="translate(-27.013)" fill="#195eae"/>
      <path id="パス_4152" data-name="パス 4152" d="M29.623,40.859c1.477-1.839,4.336-5.037,6.879-5.792a6.13,6.13,0,0,1,1.727-.27,3.456,3.456,0,0,1,2.544.981c.688.709,1.395,2.125.853,4.848l-.036.179-.16-.061c-.573-.172-1.074-.328-1.506-.464l-.116-.036.008-.111c.262-1.448.129-2.53-.377-3.046a1.616,1.616,0,0,0-1.2-.42,4.406,4.406,0,0,0-1.2.195c-1.626.482-3.666,2.556-4.738,3.75l-.051.037A5.26,5.26,0,0,1,29.9,41.1l-.483.017Z" transform="translate(-27.332 -0.149)" fill="#195eae"/>
      <path id="パス_4153" data-name="パス 4153" d="M360.194,88.18a4.222,4.222,0,0,0-2.375-.669,7.224,7.224,0,0,0-3.834,1.22,17.689,17.689,0,0,0-3.333,2.953l-.2.229,1.983.295c.062.01.12.024.177.039l.092.023.066-.067a14.381,14.381,0,0,1,2.258-1.889,5.25,5.25,0,0,1,2.784-.9,2.435,2.435,0,0,1,1.343.346c.94.623.913,2.019.725,3.081-.564,3.163-5.224,7.891-7.2,9.777l-.075.072.032.1a12.8,12.8,0,0,0,.543,1.41l.18.381.166-.153c2.778-2.571,7.54-7.451,8.216-11.251C362.293,90.069,361.008,88.712,360.194,88.18Z" transform="translate(-325.667 -49.135)" fill="#195eae"/>
      <path id="パス_4154" data-name="パス 4154" d="M353.209,104.339a12.753,12.753,0,0,1-.543-1.408l-.032-.1.073-.06c1.978-1.887,6.64-6.617,7.2-9.783.189-1.065.215-2.467-.73-3.092a2.445,2.445,0,0,0-1.349-.348,5.261,5.261,0,0,0-2.79.905,14.389,14.389,0,0,0-2.26,1.89l-.066.067-.081-.026c-.059-.015-.117-.029-.178-.039l-1.983-.295.21-.21a17.671,17.671,0,0,1,3.33-2.951,7.213,7.213,0,0,1,3.828-1.218,4.212,4.212,0,0,1,2.369.667c.812.531,2.092,1.884,1.539,4.98-.676,3.8-5.436,8.675-8.213,11.245l-.155.143Z" transform="translate(-325.69 -49.284)" fill="#195eae"/>
      <path id="パス_4155" data-name="パス 4155" d="M26.538,132.064l-.224-.458c-.021-.043-.2-.433-.419-1.034a13.446,13.446,0,0,1-.73-3.124,9.848,9.848,0,0,1,.571-4.641l.833-1.963a.6.6,0,0,0-.462-.821l-.5-.073-1.815-.27a78.4,78.4,0,0,1-9.847-2.135c-.565-.166-1.059-.316-1.49-.457-.727-.234-1.383-.466-1.951-.687l-.062-.023.007,0-.116-.048-.1-.031a4.594,4.594,0,0,0-1.344-.21,5.743,5.743,0,0,0-2.763.857c-.253.134-.51.268-.811.408a4.991,4.991,0,0,1-1.684.5c-.294.031-.628.051-1.025.067l-.506.021L.973,118,.528,119.56a22.654,22.654,0,0,0-.49,6.661c.263,5.381,2.633,12.056,8.5,14.654a9.092,9.092,0,0,0,3.684.763c4.022,0,7.646-2.481,9.017-3.548,1.953-1.514,4.524-3.8,4.547-3.822l.672-.594a1.059,1.059,0,0,0,.247-1.261Zm-6.778,4.121c-1.173.914-4.256,3.041-7.538,3.041a6.6,6.6,0,0,1-2.707-.558c-3.7-1.64-5.451-5.182-6.277-7.95l11.789.46a.686.686,0,0,0,.712-.658h0a.686.686,0,0,0-.659-.713l-12.2-.475a19.7,19.7,0,0,1-.437-3.226c-.007-.124-.011-.247-.015-.388l.859.026,12.747.43a.686.686,0,0,0,.709-.662h0a.686.686,0,0,0-.663-.71l-13.317-.446-.355-.014a18.9,18.9,0,0,1,.411-4.012,8.054,8.054,0,0,0,3.521-.791c.342-.163.635-.316.9-.453A3.58,3.58,0,0,1,8.88,118.5a2.27,2.27,0,0,1,.639.1,59.8,59.8,0,0,0,10.572,2.881l-.107.437c-.031.13-.064.27-.092.413a21.466,21.466,0,0,0-.472,5.676,22.1,22.1,0,0,0,1.28,6.215c.053.145.108.284.159.416l.04.1c.052.135.1.258.153.374l.009.022C20.62,135.505,20.172,135.865,19.76,136.185Zm3.627-3.013c-.439.376-1.021.875-1.64,1.4l-.121-.294-.077-.209c-.037-.1-.074-.2-.11-.307a21.6,21.6,0,0,1-1.172-5.8,20.628,20.628,0,0,1,.465-5.46l.113-.506s.068-.274.089-.355c.829.153,1.669.294,2.5.421a12.451,12.451,0,0,0-.673,5.608,16.548,16.548,0,0,0,1.158,4.489c.073.172.133.3.173.389C23.967,132.662,23.717,132.883,23.387,133.172Z" transform="translate(0 -75.695)" fill="#195eae"/>
      <path id="パス_4156" data-name="パス 4156" d="M12.371,141.772a9.081,9.081,0,0,1-3.68-.762C2.831,138.413.462,131.743.2,126.365a22.632,22.632,0,0,1,.489-6.658l.444-1.563,1.614-.065c.4-.015.732-.036,1.026-.067a5,5,0,0,0,1.688-.5c.3-.14.558-.274.811-.408a5.744,5.744,0,0,1,2.758-.856,4.583,4.583,0,0,1,1.341.209l.1.031.17.068c.572.223,1.229.454,1.951.687.431.14.925.291,1.49.457a78.394,78.394,0,0,0,9.848,2.135l1.815.27.5.073a.586.586,0,0,1,.453.806l-.833,1.963a9.863,9.863,0,0,0-.572,4.646,13.46,13.46,0,0,0,.731,3.127c.223.626.412,1.019.42,1.035l.224.458.167.35a1.047,1.047,0,0,1-.245,1.248l-.672.594c-.024.022-2.6,2.313-4.547,3.821C20.01,139.293,16.39,141.772,12.371,141.772ZM3.376,130.865c.811,2.718,2.56,6.305,6.284,7.957a6.612,6.612,0,0,0,2.711.559c3.287,0,6.371-2.128,7.545-3.044.412-.32.86-.68,1.3-1.043-.06-.164-.11-.282-.158-.408,0,0-.155-.4-.2-.517a22.085,22.085,0,0,1-1.279-6.211,21.446,21.446,0,0,1,.472-5.673c.028-.143.061-.283.092-.413l.107-.437A60.635,60.635,0,0,1,9.673,118.74a2.287,2.287,0,0,0-.644-.1,3.578,3.578,0,0,0-1.641.582c-.267.14-.559.293-.9.455a8.072,8.072,0,0,1-3.517.79,18.1,18.1,0,0,0-.422,4.023l.366.026,13.317.446a.675.675,0,0,1-.022,1.349l-12.77-.43-.859-.026a3.722,3.722,0,0,0,0,.4,19.743,19.743,0,0,0,.437,3.228l12.207.483a.675.675,0,0,1-.026,1.349L3.372,130.85Zm17.607-8.727-.113.507a20.635,20.635,0,0,0-.465,5.463,21.608,21.608,0,0,0,1.173,5.8c.036.107.074.209.111.307l.077.209.121.294c.636-.521,1.219-1.02,1.657-1.4.33-.288.58-.51.706-.623-.037-.1-.1-.23-.17-.4a16.543,16.543,0,0,1-1.157-4.486,12.385,12.385,0,0,1,.672-5.6c-.847-.144-1.688-.285-2.509-.436l-.01,0Z" transform="translate(-0.149 -75.839)" fill="#195eae"/>
    </g>
    <path id="パス_6483" data-name="パス 6483" d="M-21.612-4.908a19.369,19.369,0,0,1,2.4,2.316A19.755,19.755,0,0,1-16.9.432l1.26-1.008c-.624-.852-1.08-1.428-1.584-2a18.561,18.561,0,0,0,3.876-4.548,3.747,3.747,0,0,1,.528-.708l-.84-.948a3.142,3.142,0,0,1-1,.1l-6.672.012a8.752,8.752,0,0,1-1.56-.084v1.524a13.015,13.015,0,0,1,1.536-.06h5.724c.252,0,.432-.012.552-.024a.308.308,0,0,0-.024.06.842.842,0,0,0-.072.108A15.872,15.872,0,0,1-16.632-5.2,14.737,14.737,0,0,1-18.2-3.684c-.084-.072-.084-.072-.744-.744-.492-.48-.852-.8-1.488-1.332ZM-.8-.852c-1.452-1.4-1.452-1.4-1.752-1.668a18.6,18.6,0,0,0-2.22-1.74A15.893,15.893,0,0,0-2.9-7.572,2.308,2.308,0,0,1-2.52-8.22l-.792-.816A2.6,2.6,0,0,1-4.38-8.9l-4.224.06h-.288a5.252,5.252,0,0,1-1.056-.072L-9.9-7.38a9.457,9.457,0,0,1,1.308-.1c3.78-.06,3.78-.06,3.972-.072l-.132.312A11.567,11.567,0,0,1-8.784-2.352a9.907,9.907,0,0,1-2.4,1.32A4.814,4.814,0,0,1-10.212.3,14.261,14.261,0,0,0-5.64-3.168,23.068,23.068,0,0,1-1.956.4ZM9.732-8.436a2.126,2.126,0,0,1-.876.12L6.228-8.28c-.228,0-.42.012-.576.024a2.83,2.83,0,0,0,.192-.384L6-8.952a2.422,2.422,0,0,1,.156-.336,2.454,2.454,0,0,1,.2-.372L4.716-9.984A4.479,4.479,0,0,1,4.1-8.4,9.231,9.231,0,0,1,1-4.92,3.188,3.188,0,0,1,2.16-3.888,11.745,11.745,0,0,0,4.968-6.96L8.58-7.02a9.5,9.5,0,0,1-3.5,5.064A10.807,10.807,0,0,1,2.448-.54,3.7,3.7,0,0,1,3.468.72,12.123,12.123,0,0,0,7.74-2.328,12.447,12.447,0,0,0,10.2-6.96a2.257,2.257,0,0,1,.3-.72Zm9.2.744a2.623,2.623,0,0,1,1.212.36,2.973,2.973,0,0,1,1.476,2.664,3.36,3.36,0,0,1-1.668,3,6.377,6.377,0,0,1-2.388.66A3.828,3.828,0,0,1,18.3.4a7.845,7.845,0,0,0,1.884-.5A4.623,4.623,0,0,0,23.1-4.584c0-2.7-1.872-4.452-4.752-4.452a5.387,5.387,0,0,0-4.128,1.68A5.155,5.155,0,0,0,12.9-3.864c0,1.932.984,3.324,2.352,3.324.984,0,1.752-.708,2.436-2.256A17.36,17.36,0,0,0,18.936-7.692Zm-1.464.012a15.815,15.815,0,0,1-1,4.056c-.432,1.032-.84,1.536-1.236,1.536-.528,0-.948-.78-.948-1.764a4.018,4.018,0,0,1,1.632-3.24A3.055,3.055,0,0,1,17.472-7.68ZM-6.732,5.984v.528h-2.5a8.6,8.6,0,0,1-1.14-.048v1a8.954,8.954,0,0,1,1.14-.048h2.5V7.94h-3.42a7.661,7.661,0,0,1-1.212-.06V9a7.945,7.945,0,0,1,1.212-.06h1.116A6.888,6.888,0,0,1-10,11.192a6.492,6.492,0,0,1-1.644,1.752,4.256,4.256,0,0,1,.972,1.116A7.525,7.525,0,0,0-8.844,11.7c-.012.18-.024.624-.024.852v1.26a8.34,8.34,0,0,1-.072,1.176h1.356V14.54h4.6v.444h1.38A7.207,7.207,0,0,1-1.68,13.76V10.52a10.244,10.244,0,0,1,.048-1.14c-.384.036-.732.048-1.128.048h-5.1c.036-.144.084-.288.132-.492h5.88A8.44,8.44,0,0,1-.636,9V7.88a7.85,7.85,0,0,1-1.212.06h-3.6V7.412h2.7a8.954,8.954,0,0,1,1.14.048v-1a8.6,8.6,0,0,1-1.14.048h-2.7V5.984h3.18a8.646,8.646,0,0,1,1.212.06V4.928A6.579,6.579,0,0,1-2.268,5H-3.78A7.767,7.767,0,0,0-3,4.016l-1.3-.288A8.687,8.687,0,0,1-5.148,5h-1.74a10.913,10.913,0,0,0-.864-1.272L-8.988,4A5.69,5.69,0,0,1-8.22,5H-9.744a6.513,6.513,0,0,1-1.2-.072V6.044a8.777,8.777,0,0,1,1.2-.06Zm3.756,4.4v.5H-7.584v-.5Zm0,1.344v.492H-7.584v-.492Zm0,1.332v.492H-7.584v-.492Zm8.46-1.848V13.2a9.886,9.886,0,0,1-.072,1.416H6.828a10.538,10.538,0,0,1-.06-1.428V11.216h2.88v2.1c0,.252-.108.3-.6.3-.384,0-.912-.036-1.512-.1a4.854,4.854,0,0,1,.336,1.248c.36.024.972.048,1.344.048,1.368,0,1.728-.252,1.728-1.248V5.684c0-.648.012-.948.048-1.356a13.345,13.345,0,0,1-1.38.048H2.88c-.648,0-.96-.012-1.38-.048a16.21,16.21,0,0,1,.06,1.74c0,1.416-.048,3.12-.108,4.128a12.142,12.142,0,0,1-.24,1.836A5.488,5.488,0,0,1,.336,14.06a7.219,7.219,0,0,1,1.164.948,8.056,8.056,0,0,0,1.224-3.792Zm0-1.188H2.808c0-.24,0-.324.012-.888,0-.168.012-.408.012-.756H5.484Zm1.284,0V8.384h2.88v1.644ZM5.484,7.208H2.856l.012-.336V5.636H5.484Zm1.284,0V5.636h2.88V7.208Z" transform="translate(1711 760)" fill="#195eae"/>
  </g>
</svg>
