<svg xmlns="http://www.w3.org/2000/svg" width="80" height="80" viewBox="0 0 80 80">
  <g id="グループ_9072" data-name="グループ 9072" transform="translate(-1960 -894)">
    <g id="グループ_9068" data-name="グループ 9068" transform="translate(289 190)">
      <circle id="楕円形_18" data-name="楕円形 18" cx="40" cy="40" r="40" transform="translate(1671 704)" fill="#fff"/>
      <path id="パス_6485" data-name="パス 6485" d="M-18.552-6.7H-21.24a11.724,11.724,0,0,1-1.488-.072v1.344a13.961,13.961,0,0,1,1.5-.072h2.676v1.452H-21.9a11.511,11.511,0,0,1-1.476-.072V-2.76A12.04,12.04,0,0,1-21.9-2.832h3.348v1.98c0,.288-.108.372-.456.372a14.942,14.942,0,0,1-2-.168A3.675,3.675,0,0,1-20.652.66c.684.06,1.272.084,1.632.084A3.846,3.846,0,0,0-17.676.552c.3-.132.468-.5.468-1.032V-2.832h3.072a11.96,11.96,0,0,1,1.464.072V-4.116a11.429,11.429,0,0,1-1.464.072h-3.072V-5.5H-14.7a12.455,12.455,0,0,1,1.476.072V-6.768a11.938,11.938,0,0,1-1.5.072h-2.484v-1.56a32,32,0,0,0,3.636-.672l-.984-1.2a8.409,8.409,0,0,1-2.22.576,37.239,37.239,0,0,1-5.376.408h-.588A6.647,6.647,0,0,1-22.3-7.908c1.572-.036,2.172-.072,3.744-.216Zm14.544-1.6v-.576a8.348,8.348,0,0,1,.072-1.2H-5.364a7.339,7.339,0,0,1,.072,1.212v.564H-6.36c.084-.24.168-.5.228-.7.084-.288.084-.288.132-.432l-1.284-.312A6.459,6.459,0,0,1-8.952-6.36a3.5,3.5,0,0,1,1.044.852A7.132,7.132,0,0,0-6.84-7.128h1.548v1.692H-7.428A8.413,8.413,0,0,1-8.64-5.508v1.32A10.454,10.454,0,0,1-7.332-4.26h.624A3.934,3.934,0,0,1-8.1-.948a4.829,4.829,0,0,1-1.32.732A3.5,3.5,0,0,1-8.568.912,5.618,5.618,0,0,0-7.584.336,4.979,4.979,0,0,0-6.324-.912,6.119,6.119,0,0,0-5.448-4.26H-4.44V-.132A.814.814,0,0,0-4.1.576a2.663,2.663,0,0,0,1.428.24C-.708.816-.516.588-.42-1.944a4.377,4.377,0,0,1-1.224-.384A5.429,5.429,0,0,1-1.8-.588c-.1.156-.3.2-.78.2s-.588-.06-.588-.3V-4.26h1.356a8.278,8.278,0,0,1,1.248.072v-1.32a8.868,8.868,0,0,1-1.272.072H-4.008V-7.128h1.644c.492,0,.924.024,1.32.06v-1.3a9.083,9.083,0,0,1-1.308.072Zm-7.248-.792A10.076,10.076,0,0,1-9.24-7.452L-8.412-8.5a13.2,13.2,0,0,0-2-1.548Zm-.432,3A11.065,11.065,0,0,1-9.528-4.44l.732-1.1A13.463,13.463,0,0,0-10.932-7.08Zm1.776,2.352a9.883,9.883,0,0,1-1.716,3.6l1.14,1A18.951,18.951,0,0,0-8.844-2.964ZM1.284-8.82a5.734,5.734,0,0,1,.048.768c.048,3.324.264,5.064.756,6.264C2.568-.636,3.216-.048,4.02-.048c1.02,0,1.716-.972,2.34-3.312a5.923,5.923,0,0,1-1.2-1.092A8.847,8.847,0,0,1,4.524-2.28c-.144.336-.312.516-.492.516-.384,0-.768-.768-.972-2.016A22.456,22.456,0,0,1,2.832-7a13.95,13.95,0,0,1,.1-1.824Zm6.06,1.14a10.474,10.474,0,0,1,1.7,2.952A12.165,12.165,0,0,1,9.816-1.26L11.3-1.824A11.964,11.964,0,0,0,8.6-8.28Zm11.592-.012a2.623,2.623,0,0,1,1.212.36,2.973,2.973,0,0,1,1.476,2.664,3.36,3.36,0,0,1-1.668,3,6.377,6.377,0,0,1-2.388.66A3.828,3.828,0,0,1,18.3.4a7.845,7.845,0,0,0,1.884-.5A4.623,4.623,0,0,0,23.1-4.584c0-2.7-1.872-4.452-4.752-4.452a5.387,5.387,0,0,0-4.128,1.68A5.155,5.155,0,0,0,12.9-3.864c0,1.932.984,3.324,2.352,3.324.984,0,1.752-.708,2.436-2.256A17.36,17.36,0,0,0,18.936-7.692Zm-1.464.012a15.815,15.815,0,0,1-1,4.056c-.432,1.032-.84,1.536-1.236,1.536-.528,0-.948-.78-.948-1.764a4.018,4.018,0,0,1,1.632-3.24A3.055,3.055,0,0,1,17.472-7.68Zm-26.88,14.4A7.37,7.37,0,0,1-11.82,9.608a7.377,7.377,0,0,1,.5,1.32,5.325,5.325,0,0,0,.78-.78c-.024.684-.024.792-.024,1.224V13.58a10.4,10.4,0,0,1-.072,1.4h1.368a9.88,9.88,0,0,1-.06-1.356v-4.7a7.425,7.425,0,0,0,.552-.78l.12-.192.084.516c.336-.06.468-.072,1.188-.144.516-.036,1.536-.156,1.956-.216.06.168.084.228.144.42l.648-.348a5.058,5.058,0,0,1-.4.588h-2.58c-.42,0-.636-.012-.876-.024.024.264.036.516.036,1.008v3.96a7.981,7.981,0,0,1-.06,1.188h1.26a6.684,6.684,0,0,1-.06-1.056V12.8H-5.82v.684c0,.192-.06.24-.288.24a5.667,5.667,0,0,1-.768-.06A3.071,3.071,0,0,1-6.66,14.72c.4.012.444.012.516.012.876,0,1.152-.108,1.356-.516a6.689,6.689,0,0,1,.432.8,8.046,8.046,0,0,0,1.764-2.028A10.01,10.01,0,0,0-.84,14.96a4.929,4.929,0,0,1,.7-1.356A6.3,6.3,0,0,1-1.92,11.732a11.846,11.846,0,0,0,.936-4.8c.168,0,.42.024.636.048V5.708a5.415,5.415,0,0,1-.984.06H-2.544c.048-.168.072-.264.108-.408.24-1.044.24-1.044.288-1.212l-1.284-.276a4.98,4.98,0,0,1-.1.936A10.1,10.1,0,0,1-4.416,7.8,8.128,8.128,0,0,0-5.2,6.272l-.912.348a4.736,4.736,0,0,1,.312.588c-.336.036-.492.048-1.116.1a11.447,11.447,0,0,0,.444-1.2h1.344c.336,0,.4,0,.936.024V4.94A5.114,5.114,0,0,1-5.16,5h-.756V4.688a2.725,2.725,0,0,1,.072-.768H-7.188a3.44,3.44,0,0,1,.06.756V5h-.744a4.932,4.932,0,0,1-.8-.036c.168-.2.264-.324.3-.372L-9.432,3.8a6.066,6.066,0,0,1-2.292,2.388,4.557,4.557,0,0,1,.576,1.188,8.374,8.374,0,0,0,1.56-1.32,6.418,6.418,0,0,0,.744-.864v.96A7.367,7.367,0,0,1-7.872,6.1h.24a7.384,7.384,0,0,1-.42,1.26c-.108,0-.144.012-.276.012Zm7.332.216a11.832,11.832,0,0,1-.54,3.516,7.4,7.4,0,0,1-.612-2.616c.192-.492.264-.636.348-.9ZM-4.7,9.692V9.26a4.991,4.991,0,0,1,.336.612c.156-.216.2-.288.324-.468a9.621,9.621,0,0,0,.792,2.436A6.416,6.416,0,0,1-4.7,13.58Zm-2.6,2.148v-.576H-5.82v.576Zm0-1.536V9.752H-5.82V10.3ZM9.852,6.188a18.991,18.991,0,0,1-6.348.72c.024.264.036.54.036,1.1v3.864a6.386,6.386,0,0,1-.828.084H2.628l.264,1.26c.168-.048.4-.1.564-.132,2.364-.444,2.364-.444,3.684-.78V11.18c-.972.24-1.284.312-2.34.492V10.136L7.08,10.1a6.624,6.624,0,0,0,1.5,3.264,7.271,7.271,0,0,1-1.152.06H3.756a6.1,6.1,0,0,1-.912-.048v1.26a5.766,5.766,0,0,1,1.116-.072H7.428a6.73,6.73,0,0,1,1.152.072V13.364a2.728,2.728,0,0,0,1.68,1.008c.708,0,1.1-.636,1.38-2.232a3.446,3.446,0,0,1-1.044-.648c-.084,1.08-.2,1.476-.42,1.476-.192,0-.576-.3-.888-.708a5.476,5.476,0,0,1-.948-2.172l1.8-.036h.288a6.128,6.128,0,0,1,.888.036l-.024-1.224a8.793,8.793,0,0,1-1.152.084l-1.968.024C8.112,8.42,8.1,8.3,8.076,7.7c.9-.12,1.248-.18,2.652-.432ZM4.8,9.02V7.952c.78-.036.78-.036,2.028-.12.036.468.072.864.1,1.152Zm.9-4.14H2.736c-.528,0-.96-.024-1.38-.06.036.528.048.816.048,1.572a33.948,33.948,0,0,1-.276,5.22,5.883,5.883,0,0,1-.84,2.244,5.074,5.074,0,0,1,1.044,1c1.092-1.824,1.356-3.516,1.368-8.82h7.5a11.277,11.277,0,0,1,1.248.048V4.808A11.22,11.22,0,0,1,10,4.88H7.032V4.5a2.654,2.654,0,0,1,.06-.7H5.64a3.715,3.715,0,0,1,.06.684Z" transform="translate(1711 760)" fill="#195eae"/>
    </g>
    <g id="手洗いのアイコン" transform="translate(1980.963 832.754)">
      <path id="パス_4167" data-name="パス 4167" d="M12.1,130.543l-4.89-.084a1.121,1.121,0,0,1-1.1-1.141,1.086,1.086,0,0,1,.169-.549l6.39.116a3.976,3.976,0,0,1-.18-.57l-5.238-.1-1.6-.021-.8-.021a1.111,1.111,0,0,1-1.1-1.13,1.046,1.046,0,0,1,.158-.549l8.523.148a.707.707,0,0,1,.021-.148,3.21,3.21,0,0,1,.1-.412l-7.668-.137-1.584-.032H3.2a1.12,1.12,0,0,1,.021-2.239h.127l1.035.021,9.252.169.011-.56-10.213-.19A1.121,1.121,0,0,1,4.4,121.46h.021l8.175.148,3.306.063.011-.56-5.334-.655a1.12,1.12,0,0,1,.01-2.239h.021l4.024.074,4.478.085.412.011.718-.729,1.056-1.035.306-.317-2.461-.042-4.468-.085-4.024-.074h-.063a3.256,3.256,0,0,0-3.232,3.179v.116l-2.894-.053H4.4a3.252,3.252,0,0,0-3.211,2.947,3.236,3.236,0,0,0,.507,5.355,3.245,3.245,0,0,0,2.419,2.556,3.278,3.278,0,0,0,.792,1.373,3.189,3.189,0,0,0,2.26.993l3.485.063a2.915,2.915,0,0,1,.159-.423,4.45,4.45,0,0,1,.845-1.225Z" transform="translate(0 -38.782)" fill="#195eae"/>
      <path id="パス_4168" data-name="パス 4168" d="M179.735,78.39l-7.171-3.707-.909-.475-.94.422-3.158,1.437-.348.158-1.331,1.331-1.035,1.035L163.8,79.625l-.613.613-3.158,3.169-2.852,2.841a3.031,3.031,0,0,0-.782,1.32,1.184,1.184,0,0,0-.085.317,3.2,3.2,0,0,0,.866,2.936l.095.084-.887.887-1.046,1.035-.127.127a3.112,3.112,0,0,0-.634.919,3.229,3.229,0,0,0,.476,3.475l-.011.285a3.214,3.214,0,0,0,.95,2.281,3.285,3.285,0,0,0,3.274.792,3.22,3.22,0,0,0,3.517.032,3.215,3.215,0,0,0,1.542.391,3.178,3.178,0,0,0,2.281-.951l5.1-5.091,1.88-1.891,3.623-3.623.317-.306.159-.412,3.042-7.826,0-.012A2.1,2.1,0,0,0,179.735,78.39Zm-15.41,20.628a1.11,1.11,0,0,1-.792-.328,1.21,1.21,0,0,1-.285-.507l5.144-5.133-.158-.158-.243-.243-4.457,4.457-1.12,1.13-.581.57a1.07,1.07,0,0,1-.782.328,1.111,1.111,0,0,1-.792-.328,1.126,1.126,0,0,1-.285-.5l4.257-4.257,1.088-1.088,1.489-1.489-.2-.2-.2-.2-.5.5L164.484,93l-1.035,1.035-3.19,3.19-1.119,1.13-.074.074a1.145,1.145,0,0,1-.792.317,1.114,1.114,0,0,1-.792-1.9l.813-.813,2.049-2.049,1.046-1.046,1.035-1.035,2.408-2.408-.4-.391-2.789,2.789L160.6,92.923l-3.39,3.39a1.13,1.13,0,0,1-.5-.285,1.115,1.115,0,0,1,0-1.574l1.574-1.574,1.035-1.035,3.169-3.169,2.345-2.345-.4-.4-4.172,3.39a1.117,1.117,0,1,1-1.584-1.574l2.841-2.852,3.168-3.158,2.049-2.059.94-.94.75-.75.106-.053,3.063-1.383,7.172,3.707-3.042,7.826L172.1,91.708l-1.891,1.88-5.091,5.1A1.11,1.11,0,0,1,164.325,99.017Z" transform="translate(-142.8 0)" fill="#195eae"/>
    </g>
  </g>
</svg>
