<svg xmlns="http://www.w3.org/2000/svg" width="80" height="80" viewBox="0 0 80 80">
  <g id="グループ_9073" data-name="グループ 9073" transform="translate(-1965 -1001)">
    <g id="グループ_9069" data-name="グループ 9069" transform="translate(294 297)">
      <circle id="楕円形_18" data-name="楕円形 18" cx="40" cy="40" r="40" transform="translate(1671 704)" fill="#fff"/>
      <path id="パス_6487" data-name="パス 6487" d="M-11.244-6.876h-1.524a8.411,8.411,0,0,1-1.116-.048c.024.252.036.624.036,1.152V-.444a13.932,13.932,0,0,1-.06,1.392h1.416a11.3,11.3,0,0,1-.072-1.4V-1.6h4.092v1c0,.228-.072.276-.456.276a10.793,10.793,0,0,1-1.38-.12A5.109,5.109,0,0,1-10.032.8c.624.048,1,.06,1.368.06A2.086,2.086,0,0,0-7.56.672a1.015,1.015,0,0,0,.384-.948V-5.688a10.765,10.765,0,0,1,.048-1.236,8.646,8.646,0,0,1-1.116.048H-9.972V-8.988A8.221,8.221,0,0,1-9.9-10.164h-1.416a8.284,8.284,0,0,1,.072,1.188Zm-1.32,3.192h4.092v.96h-4.092Zm4.092-1.128h-4.092v-.912h4.092ZM-17-9.072a8.759,8.759,0,0,1,2.028,1.74l.816-1.044A11.534,11.534,0,0,0-16.188-10Zm-.468,2.952a9.291,9.291,0,0,1,2.136,1.68l.744-1.08a13.059,13.059,0,0,0-2.136-1.56Zm1.788,2.4A10.994,10.994,0,0,1-17.4-.108l1.176.984A21.755,21.755,0,0,0-14.58-2.952Zm7.536-6.168a8.747,8.747,0,0,1-1.1,2.34l1.08.576A14.133,14.133,0,0,0-6.9-9.384Zm-6.144.6A8.561,8.561,0,0,1-13-7.008l1.152-.576a10.724,10.724,0,0,0-1.308-2.268ZM2.3-.432c-.12.312-.2.36-.636.36A6.211,6.211,0,0,1,.42-.192,3.647,3.647,0,0,1,.792,1c.408.024.72.036.9.036,1.32,0,1.656-.252,1.932-1.464h.324A9.739,9.739,0,0,1,5.04-.384V-1.476a7.166,7.166,0,0,1-1.008.048H3.78a5.847,5.847,0,0,0,.072-.648h.492c.408,0,.828.024,1.176.048V-3.18a6.28,6.28,0,0,1-1.092.06H3.936c.012-.2.024-.384.024-.492.024-.252.024-.42.036-.48a5.577,5.577,0,0,1,.036-.66c-.348.024-.564.036-1.284.036H-2.424c-.66,0-.9-.012-1.2-.036a10.135,10.135,0,0,1-.2,1.632h-.456a8.847,8.847,0,0,1-1.248-.072V-2a7.689,7.689,0,0,1,1.116-.072h.36A15.037,15.037,0,0,1-4.824.336L-3.432.4c.156-.408.192-.54.288-.828ZM-2.508-3.12l.108-.624H-.576c-.036.372-.036.372-.072.624ZM-.816-2.076c-.06.372-.072.432-.12.648H-2.88c.1-.372.1-.372.156-.648Zm1.128.648c.06-.324.06-.372.108-.648H2.568c-.036.336-.036.4-.072.648ZM.564-3.12c.024-.18.024-.18.072-.624H2.688c-.012.264-.012.264-.024.624ZM-3.552-9.276a10.322,10.322,0,0,1-1.392-.072V-8.2A10.473,10.473,0,0,1-3.7-8.244H-.708v.552H-3.3A9.744,9.744,0,0,1-4.428-7.74v1.068A8,8,0,0,1-3.3-6.732H-.708v.552H-4.164a8,8,0,0,1-1.248-.06V-5.1A10.2,10.2,0,0,1-4.08-5.172h8.2A9.946,9.946,0,0,1,5.448-5.1V-6.24a7.835,7.835,0,0,1-1.224.06H.588v-.552h2.76a7.62,7.62,0,0,1,1.116.06V-7.74a9.261,9.261,0,0,1-1.116.048H.588v-.552h3.18A11.035,11.035,0,0,1,5-8.2V-9.348a9.766,9.766,0,0,1-1.38.072H.588A3.237,3.237,0,0,1,.66-10.14H-.768a3.923,3.923,0,0,1,.06.864ZM12.936-7.692a2.623,2.623,0,0,1,1.212.36,2.973,2.973,0,0,1,1.476,2.664,3.36,3.36,0,0,1-1.668,3,6.377,6.377,0,0,1-2.388.66A3.828,3.828,0,0,1,12.3.4a7.845,7.845,0,0,0,1.884-.5A4.623,4.623,0,0,0,17.1-4.584c0-2.7-1.872-4.452-4.752-4.452A5.387,5.387,0,0,0,8.22-7.356,5.155,5.155,0,0,0,6.9-3.864C6.9-1.932,7.884-.54,9.252-.54c.984,0,1.752-.708,2.436-2.256A17.36,17.36,0,0,0,12.936-7.692Zm-1.464.012a15.815,15.815,0,0,1-1,4.056c-.432,1.032-.84,1.536-1.236,1.536-.528,0-.948-.78-.948-1.764a4.018,4.018,0,0,1,1.632-3.24A3.055,3.055,0,0,1,11.472-7.68Zm-20.88,14.4A7.37,7.37,0,0,1-11.82,9.608a7.377,7.377,0,0,1,.5,1.32,5.325,5.325,0,0,0,.78-.78c-.024.684-.024.792-.024,1.224V13.58a10.4,10.4,0,0,1-.072,1.4h1.368a9.88,9.88,0,0,1-.06-1.356v-4.7a7.425,7.425,0,0,0,.552-.78l.12-.192.084.516c.336-.06.468-.072,1.188-.144.516-.036,1.536-.156,1.956-.216.06.168.084.228.144.42l.648-.348a5.058,5.058,0,0,1-.4.588h-2.58c-.42,0-.636-.012-.876-.024.024.264.036.516.036,1.008v3.96a7.981,7.981,0,0,1-.06,1.188h1.26a6.684,6.684,0,0,1-.06-1.056V12.8H-5.82v.684c0,.192-.06.24-.288.24a5.667,5.667,0,0,1-.768-.06A3.071,3.071,0,0,1-6.66,14.72c.4.012.444.012.516.012.876,0,1.152-.108,1.356-.516a6.689,6.689,0,0,1,.432.8,8.046,8.046,0,0,0,1.764-2.028A10.01,10.01,0,0,0-.84,14.96a4.929,4.929,0,0,1,.7-1.356A6.3,6.3,0,0,1-1.92,11.732a11.846,11.846,0,0,0,.936-4.8c.168,0,.42.024.636.048V5.708a5.415,5.415,0,0,1-.984.06H-2.544c.048-.168.072-.264.108-.408.24-1.044.24-1.044.288-1.212l-1.284-.276a4.98,4.98,0,0,1-.1.936A10.1,10.1,0,0,1-4.416,7.8,8.128,8.128,0,0,0-5.2,6.272l-.912.348a4.736,4.736,0,0,1,.312.588c-.336.036-.492.048-1.116.1a11.447,11.447,0,0,0,.444-1.2h1.344c.336,0,.4,0,.936.024V4.94A5.114,5.114,0,0,1-5.16,5h-.756V4.688a2.725,2.725,0,0,1,.072-.768H-7.188a3.44,3.44,0,0,1,.06.756V5h-.744a4.932,4.932,0,0,1-.8-.036c.168-.2.264-.324.3-.372L-9.432,3.8a6.066,6.066,0,0,1-2.292,2.388,4.557,4.557,0,0,1,.576,1.188,8.374,8.374,0,0,0,1.56-1.32,6.418,6.418,0,0,0,.744-.864v.96A7.367,7.367,0,0,1-7.872,6.1h.24a7.384,7.384,0,0,1-.42,1.26c-.108,0-.144.012-.276.012Zm7.332.216a11.832,11.832,0,0,1-.54,3.516,7.4,7.4,0,0,1-.612-2.616c.192-.492.264-.636.348-.9ZM-4.7,9.692V9.26a4.991,4.991,0,0,1,.336.612c.156-.216.2-.288.324-.468a9.621,9.621,0,0,0,.792,2.436A6.416,6.416,0,0,1-4.7,13.58Zm-2.6,2.148v-.576H-5.82v.576Zm0-1.536V9.752H-5.82V10.3ZM9.852,6.188a18.991,18.991,0,0,1-6.348.72c.024.264.036.54.036,1.1v3.864a6.386,6.386,0,0,1-.828.084H2.628l.264,1.26c.168-.048.4-.1.564-.132,2.364-.444,2.364-.444,3.684-.78V11.18c-.972.24-1.284.312-2.34.492V10.136L7.08,10.1a6.624,6.624,0,0,0,1.5,3.264,7.271,7.271,0,0,1-1.152.06H3.756a6.1,6.1,0,0,1-.912-.048v1.26a5.766,5.766,0,0,1,1.116-.072H7.428a6.73,6.73,0,0,1,1.152.072V13.364a2.728,2.728,0,0,0,1.68,1.008c.708,0,1.1-.636,1.38-2.232a3.446,3.446,0,0,1-1.044-.648c-.084,1.08-.2,1.476-.42,1.476-.192,0-.576-.3-.888-.708a5.476,5.476,0,0,1-.948-2.172l1.8-.036h.288a6.128,6.128,0,0,1,.888.036l-.024-1.224a8.793,8.793,0,0,1-1.152.084l-1.968.024C8.112,8.42,8.1,8.3,8.076,7.7c.9-.12,1.248-.18,2.652-.432ZM4.8,9.02V7.952c.78-.036.78-.036,2.028-.12.036.468.072.864.1,1.152Zm.9-4.14H2.736c-.528,0-.96-.024-1.38-.06.036.528.048.816.048,1.572a33.948,33.948,0,0,1-.276,5.22,5.883,5.883,0,0,1-.84,2.244,5.074,5.074,0,0,1,1.044,1c1.092-1.824,1.356-3.516,1.368-8.82h7.5a11.277,11.277,0,0,1,1.248.048V4.808A11.22,11.22,0,0,1,10,4.88H7.032V4.5a2.654,2.654,0,0,1,.06-.7H5.64a3.715,3.715,0,0,1,.06.684Z" transform="translate(1711 760)" fill="#195eae"/>
    </g>
    <g id="消毒用アルコールボトルのアイコン_2" data-name="消毒用アルコールボトルのアイコン 2" transform="translate(1893.339 1008)">
      <path id="パス_4157" data-name="パス 4157" d="M182.409,10.478l-2.5-1.418V6.634a1.911,1.911,0,0,0-1.648-1.892V3.393h.868v-1.9A1.49,1.49,0,0,0,177.639,0h-4.377a1.49,1.49,0,0,0-1.489,1.489v1.9h.866V4.741a1.908,1.908,0,0,0-1.645,1.892V9.058l-2.508,1.421a2.661,2.661,0,0,0-1.347,2.314V31.585a2.894,2.894,0,0,0,2.889,2.889h10.842a2.894,2.894,0,0,0,2.889-2.889V12.792A2.656,2.656,0,0,0,182.409,10.478Zm-8.766-6.954.01-.013h3.6l.007.013v1.2h-3.614v-1.2Zm-1.979,3.881V6.634a1.231,1.231,0,0,1,.1-.485,1.244,1.244,0,0,1,1.147-.759h5.085a1.245,1.245,0,0,1,1.15.759,1.228,1.228,0,0,1,.1.485V9.225h-.06l-.037-.02v.02h-7.382V9.2l-.04.023h-.057Zm-.9,4.48a3.064,3.064,0,0,1,.993-.6,2.342,2.342,0,0,1,.5-.137,1.949,1.949,0,0,1,.5-.027,1.731,1.731,0,0,1,1.254.562,1.56,1.56,0,0,1,.345.642,1.78,1.78,0,0,1,.07.5,2.348,2.348,0,0,1-.057.5,2.979,2.979,0,0,1-.953,1.558,2.337,2.337,0,0,1-3.25.2A2.336,2.336,0,0,1,170.768,11.886Zm11.989,19.7a1.886,1.886,0,0,1-1.886,1.886H170.029a1.888,1.888,0,0,1-1.885-1.886V30.468h14.614Zm0-6.807H168.143V17.553h14.614Z" transform="translate(-64.462)" fill="#195eae"/>
      <path id="パス_4158" data-name="パス 4158" d="M106.977,16.918a1.743,1.743,0,0,1,.04-.374H100.16a1.292,1.292,0,0,0-1.237.909l-.9,2.872,1.153.358.809-2.588a.491.491,0,0,1,.465-.344h6.526Z" transform="translate(0 -15.43)" fill="#195eae"/>
      <path id="パス_4159" data-name="パス 4159" d="M197.814,296.555a.976.976,0,0,0,.077.231.792.792,0,0,0,.154.207.971.971,0,0,0,.3.2,1.031,1.031,0,0,0,.4.07.959.959,0,0,0,.625-.207.972.972,0,0,0,.331-.619h-.518a.563.563,0,0,1-.144.267.4.4,0,0,1-.294.1.472.472,0,0,1-.19-.037.349.349,0,0,1-.137-.1.329.329,0,0,1-.06-.09.483.483,0,0,1-.04-.134,1.458,1.458,0,0,1-.02-.2c-.007-.08-.01-.184-.01-.308s0-.231.01-.311a1.45,1.45,0,0,1,.02-.2.569.569,0,0,1,.04-.134.33.33,0,0,1,.06-.09.432.432,0,0,1,.137-.1.471.471,0,0,1,.19-.037.384.384,0,0,1,.291.107.536.536,0,0,1,.144.264h.522a.918.918,0,0,0-.956-.826.968.968,0,0,0-.4.074.916.916,0,0,0-.3.2.78.78,0,0,0-.154.2.959.959,0,0,0-.077.234,2.2,2.2,0,0,0-.03.277c0,.1,0,.21,0,.337s0,.237,0,.338A2.291,2.291,0,0,0,197.814,296.555Z" transform="translate(-93.04 -274.773)" fill="#195eae"/>
      <path id="パス_4160" data-name="パス 4160" d="M239.992,297.113h-1.187v-2.156H238.3v2.615h1.7Z" transform="translate(-130.828 -275.097)" fill="#195eae"/>
      <path id="パス_4161" data-name="パス 4161" d="M276.816,297.113H275.6v-.635h1.033v-.455H275.6v-.612h1.214v-.455h-1.722v2.615h1.722Z" transform="translate(-165.148 -275.097)" fill="#195eae"/>
      <path id="パス_4162" data-name="パス 4162" d="M309.9,297.106h.926l.157.465h.532l-.956-2.615h-.4l-.953,2.615h.532Zm.471-1.381.321.953h-.652Z" transform="translate(-196.963 -275.096)" fill="#195eae"/>
      <path id="パス_4163" data-name="パス 4163" d="M354.156,295.967l1.033,1.6h.458v-2.615h-.512v1.6l-1.036-1.6h-.455v2.615h.512Z" transform="translate(-238.409 -275.097)" fill="#195eae"/>
      <path id="パス_4164" data-name="パス 4164" d="M259.9,95.565V93.606h-.455v2.106h.455Z" transform="translate(-150.556 -87.303)" fill="#195eae"/>
      <path id="パス_4165" data-name="パス 4165" d="M287.662,95.565V93.606h-.455v2.106h.455Z" transform="translate(-176.445 -87.303)" fill="#195eae"/>
      <path id="パス_4166" data-name="パス 4166" d="M315.42,95.565V93.606h-.455v2.106h.455Z" transform="translate(-202.334 -87.303)" fill="#195eae"/>
    </g>
  </g>
</svg>
