<svg xmlns="http://www.w3.org/2000/svg" width="80" height="80" viewBox="0 0 80 80">
  <g id="グループ_9074" data-name="グループ 9074" transform="translate(-2072 -1008)">
    <g id="グループ_9070" data-name="グループ 9070" transform="translate(401 304)">
      <circle id="楕円形_18" data-name="楕円形 18" cx="40" cy="40" r="40" transform="translate(1671 704)" fill="#fff"/>
      <path id="パス_6486" data-name="パス 6486" d="M-7.56-1.812a7.63,7.63,0,0,1,1.164.06V-2.964c-.192.024-.336.036-.648.048V-6.264c0-.552.012-.852.036-1.164-.288.024-.528.036-1.032.036H-9.18a11.748,11.748,0,0,0,.744-1.032,4.507,4.507,0,0,1,.3-.444l-.636-.648a5.482,5.482,0,0,1-.876.048h-1.416c.048-.1.084-.156.108-.2.12-.276.12-.276.18-.4l-1.332-.144a4.029,4.029,0,0,1-.6,1.284,6.649,6.649,0,0,1-1.5,1.6V-7.92a5.14,5.14,0,0,1-.624.036h-.12v-.984a8.123,8.123,0,0,1,.06-1.224h-1.392a7.993,7.993,0,0,1,.072,1.236v.972h-.432a4.67,4.67,0,0,1-.816-.06v1.272a6.666,6.666,0,0,1,.8-.048h.444v2.3A7.516,7.516,0,0,1-17.58-4.1L-17.4-2.8a10.939,10.939,0,0,1,1.188-.4V-.6c0,.264-.06.324-.324.324a7.887,7.887,0,0,1-.972-.072A3.779,3.779,0,0,1-17.244.864c.348.024.492.036.684.036,1.308,0,1.608-.216,1.608-1.164V-3.648c.288-.12.372-.156.768-.324V-5.16c-.372.156-.516.216-.768.312V-6.72h.132c.144,0,.312.012.456.024a3.584,3.584,0,0,1,.42.66l.288-.216v3.336a4.32,4.32,0,0,1-.672-.048v1.2a9.513,9.513,0,0,1,1.08-.048h1.776a2.751,2.751,0,0,1-1.032,1,5.41,5.41,0,0,1-2.316.672,5.256,5.256,0,0,1,.564,1.176A7.108,7.108,0,0,0-11.88.144,4,4,0,0,0-10.5-1.2,4.061,4.061,0,0,0-9.132.1,7.106,7.106,0,0,0-6.8,1.032,4.849,4.849,0,0,1-6.288-.18C-8.184-.528-8.94-.888-9.7-1.812Zm-4.992-1.1v-1.02a4.91,4.91,0,0,1,.708.636c.876-.768,1.14-1.4,1.2-3.012h.528v1.6c0,.588.288.768,1.3.768.048,0,.252-.012.636-.024v1.056h-1.74c.036-.36.036-.36.084-.816l-1.236-.036a3.693,3.693,0,0,1-.06.852Zm.12-4.476a10.909,10.909,0,0,0,.756-1h1.812a7.719,7.719,0,0,1-.72,1Zm.78,1.08a3.546,3.546,0,0,1-.192,1.26,1.862,1.862,0,0,1-.708.948V-6.312Zm3.468,1.356c-.228.012-.324.012-.42.012-.456,0-.5-.024-.5-.288v-1.08h.924ZM3.408-7.968a12.478,12.478,0,0,1,1.5.072V-9.312a9.714,9.714,0,0,1-1.5.084H-2.124c.312-.636.312-.636.42-.84l-1.44-.216a2.2,2.2,0,0,1-.264.756A8.72,8.72,0,0,1-5.58-6.816a4.937,4.937,0,0,1,.936.936A11.225,11.225,0,0,0-2.856-7.968ZM2.064-.324C1.308-1,.708-1.488-.024-2.064a9.91,9.91,0,0,0,.78-1c.264-.36.4-.54.516-.672L-.012-4.344A4.382,4.382,0,0,1-1.056-2.808C-1.908-3.384-2.3-3.636-3.18-4.14l-.876.8A21.077,21.077,0,0,1-1.968-1.968,13.4,13.4,0,0,1-5.292-.144a4.6,4.6,0,0,1,.9,1.128A14.689,14.689,0,0,0-.924-1.176,26.313,26.313,0,0,1,1.164.672ZM2.34-4.476A11.115,11.115,0,0,0,2.892-.6C3.228.312,3.84.936,4.38.936c.732,0,1.1-.768,1.3-2.652a3.59,3.59,0,0,1-1.032-.72A3.958,3.958,0,0,1,4.356-.66a1.549,1.549,0,0,1-.42-.816A11.8,11.8,0,0,1,3.6-4.56a8.215,8.215,0,0,1,.06-1.092,12.291,12.291,0,0,1-1.4.048h-6.1a5.929,5.929,0,0,1-1.032-.06V-4.4a10.123,10.123,0,0,1,1.38-.072ZM-3.2-6.264a9.972,9.972,0,0,1,1.14-.048H2.724A8.955,8.955,0,0,1,4-6.252V-7.44a10.043,10.043,0,0,1-1.272.06H-2.3a7.56,7.56,0,0,1-.9-.048Zm16.14-1.428a2.623,2.623,0,0,1,1.212.36,2.973,2.973,0,0,1,1.476,2.664,3.36,3.36,0,0,1-1.668,3,6.377,6.377,0,0,1-2.388.66A3.828,3.828,0,0,1,12.3.4a7.845,7.845,0,0,0,1.884-.5A4.623,4.623,0,0,0,17.1-4.584c0-2.7-1.872-4.452-4.752-4.452A5.387,5.387,0,0,0,8.22-7.356,5.155,5.155,0,0,0,6.9-3.864C6.9-1.932,7.884-.54,9.252-.54c.984,0,1.752-.708,2.436-2.256A17.36,17.36,0,0,0,12.936-7.692Zm-1.464.012a15.815,15.815,0,0,1-1,4.056c-.432,1.032-.84,1.536-1.236,1.536-.528,0-.948-.78-.948-1.764a4.018,4.018,0,0,1,1.632-3.24A3.055,3.055,0,0,1,11.472-7.68Zm-20.88,14.4A7.37,7.37,0,0,1-11.82,9.608a7.377,7.377,0,0,1,.5,1.32,5.325,5.325,0,0,0,.78-.78c-.024.684-.024.792-.024,1.224V13.58a10.4,10.4,0,0,1-.072,1.4h1.368a9.88,9.88,0,0,1-.06-1.356v-4.7a7.425,7.425,0,0,0,.552-.78l.12-.192.084.516c.336-.06.468-.072,1.188-.144.516-.036,1.536-.156,1.956-.216.06.168.084.228.144.42l.648-.348a5.058,5.058,0,0,1-.4.588h-2.58c-.42,0-.636-.012-.876-.024.024.264.036.516.036,1.008v3.96a7.981,7.981,0,0,1-.06,1.188h1.26a6.684,6.684,0,0,1-.06-1.056V12.8H-5.82v.684c0,.192-.06.24-.288.24a5.667,5.667,0,0,1-.768-.06A3.071,3.071,0,0,1-6.66,14.72c.4.012.444.012.516.012.876,0,1.152-.108,1.356-.516a6.689,6.689,0,0,1,.432.8,8.046,8.046,0,0,0,1.764-2.028A10.01,10.01,0,0,0-.84,14.96a4.929,4.929,0,0,1,.7-1.356A6.3,6.3,0,0,1-1.92,11.732a11.846,11.846,0,0,0,.936-4.8c.168,0,.42.024.636.048V5.708a5.415,5.415,0,0,1-.984.06H-2.544c.048-.168.072-.264.108-.408.24-1.044.24-1.044.288-1.212l-1.284-.276a4.98,4.98,0,0,1-.1.936A10.1,10.1,0,0,1-4.416,7.8,8.128,8.128,0,0,0-5.2,6.272l-.912.348a4.736,4.736,0,0,1,.312.588c-.336.036-.492.048-1.116.1a11.447,11.447,0,0,0,.444-1.2h1.344c.336,0,.4,0,.936.024V4.94A5.114,5.114,0,0,1-5.16,5h-.756V4.688a2.725,2.725,0,0,1,.072-.768H-7.188a3.44,3.44,0,0,1,.06.756V5h-.744a4.932,4.932,0,0,1-.8-.036c.168-.2.264-.324.3-.372L-9.432,3.8a6.066,6.066,0,0,1-2.292,2.388,4.557,4.557,0,0,1,.576,1.188,8.374,8.374,0,0,0,1.56-1.32,6.418,6.418,0,0,0,.744-.864v.96A7.367,7.367,0,0,1-7.872,6.1h.24a7.384,7.384,0,0,1-.42,1.26c-.108,0-.144.012-.276.012Zm7.332.216a11.832,11.832,0,0,1-.54,3.516,7.4,7.4,0,0,1-.612-2.616c.192-.492.264-.636.348-.9ZM-4.7,9.692V9.26a4.991,4.991,0,0,1,.336.612c.156-.216.2-.288.324-.468a9.621,9.621,0,0,0,.792,2.436A6.416,6.416,0,0,1-4.7,13.58Zm-2.6,2.148v-.576H-5.82v.576Zm0-1.536V9.752H-5.82V10.3ZM9.852,6.188a18.991,18.991,0,0,1-6.348.72c.024.264.036.54.036,1.1v3.864a6.386,6.386,0,0,1-.828.084H2.628l.264,1.26c.168-.048.4-.1.564-.132,2.364-.444,2.364-.444,3.684-.78V11.18c-.972.24-1.284.312-2.34.492V10.136L7.08,10.1a6.624,6.624,0,0,0,1.5,3.264,7.271,7.271,0,0,1-1.152.06H3.756a6.1,6.1,0,0,1-.912-.048v1.26a5.766,5.766,0,0,1,1.116-.072H7.428a6.73,6.73,0,0,1,1.152.072V13.364a2.728,2.728,0,0,0,1.68,1.008c.708,0,1.1-.636,1.38-2.232a3.446,3.446,0,0,1-1.044-.648c-.084,1.08-.2,1.476-.42,1.476-.192,0-.576-.3-.888-.708a5.476,5.476,0,0,1-.948-2.172l1.8-.036h.288a6.128,6.128,0,0,1,.888.036l-.024-1.224a8.793,8.793,0,0,1-1.152.084l-1.968.024C8.112,8.42,8.1,8.3,8.076,7.7c.9-.12,1.248-.18,2.652-.432ZM4.8,9.02V7.952c.78-.036.78-.036,2.028-.12.036.468.072.864.1,1.152Zm.9-4.14H2.736c-.528,0-.96-.024-1.38-.06.036.528.048.816.048,1.572a33.948,33.948,0,0,1-.276,5.22,5.883,5.883,0,0,1-.84,2.244,5.074,5.074,0,0,1,1.044,1c1.092-1.824,1.356-3.516,1.368-8.82h7.5a11.277,11.277,0,0,1,1.248.048V4.808A11.22,11.22,0,0,1,10,4.88H7.032V4.5a2.654,2.654,0,0,1,.06-.7H5.64a3.715,3.715,0,0,1,.06.684Z" transform="translate(1711 760)" fill="#195eae"/>
    </g>
    <g id="カーテン_窓の無料アイコン素材" data-name="カーテン・窓の無料アイコン素材" transform="translate(2097.597 1014.928)">
      <path id="パス_4173" data-name="パス 4173" d="M153.723,6.724h11.325c.028-.934.082-1.61.107-1.884,0-.007,0-.017,0-.023h0s0-.007,0-.009h-11.55C153.632,5.062,153.69,5.756,153.723,6.724Z" transform="translate(-144.966)" fill="#195eae"/>
      <path id="パス_4174" data-name="パス 4174" d="M5.042,342.008c-.057,0-.115.009-.177.009H1.535v9.246H6.45s-.043-.757-.149-1.878A39.705,39.705,0,0,0,5.042,342.008Z" transform="translate(-1.449 -318.23)" fill="#195eae"/>
      <path id="パス_4175" data-name="パス 4175" d="M8.63,12.17A37.865,37.865,0,0,0,8.764,7.38C8.726,6.24,8.654,5.5,8.654,5.5H1.535v14.87h3.33a1.682,1.682,0,0,1,.661.134,34.48,34.48,0,0,0,2.007-3.617,13.385,13.385,0,0,0,.905-3.282C8.52,13.133,8.582,12.65,8.63,12.17Z" transform="translate(-1.449 -0.656)" fill="#195eae"/>
      <path id="パス_4176" data-name="パス 4176" d="M426.6,342.017h-1.432a.736.736,0,0,1-.144-.009,39.689,39.689,0,0,0-1.26,7.377c-.1,1.059-.143,1.785-.148,1.862,0,0,0,.006,0,.006h0s0,.009,0,.009h4.915v-9.246H426.6Z" transform="translate(-399.781 -318.23)" fill="#195eae"/>
      <path id="パス_4177" data-name="パス 4177" d="M385.99,20.372h3.363V5.5h-7.119s-.072.738-.11,1.878a37.827,37.827,0,0,0,.134,4.791c.048.479.11.963.192,1.437a13.382,13.382,0,0,0,.905,3.282,33.5,33.5,0,0,0,2,3.607A1.636,1.636,0,0,1,385.99,20.372Z" transform="translate(-360.604 -0.656)" fill="#195eae"/>
      <path id="パス_4178" data-name="パス 4178" d="M121.035,143.67v-18.2h5.188q-.108-.719-.173-1.437h-11.6c-.04.442-.094.891-.163,1.338-.005.029-.009.062-.014.091h0s0,.006,0,.009H119.6v18.2h-7.454c.062.738.105,1.36.129,1.792l0,.125h15.948l0-.125c.028-.419.065-1.021.125-1.732,0-.017,0-.033,0-.051h0v-.009h-7.325Z" transform="translate(-105.835 -112.514)" fill="#195eae"/>
      <path id="パス_4179" data-name="パス 4179" d="M.086,296.544H3.416a.3.3,0,0,0,.273-.177.289.289,0,0,0,.024-.115v-.608a.3.3,0,0,0-.3-.3H0v1.188H0v.009Z" transform="translate(0 -274.194)" fill="#195eae"/>
      <path id="パス_4180" data-name="パス 4180" d="M449.664,295.348H446.3a.3.3,0,0,0-.292.3v.608a.263.263,0,0,0,.038.139.287.287,0,0,0,.254.153h1.432l1.916,0h.072v-1.2Z" transform="translate(-420.916 -274.195)" fill="#195eae"/>
    </g>
  </g>
</svg>
