<svg xmlns="http://www.w3.org/2000/svg" width="80" height="80" viewBox="0 0 80 80">
  <g id="グループ_9075" data-name="グループ 9075" transform="translate(-2164 -1016)">
    <g id="グループ_9071" data-name="グループ 9071" transform="translate(493 312)">
      <circle id="楕円形_18" data-name="楕円形 18" cx="40" cy="40" r="40" transform="translate(1671 704)" fill="#fff"/>
      <path id="パス_6484" data-name="パス 6484" d="M-10.956-6.228v.744H-12.42a7.494,7.494,0,0,1-1.032-.036c.024.3.036.492.036.828v1.716c0,.276-.012.456-.036.768a9.829,9.829,0,0,1,1.1-.048h.936a3.61,3.61,0,0,1-2.9,2.016A3.529,3.529,0,0,1-13.56.972,4.936,4.936,0,0,0-10.344-1.68,4.9,4.9,0,0,0-9.336-.42a7,7,0,0,0,2.4,1.4A3.745,3.745,0,0,1-6.276-.3a5.163,5.163,0,0,1-3.2-1.956h1.236a10.013,10.013,0,0,1,1.128.048c-.024-.336-.036-.5-.036-.912V-4.6c0-.312.012-.564.036-.924-.312.024-.564.036-1.056.036H-9.756v-.744h.636c.48,0,.7.012.972.036v-.636a10.709,10.709,0,0,0,1.332.78,4.674,4.674,0,0,1,.624-1.188A8.184,8.184,0,0,1-8.3-8.472,5.225,5.225,0,0,1-9.72-10.02h-1.332a6.452,6.452,0,0,1-1.4,1.752A9.272,9.272,0,0,1-13.74-7.3V-7.98a3.321,3.321,0,0,1-.648.048h-.36V-8.88a8.584,8.584,0,0,1,.06-1.248h-1.356a7.82,7.82,0,0,1,.072,1.26v.936h-.6a4.692,4.692,0,0,1-.8-.048v1.308a4.782,4.782,0,0,1,.8-.048h.48a11.705,11.705,0,0,1-1.584,3.708,4.37,4.37,0,0,1,.684,1.284c.288-.6.456-.96.5-1.092A14.059,14.059,0,0,0-15.9-4.512c-.048.576-.072,1.176-.072,1.572V-.456a12.177,12.177,0,0,1-.072,1.476h1.368a11.905,11.905,0,0,1-.072-1.476V-3.564c0-.708-.024-1.236-.06-1.6a9.313,9.313,0,0,0,.816,1.62,5.017,5.017,0,0,1,.552-1.14,7.064,7.064,0,0,1-1.236-2.04h.312c.144,0,.228,0,.42.012a5.34,5.34,0,0,1,.4.744,8.647,8.647,0,0,0,1.14-.768v.54c.324-.024.492-.036.972-.036Zm-.024,1.764a7.581,7.581,0,0,1-.1,1.176h-1.152V-4.464Zm2.628,0v1.176H-9.888A8.989,8.989,0,0,0-9.78-4.464Zm-3.084-2.868H-11.7a7.9,7.9,0,0,0,1.356-1.632A6.781,6.781,0,0,0-8.832-7.332h-2.6ZM-5.148-9.12A11.816,11.816,0,0,1-3.1-7.464L-2.28-8.5A14.2,14.2,0,0,0-4.356-10.08Zm-.444,3A11.652,11.652,0,0,1-3.468-4.512L-2.712-5.6A17.3,17.3,0,0,0-4.884-7.128ZM-3.8-3.768A11.583,11.583,0,0,1-4.932-1.02a4.962,4.962,0,0,1-.636.9l1.164,1c.084-.156.12-.24.24-.456A16.924,16.924,0,0,0-2.712-3.072ZM3.312-5.1c.492,0,.768.012,1.092.036a10.308,10.308,0,0,1-.048-1.092v-2.52A9.6,9.6,0,0,1,4.4-9.768,10.139,10.139,0,0,1,3.18-9.72H-.708a10.268,10.268,0,0,1-1.224-.048c.024.348.036.612.036,1.056V-6.18c0,.468-.012.768-.036,1.116.384-.024.684-.036,1.116-.036ZM-.66-8.6H3.108v.732H-.66Zm0,1.74H3.108v.732H-.66ZM4.836-.7V-3.552a6.7,6.7,0,0,1,.048-.84,10.433,10.433,0,0,1-1.092.036h-5.1a9.8,9.8,0,0,1-1.044-.036c.024.324.036.516.036.864V-.7H-2.58a3.882,3.882,0,0,1-.66-.048V.576A11.081,11.081,0,0,1-1.92.5H4.356L5.292.54a2.689,2.689,0,0,1,.372.036V-.756a2.706,2.706,0,0,1-.648.06ZM-1.176-3.264h.888V-.7h-.888Zm1.956,0h.9V-.7H.78Zm1.968,0H3.66V-.7H2.748ZM12.936-7.692a2.623,2.623,0,0,1,1.212.36,2.973,2.973,0,0,1,1.476,2.664,3.36,3.36,0,0,1-1.668,3,6.377,6.377,0,0,1-2.388.66A3.828,3.828,0,0,1,12.3.4a7.845,7.845,0,0,0,1.884-.5A4.623,4.623,0,0,0,17.1-4.584c0-2.7-1.872-4.452-4.752-4.452A5.387,5.387,0,0,0,8.22-7.356,5.155,5.155,0,0,0,6.9-3.864C6.9-1.932,7.884-.54,9.252-.54c.984,0,1.752-.708,2.436-2.256A17.36,17.36,0,0,0,12.936-7.692Zm-1.464.012a15.815,15.815,0,0,1-1,4.056c-.432,1.032-.84,1.536-1.236,1.536-.528,0-.948-.78-.948-1.764a4.018,4.018,0,0,1,1.632-3.24A3.055,3.055,0,0,1,11.472-7.68Zm-20.88,14.4A7.37,7.37,0,0,1-11.82,9.608a7.377,7.377,0,0,1,.5,1.32,5.325,5.325,0,0,0,.78-.78c-.024.684-.024.792-.024,1.224V13.58a10.4,10.4,0,0,1-.072,1.4h1.368a9.88,9.88,0,0,1-.06-1.356v-4.7a7.425,7.425,0,0,0,.552-.78l.12-.192.084.516c.336-.06.468-.072,1.188-.144.516-.036,1.536-.156,1.956-.216.06.168.084.228.144.42l.648-.348a5.058,5.058,0,0,1-.4.588h-2.58c-.42,0-.636-.012-.876-.024.024.264.036.516.036,1.008v3.96a7.981,7.981,0,0,1-.06,1.188h1.26a6.684,6.684,0,0,1-.06-1.056V12.8H-5.82v.684c0,.192-.06.24-.288.24a5.667,5.667,0,0,1-.768-.06A3.071,3.071,0,0,1-6.66,14.72c.4.012.444.012.516.012.876,0,1.152-.108,1.356-.516a6.689,6.689,0,0,1,.432.8,8.046,8.046,0,0,0,1.764-2.028A10.01,10.01,0,0,0-.84,14.96a4.929,4.929,0,0,1,.7-1.356A6.3,6.3,0,0,1-1.92,11.732a11.846,11.846,0,0,0,.936-4.8c.168,0,.42.024.636.048V5.708a5.415,5.415,0,0,1-.984.06H-2.544c.048-.168.072-.264.108-.408.24-1.044.24-1.044.288-1.212l-1.284-.276a4.98,4.98,0,0,1-.1.936A10.1,10.1,0,0,1-4.416,7.8,8.128,8.128,0,0,0-5.2,6.272l-.912.348a4.736,4.736,0,0,1,.312.588c-.336.036-.492.048-1.116.1a11.447,11.447,0,0,0,.444-1.2h1.344c.336,0,.4,0,.936.024V4.94A5.114,5.114,0,0,1-5.16,5h-.756V4.688a2.725,2.725,0,0,1,.072-.768H-7.188a3.44,3.44,0,0,1,.06.756V5h-.744a4.932,4.932,0,0,1-.8-.036c.168-.2.264-.324.3-.372L-9.432,3.8a6.066,6.066,0,0,1-2.292,2.388,4.557,4.557,0,0,1,.576,1.188,8.374,8.374,0,0,0,1.56-1.32,6.418,6.418,0,0,0,.744-.864v.96A7.367,7.367,0,0,1-7.872,6.1h.24a7.384,7.384,0,0,1-.42,1.26c-.108,0-.144.012-.276.012Zm7.332.216a11.832,11.832,0,0,1-.54,3.516,7.4,7.4,0,0,1-.612-2.616c.192-.492.264-.636.348-.9ZM-4.7,9.692V9.26a4.991,4.991,0,0,1,.336.612c.156-.216.2-.288.324-.468a9.621,9.621,0,0,0,.792,2.436A6.416,6.416,0,0,1-4.7,13.58Zm-2.6,2.148v-.576H-5.82v.576Zm0-1.536V9.752H-5.82V10.3ZM9.852,6.188a18.991,18.991,0,0,1-6.348.72c.024.264.036.54.036,1.1v3.864a6.386,6.386,0,0,1-.828.084H2.628l.264,1.26c.168-.048.4-.1.564-.132,2.364-.444,2.364-.444,3.684-.78V11.18c-.972.24-1.284.312-2.34.492V10.136L7.08,10.1a6.624,6.624,0,0,0,1.5,3.264,7.271,7.271,0,0,1-1.152.06H3.756a6.1,6.1,0,0,1-.912-.048v1.26a5.766,5.766,0,0,1,1.116-.072H7.428a6.73,6.73,0,0,1,1.152.072V13.364a2.728,2.728,0,0,0,1.68,1.008c.708,0,1.1-.636,1.38-2.232a3.446,3.446,0,0,1-1.044-.648c-.084,1.08-.2,1.476-.42,1.476-.192,0-.576-.3-.888-.708a5.476,5.476,0,0,1-.948-2.172l1.8-.036h.288a6.128,6.128,0,0,1,.888.036l-.024-1.224a8.793,8.793,0,0,1-1.152.084l-1.968.024C8.112,8.42,8.1,8.3,8.076,7.7c.9-.12,1.248-.18,2.652-.432ZM4.8,9.02V7.952c.78-.036.78-.036,2.028-.12.036.468.072.864.1,1.152Zm.9-4.14H2.736c-.528,0-.96-.024-1.38-.06.036.528.048.816.048,1.572a33.948,33.948,0,0,1-.276,5.22,5.883,5.883,0,0,1-.84,2.244,5.074,5.074,0,0,1,1.044,1c1.092-1.824,1.356-3.516,1.368-8.82h7.5a11.277,11.277,0,0,1,1.248.048V4.808A11.22,11.22,0,0,1,10,4.88H7.032V4.5a2.654,2.654,0,0,1,.06-.7H5.64a3.715,3.715,0,0,1,.06.684Z" transform="translate(1711 760)" fill="#195eae"/>
    </g>
    <g id="体温計のアイコン素材_6" data-name="体温計のアイコン素材 6" transform="translate(2189 1025.721)">
      <path id="パス_4169" data-name="パス 4169" d="M248.176,336.733l-.187.129h0Z" transform="translate(-233.481 -316.686)" fill="#195eae"/>
      <path id="パス_4170" data-name="パス 4170" d="M2.334,478.481l.07-.069,0,0Z" transform="translate(-2.198 -450.074)" fill="#195eae"/>
      <path id="パス_4171" data-name="パス 4171" d="M29.419,3.456l-.008-.008-.064-.068-.007-.008L26.953.985a2.107,2.107,0,0,0-2.979,0h0L21.556,3.4,15.11,9.849a42.49,42.49,0,0,0-4.963,5.964L4.355,24.231.206,28.338a.71.71,0,0,0,0,1l.365.365h0l.365.365h0a.711.711,0,0,0,1,0l0,0,4.147-4.1,7.21-4.96h0l1.208-.831a42.517,42.517,0,0,0,5.965-4.963l7.695-7.695,1.169-1.169a2.107,2.107,0,0,0,.082-2.892Zm-16.634,16.8h0l-7.28,5.008-1.2,1.2-.276-.277-.174-.174,1.2-1.2,5.839-8.488a41.577,41.577,0,0,1,4.858-5.837L22.2,4.045l.747.747L24.153,3.8,26.52,6.169l-.989,1.209.746.746L19.831,14.57a41.577,41.577,0,0,1-5.837,4.857h0Zm-11.8,8.58L3.2,26.632l.451.451L1.44,29.289l-.225-.226h0Z" transform="translate(0)" fill="#195eae"/>
      <path id="パス_4172" data-name="パス 4172" d="M276.453,119.609a.419.419,0,0,0,.586,0l5.092-5.092a.416.416,0,0,0,0-.59l-1.507-1.507a.419.419,0,0,0-.585,0l-5.092,5.092a.416.416,0,0,0,0,.59Zm1-1.3-.617.617c-.091.086-.209.113-.263.059l-1.039-1.039c-.059-.059-.032-.177.059-.263l1.8-1.8Z" transform="translate(-258.746 -105.385)" fill="#195eae"/>
    </g>
  </g>
</svg>
