<svg xmlns="http://www.w3.org/2000/svg" width="260.163" height="106.703" viewBox="0 0 260.163 106.703">
  <g id="グループ_9652" data-name="グループ 9652" transform="translate(-492.041 -656.5)">
    <path id="パス_4207" data-name="パス 4207" d="M21.919,0H255.163L232.336,99.7H0Z" transform="translate(497.041 663.5)"/>
    <path id="パス_4205" data-name="パス 4205" d="M21.919,0H255.163L232.336,99.7H0Z" transform="translate(492.041 656.5)" fill="#fcfcfc"/>
    <g id="グループ_9142" data-name="グループ 9142" transform="translate(396.324 91.5)">
      <path id="パス_6495" data-name="パス 6495" d="M-25.706-62.288q-2.171,3.117-3.841,9.908H-44.965q2.561-10.3,7.236-16.644Q-28.823-81.1-12.625-81.1q12.8,0,18.87,7.1T9.808-55.219A31.91,31.91,0,0,1,1.124-39.3Q-3.384-34.679-12.625-29l-7.292,4.509q-6.847,4.23-9.463,6.123a23.606,23.606,0,0,0-4.62,4.4H1.236L-1.714,0H-56.989A46.027,46.027,0,0,1-49.92-15.864Q-44.8-23.936-30.27-32.953-17.634-40.8-13.682-44.2q6.067-5.288,7.4-11.578,1.113-5.121-1-8.517t-7.4-3.4Q-21.921-67.687-25.706-62.288ZM51.311-17.367,47.637,0H32.107l3.674-17.367H3.83l2.95-13.86L46.858-80.212H64.671L53.927-29.78h9.129L60.44-17.367ZM18.191-29.78H38.4l7.4-34.846Z" transform="translate(168 655)" fill="#d11838"/>
      <g id="グループ_9139" data-name="グループ 9139" transform="translate(234.685 601.152)">
        <path id="パス_6496" data-name="パス 6496" d="M-39.375-5.25h-.8a19.383,19.383,0,0,1-2.394-.126v2.793a19.624,19.624,0,0,1,2.394-.126h6.825V-.546a17.432,17.432,0,0,1-.126,2.436h3.045A14.407,14.407,0,0,1-30.555-.5v-2.2h4.62a19.258,19.258,0,0,1,2.373.126V-5.376a18.327,18.327,0,0,1-2.373.126h-4.62V-8.358h3.234a21.774,21.774,0,0,1,2.184.084v-2.6a22.175,22.175,0,0,1-2.289.084h-3.129v-2.394h4.011a16.475,16.475,0,0,1,2.247.126v-2.73a13.365,13.365,0,0,1-2.247.126h-9.534c.147-.336.231-.5.378-.84.294-.63.315-.672.462-.966l-2.982-.546a8.185,8.185,0,0,1-.525,1.512A12.884,12.884,0,0,1-42.8-11.445a12.167,12.167,0,0,1,1.827,2.331,18.07,18.07,0,0,0,1.554-1.554c.021.315.042.63.042,1.029Zm2.688,0V-8.358h3.339V-5.25Zm3.339-7.938v2.394h-4.62c-.525,0-.882-.021-1.3-.042a22.473,22.473,0,0,0,1.785-2.352Zm20.79-1.176h-5.376a18.582,18.582,0,0,1-2.016-.084,17.043,17.043,0,0,1,.084,1.911v6.678a16.116,16.116,0,0,1-.1,2.184h2.9V-4.851h4.515v3.99a19.2,19.2,0,0,1-.147,2.709h3.171A17.51,17.51,0,0,1-9.681-.861v-3.99h4.725v1.176h2.9a14.673,14.673,0,0,1-.1-2.184v-6.657a16.045,16.045,0,0,1,.084-1.932,17.268,17.268,0,0,1-2.058.084H-9.681V-15.54a15.121,15.121,0,0,1,.126-2.226h-3.129a13.869,13.869,0,0,1,.126,2.331Zm0,2.625v4.263h-4.515v-4.263Zm2.877,4.263v-4.263h4.725v4.263ZM4.536-11.214H3.591a13.322,13.322,0,0,1-2.058-.1V-8.61a13.658,13.658,0,0,1,2.058-.105H4.41v2.436H3.969a13.157,13.157,0,0,1-2.058-.105v2.667a10.98,10.98,0,0,1,1.806-.105H17.829l-2.1,1.008A22.591,22.591,0,0,1,18.27,1.68L20.664.189a25.716,25.716,0,0,0-2.688-4.011h.336a12.329,12.329,0,0,1,1.953.105V-6.384a11.8,11.8,0,0,1-1.995.105h-.294V-8.715h.693a13.489,13.489,0,0,1,2.058.105v-2.709a13.322,13.322,0,0,1-2.058.1h-.693v-2.394a16.394,16.394,0,0,1,1.974.126v-2.709a21.109,21.109,0,0,1-2.688.126H7.245c.294-.441.462-.714.693-1.071a4.448,4.448,0,0,1,.357-.567l-2.877-.462a6.787,6.787,0,0,1-.462.987,11.963,11.963,0,0,1-3.8,3.759A11.232,11.232,0,0,1,2.877-11.55a13.683,13.683,0,0,0,1.659-1.365Zm2.331-2.394H8.232v2.394H6.867Zm3.654,0h1.323v2.394H10.521ZM6.867-8.715H8.232v2.436H6.867Zm3.654,0h1.323v2.436H10.521Zm3.612,2.436V-8.715h1.386v2.436Zm0-4.935v-2.394h1.386v2.394Zm1.05,12.327A29.611,29.611,0,0,0,13.944-3.36l-2.457.546A26.388,26.388,0,0,1,12.432,1.7Zm-4.935.441a35.518,35.518,0,0,0-.525-4.746l-2.457.273A34.33,34.33,0,0,1,7.518.9c0,.189,0,.483-.021.861Zm-6.657.273A13.94,13.94,0,0,0,6.3-2.667L3.99-3.8A9.874,9.874,0,0,1,1.407.126Zm24.36-5.145A8.36,8.36,0,0,1,29.442-.84,18.522,18.522,0,0,0,33.936-7.5c-.021.651-.042,1.491-.042,2.121V-.63a22.769,22.769,0,0,1-.126,2.436h2.94a20.01,20.01,0,0,1-.126-2.457V-5.775c0-.882-.021-1.407-.042-1.995A18.36,18.36,0,0,0,39-3.444a19.834,19.834,0,0,0,2.5,2.73,13.384,13.384,0,0,1,1.743-2.73,15.892,15.892,0,0,1-3.717-3.927A20.473,20.473,0,0,1,37.4-11.214h2.94a20.887,20.887,0,0,1,2.394.126v-2.877a21.9,21.9,0,0,1-2.478.126H36.6v-1.827a15.506,15.506,0,0,1,.126-2.016H33.81c.063.693.1,1.344.1,2.016v1.827H31.143c-.84,0-1.68-.042-2.352-.1v2.835c.756-.063,1.659-.105,2.352-.105h1.974a23.03,23.03,0,0,1-2.31,4.431,15.794,15.794,0,0,1-2.856,3.129v-8.61a37.96,37.96,0,0,0,1.6-3.927c.147-.42.147-.42.357-1.008l-2.793-.819a16.891,16.891,0,0,1-1.176,3.675A15.793,15.793,0,0,1,22.848-9.66a16.068,16.068,0,0,1,.987,3.213,18.9,18.9,0,0,0,1.512-1.974c0,.231-.021.294-.021.441-.021.252-.042.525-.042.8,0,.294,0,.294-.021,1.092V-.672a17.805,17.805,0,0,1-.126,2.436h2.94a21.811,21.811,0,0,1-.126-2.415Z" transform="translate(46.315 23)" fill="#191919"/>
        <path id="パス_6497" data-name="パス 6497" d="M-32.424-5.208l-2.121,1.344a14.69,14.69,0,0,1,2.6,3.444l2.184-1.7a15.193,15.193,0,0,0-2.625-3.087h4.242v3.927c0,.441-.168.546-.777.546A15.946,15.946,0,0,1-31.29-.9a6.68,6.68,0,0,1,.609,2.583c.735.021,1.281.042,1.47.042a5.558,5.558,0,0,0,2.856-.483c.588-.336.8-.861.8-1.995V-5.208a14.7,14.7,0,0,1,2.163.1V-7.77a12.728,12.728,0,0,1-2.163.105v-1.47h.189a13.489,13.489,0,0,1,2.058.105v-2.6a21.1,21.1,0,0,1-2.352.105h-2.52v-1.659h2.016a20.408,20.408,0,0,1,2.2.084v-2.6a16.475,16.475,0,0,1-2.247.126h-1.974v-.5a6.355,6.355,0,0,1,.147-1.512h-2.877a11.225,11.225,0,0,1,.1,1.533v.483h-1.6a16.262,16.262,0,0,1-2.247-.126v2.6c.273-.021,1.05-.042,2.352-.084h1.491v1.659h-1.869a21.694,21.694,0,0,1-2.394-.105v2.6c.651-.063,1.491-.105,2.352-.105h4.578v1.47h-4.578A15.687,15.687,0,0,1-35.07-7.77V-5.1c.714-.063,1.554-.1,2.289-.1Zm-9.639,3.15A20.662,20.662,0,0,1-42.189.567h2.6V-1.218h1.533v1.05h2.52c-.042-.567-.042-.987-.042-2.142V-14.616c0-1.155,0-1.575.042-2.058-.483.042-.861.063-1.785.063h-3.024a13.03,13.03,0,0,1-1.806-.084,21.774,21.774,0,0,1,.084,2.184Zm2.5-12.18h1.533v4.011h-1.533Zm0,6.363h1.533v4.221h-1.533Zm32.886.9c0-.8.021-1.323.063-1.827-.651.042-1.029.063-1.89.063h-5.082c-.84,0-1.26-.021-1.89-.063.042.525.063,1.092.063,1.827v5.355c0,.819-.021,1.575-.084,2.184h2.52V-.483h4.431c.378,0,.567,0,.966.021a9.5,9.5,0,0,1,.441,2c1.134.042,1.2.042,1.512.042a6.808,6.808,0,0,0,2.541-.294C-2.331.945-2.058.315-2.058-1.092V-14.8c0-1.05.021-1.6.084-2.352a18.894,18.894,0,0,1-2.142.084H-8.4a18.838,18.838,0,0,1-2.163-.084c.042.672.063,1.2.063,1.932V-11.7c0,1.029,0,1.239-.042,1.869.483-.021,1.176-.042,1.827-.042h4.032v8.379c0,.441-.147.525-.882.525-.273,0-.546-.021-1.092-.063-.021-.42-.021-.735-.021-1.2ZM-8-15.141h3.318v.861H-8Zm0,2.562h3.318v.861H-8Zm-4.977,5.922h3.885v1.071h-3.885Zm0,3.045h3.885v1.05h-3.885ZM-17.325-9.87h3.738c.651,0,1.344.021,1.827.042-.042-.483-.042-.84-.042-1.869v-3.528c0-.84.021-1.323.063-1.932a17.3,17.3,0,0,1-2.142.084h-4.032a19.132,19.132,0,0,1-2.142-.084,23.214,23.214,0,0,1,.084,2.373V-.966A20.156,20.156,0,0,1-20.1,1.743h2.9a19.79,19.79,0,0,1-.126-2.688Zm0-5.271h3.066v.861h-3.066Zm0,2.562h3.066v.861h-3.066ZM5.229-14.7H3.507a16.114,16.114,0,0,1-2.142-.126v2.688a14.686,14.686,0,0,1,2-.1H6.993A16.651,16.651,0,0,1,6.3-8.253c-.861-.966-.861-.966-2.793-2.919L1.722-9.282A38.038,38.038,0,0,1,5.187-5.565,13.5,13.5,0,0,1,1.113-.735,8.474,8.474,0,0,1,2.961,1.659,22.723,22.723,0,0,0,6.972-3.3,33.149,33.149,0,0,1,9.282.084l1.911-2.268C10-3.843,9.345-4.662,8.274-5.964A22.2,22.2,0,0,0,9.66-12.243a13.632,13.632,0,0,1,1.491.063V-14.8a14.533,14.533,0,0,1-2.058.1H7.875v-1.071a12.072,12.072,0,0,1,.105-1.911H5.1a12.084,12.084,0,0,1,.126,1.911Zm10.857,3.549v9.723c0,.42-.168.483-1.176.483a21.96,21.96,0,0,1-2.6-.231,9.729,9.729,0,0,1,.777,2.73c.588.021.861.021,1.218.021.378,0,.819-.021,1.554-.042A4.508,4.508,0,0,0,17.85,1.2c.714-.42.945-.945.945-2.352v-10h.147a11.248,11.248,0,0,1,1.407.063,2.332,2.332,0,0,0,.483.042v-2.772a11.37,11.37,0,0,1-1.911.126h-.126v-1.323a20.908,20.908,0,0,1,.1-2.583H15.939a15.376,15.376,0,0,1,.147,2.583v1.323h-2.52a12.591,12.591,0,0,1-1.995-.1v2.751a12.46,12.46,0,0,1,1.974-.1ZM10.353-8.862A19.774,19.774,0,0,1,13.23-3.654l2.289-1.47a28.756,28.756,0,0,0-2.9-4.935ZM33.18-13.293l-1.638,1.428a19.243,19.243,0,0,1,5.271,3.759l1.911-2.037a30.515,30.515,0,0,0-4.746-3.15h6.111a22.021,22.021,0,0,1,2.562.1V-15.96a19.776,19.776,0,0,1-2.562.126H34.9v-.8a5.512,5.512,0,0,1,.084-1.155H32a5.9,5.9,0,0,1,.1,1.113v.84h-5.25c-.966,0-1.512-.021-2.247-.084.063.735.084,1.575.084,2.94A67.829,67.829,0,0,1,24.255-4.6a13.274,13.274,0,0,1-1.3,4.116,11.035,11.035,0,0,1,2.226,2.205,18.514,18.514,0,0,0,1.6-5.1,51.886,51.886,0,0,0,.588-9.912ZM29.421.462a26.955,26.955,0,0,0,1.617-8.61l-2.52-.63A31.938,31.938,0,0,1,28.14-4.83,13.514,13.514,0,0,1,27.006-.987ZM31.752-9.849a11.636,11.636,0,0,1,.126,1.995V-.042a1.286,1.286,0,0,0,.84,1.386,8.687,8.687,0,0,0,2.793.273c1.869,0,2.709-.252,3.171-.924.441-.63.609-1.68.777-4.536a9.449,9.449,0,0,1-2.5-.84,16.942,16.942,0,0,1-.168,3.15c-.126.4-.378.5-1.26.5-.861,0-1.008-.084-1.008-.567V-7.833a12.563,12.563,0,0,1,.1-2.016Zm11.3,8.715A38.455,38.455,0,0,0,40.362-8.9L38.01-7.77a25.327,25.327,0,0,1,2.415,7.9Z" transform="translate(46.315 50.627)" fill="#191919"/>
      </g>
    </g>
  </g>
</svg>
