<svg xmlns="http://www.w3.org/2000/svg" width="205.574" height="106.703" viewBox="0 0 205.574 106.703">
  <g id="グループ_9652" data-name="グループ 9652" transform="translate(-291.467 -656.5)">
    <path id="パス_4206" data-name="パス 4206" d="M21.919,0H200.574L177.747,99.7H0Z" transform="translate(296.467 663.5)" fill="#191919"/>
    <path id="パス_4204" data-name="パス 4204" d="M21.919,0H200.574L177.747,99.7H0Z" transform="translate(291.467 656.5)" fill="#fcfcfc"/>
    <g id="グループ_9141" data-name="グループ 9141" transform="translate(159.111 91.5)">
      <path id="パス_6492" data-name="パス 6492" d="M-1.642-48.539a42.69,42.69,0,0,1,6.4-3.173,26.746,26.746,0,0,1,8.684-1.28q10.02,0,16.031,6.735t3.284,19.594A38.485,38.485,0,0,1,21.347-6.68Q12.274,2.115-2.032,2.115q-11.522,0-17.59-6.179T-24.13-21.6H-8.322q-.167,5.177,1.92,7.988T.807-10.8a13.052,13.052,0,0,0,9.853-4.147,21.12,21.12,0,0,0,5.288-10.437q1.336-6.179-.64-10.437t-8.1-4.258a17.107,17.107,0,0,0-5.177.724A13.479,13.479,0,0,0-4.648-34.4l-14.139-.668,15.2-44.587H40.885L37.991-66.185H4.982Z" transform="translate(176 655)" fill="#d11838"/>
      <g id="グループ_9139" data-name="グループ 9139" transform="translate(215.116 601.152)">
        <path id="パス_6493" data-name="パス 6493" d="M-29.232-3.255a12.277,12.277,0,0,1,1.638.084V-5.4a10.635,10.635,0,0,1-1.617.084h-2.856c.021-.357.042-.5.063-.987H-29.3a11.655,11.655,0,0,1,1.365.063V-8.379a8.251,8.251,0,0,1-1.386.084h-.525a13.359,13.359,0,0,0,.777-1.386L-31.5-10.1A11.212,11.212,0,0,1-32.34-8.3h-1.449a12.733,12.733,0,0,0-1.092-1.827l-2.31.5a12.531,12.531,0,0,1,.9,1.323h-.546a7.3,7.3,0,0,1-1.323-.084v2.142A12.058,12.058,0,0,1-36.771-6.3h2.289c0,.546-.021.672-.042.987h-2.394a10.678,10.678,0,0,1-1.6-.084V-3.15a15.418,15.418,0,0,1,1.785-.105h1.68A3.906,3.906,0,0,1-36.54-1.827,8.022,8.022,0,0,1-39-.9,8.111,8.111,0,0,1-37.632,1.26,7.426,7.426,0,0,0-33.1-1.911,9.6,9.6,0,0,0-29.19.714a7.617,7.617,0,0,1,.357-1.05A9.261,9.261,0,0,1-28.455,1.6c.8.021.8.021,1.029.021,2.856,0,3.381-.4,3.381-2.646V-14.868c0-1.071.021-1.6.084-2.373a17.969,17.969,0,0,1-2.142.084H-30.45a17.744,17.744,0,0,1-2.142-.084c.042.609.063,1.176.063,1.953v3.171c0,.966,0,1.344-.042,1.869.651-.021,1.155-.042,1.827-.042h4.053v8.883c0,.462-.1.525-.8.525A7.873,7.873,0,0,1-28.56-.966c.147-.315.21-.42.4-.756a6.871,6.871,0,0,1-3.318-1.533Zm-.8-12.1h3.339v.84H-30.03Zm0,2.478h3.339v.819H-30.03Zm-9.345,2.562h3.8c.651,0,1.344.021,1.827.042-.021-.4-.042-.84-.042-1.848v-3.171c0-.84.021-1.344.063-1.953a17.3,17.3,0,0,1-2.142.084h-4.1a18.2,18.2,0,0,1-2.142-.084,23.678,23.678,0,0,1,.084,2.394V-.966a20.156,20.156,0,0,1-.126,2.709h2.9A19.7,19.7,0,0,1-39.375-.9Zm0-5.04h3.129v.84h-3.129Zm0,2.478h3.129v.819h-3.129Zm26.964-.714v1.029h-4.137a19.251,19.251,0,0,1-2.289-.084,19.264,19.264,0,0,1,.084,2.1v4.074A9.524,9.524,0,0,1-18.774-5a3.275,3.275,0,0,0-.063.651,15.886,15.886,0,0,1,2.331-.105h2.016a14.988,14.988,0,0,1-6.594,3.339A11.79,11.79,0,0,1-19.7,1.428a16.445,16.445,0,0,0,7.35-4.746c-.042.861-.063,1.323-.063,1.407V-.693a18.637,18.637,0,0,1-.147,2.415h2.919A15.8,15.8,0,0,1-9.786-.693v-1.2c0-.5-.021-.756-.063-1.449A17.458,17.458,0,0,0-2.142,1.407,15.161,15.161,0,0,1-.756-1.26,13.963,13.963,0,0,1-7.623-4.452h2.2a16.454,16.454,0,0,1,2.31.105,17.044,17.044,0,0,1-.084-2.121v-4.1c.021-.987.042-1.68.084-2.058-.672.042-1.029.063-2.31.063H-9.786v-1.029h5.775c.987,0,1.89.042,2.6.1V-16.17a18.9,18.9,0,0,1-2.814.147H-9.786a10.782,10.782,0,0,1,.126-1.7h-2.9a11.38,11.38,0,0,1,.147,1.7h-5.4a19.982,19.982,0,0,1-2.772-.147v2.688c.777-.063,1.533-.1,2.562-.1Zm0,3.087v1.029h-3.7V-10.5Zm2.625,0h3.948v1.029H-9.786Zm-2.625,3.024v1.029h-3.7V-7.476Zm2.625,0h3.948v1.029H-9.786ZM3.381-1.848c-.8.063-1.344.084-1.743.084H1.323L1.869.819C2.646.672,2.646.672,4.41.42,5.754.231,7.14,0,8.736-.294a15.145,15.145,0,0,1-.105,2.142H11.34a15.181,15.181,0,0,1-.126-2.016A6.871,6.871,0,0,1,12.243,1.68a15.542,15.542,0,0,0,3.15-1.89,17.692,17.692,0,0,0,4.263,2.016,10.647,10.647,0,0,1,1.218-2.5,15.338,15.338,0,0,1-3.633-1.176A19.269,19.269,0,0,0,19.53-5.124a7.926,7.926,0,0,1,.42-.714L18.669-7.245a9.556,9.556,0,0,1-1.554.084H13.524a12.54,12.54,0,0,1-1.764-.084v2.31A11.881,11.881,0,0,1,13.4-5.019h.462l-1.974.84a14.2,14.2,0,0,0,1.638,2.31,13.986,13.986,0,0,1-2.31,1.113V-7.938H18.4a17.166,17.166,0,0,1,2.331.105v-2.289a15.761,15.761,0,0,1-2.289.1H3.7a15.761,15.761,0,0,1-2.289-.1v2.289a16.666,16.666,0,0,1,1.974-.105Zm2.5-6.09H8.736v.714H5.88Zm0,2.373H8.736v.8H5.88Zm0,2.457H8.736v.672c-1.722.252-1.722.252-2.856.378ZM16.737-5.019A10.427,10.427,0,0,1,15.33-3.276a7.177,7.177,0,0,1-1.239-1.743Zm1.848-10.332a14.859,14.859,0,0,1,.084-1.89,21.873,21.873,0,0,1-2.226.084H5.775a22.139,22.139,0,0,1-2.226-.084,15.072,15.072,0,0,1,.084,1.89V-12.5a14.915,14.915,0,0,1-.084,1.869c.63-.042,1.176-.063,2.121-.063H16.842c1.365.021,1.365.021,1.827.063a15.287,15.287,0,0,1-.084-1.89ZM6.237-15.414H15.96v.777H6.237Zm0,2.289H15.96v.777H6.237Zm34,5.334a18.449,18.449,0,0,1,2.373.105v-2.73a15.151,15.151,0,0,1-2.373.1H32.55c.378-.777.378-.8.441-.924.546-1.071.546-1.071.714-1.428l-2.982-.42a14.817,14.817,0,0,1-1.2,2.772H25.977a16.17,16.17,0,0,1-2.394-.1v2.73a22.552,22.552,0,0,1,2.394-.105h2.1a28.849,28.849,0,0,1-2.415,3.339,48.518,48.518,0,0,1,5.5,1.722A19.78,19.78,0,0,1,23.583-.777a8.881,8.881,0,0,1,1.3,2.646A29.594,29.594,0,0,0,30.408.4a14.66,14.66,0,0,0,3.7-1.911,40.485,40.485,0,0,1,6.174,3.36L42.336-.441A61.78,61.78,0,0,0,36.225-3.4a11.887,11.887,0,0,0,2.52-4.389Zm-4.41,0A8.806,8.806,0,0,1,33.6-4.41a36.263,36.263,0,0,0-3.78-1.218c.651-.945.84-1.239,1.386-2.163Zm-4.347-8.127H26.271c-1.134,0-1.743-.021-2.457-.084.042.525.084,1.092.084,1.617v1.722a8.3,8.3,0,0,1-.1,1.575h2.73v-2.331H39.606v2.331h2.73a11.878,11.878,0,0,1-.1-1.575v-1.722A13.664,13.664,0,0,1,42.315-16c-.714.063-1.344.084-2.478.084H34.314v-.294a10.16,10.16,0,0,1,.084-1.512h-3a11.034,11.034,0,0,1,.084,1.533Z" transform="translate(47 24)" fill="#191919"/>
        <path id="パス_6494" data-name="パス 6494" d="M-23.625-9.849h-5.439a20.5,20.5,0,0,1-2.457-.126v2.856a21.251,21.251,0,0,1,2.457-.126h5.439V-.8a17.8,17.8,0,0,1-.126,2.667h3.213a19.772,19.772,0,0,1-.126-2.625V-7.245h5.733a21.251,21.251,0,0,1,2.457.126V-9.975a19.216,19.216,0,0,1-2.478.126h-5.712v-4.074A41.718,41.718,0,0,0-15.5-15.057c.651-.168.651-.168,1.344-.336L-16-17.913a9.033,9.033,0,0,1-2.436.882,49.758,49.758,0,0,1-11.319,1.3c-.231,0-.483,0-.861-.021a7.177,7.177,0,0,1,.987,2.625c2.352-.063,3.612-.168,6.006-.42Zm17.7,3.717H6.048V-1.6c0,.42-.168.5-1.05.5-.546,0-1.764-.084-3-.21a9.416,9.416,0,0,1,.8,2.667c.945.042,1.911.063,2.6.063a5.745,5.745,0,0,0,2.436-.315A2.044,2.044,0,0,0,8.82-.945V-14.469A22.988,22.988,0,0,1,8.9-16.926a21.993,21.993,0,0,1-2.457.084H-6.3c-1.2,0-1.785-.021-2.52-.084a19.264,19.264,0,0,1,.084,2.1V-.987a18.3,18.3,0,0,1-.147,2.625h3.066a17.117,17.117,0,0,1-.105-2.52Zm4.473-2.583H-5.922v-5.5h4.473Zm2.751,0v-5.5H6.048v5.5ZM14.28-6.027c1.239-1.386,2.184-1.89,3.507-1.89,1.029,0,1.6.21,3.507,1.365a16.679,16.679,0,0,0,2.436,1.3,5.572,5.572,0,0,0,2.2.42,6.583,6.583,0,0,0,2.814-.63,8.754,8.754,0,0,0,3.066-2.772L29.82-10.29C28.686-8.8,27.468-8.022,26.271-8.022A6.814,6.814,0,0,1,22.68-9.366a11.9,11.9,0,0,0-1.89-1.071,6.016,6.016,0,0,0-2.709-.63,6.546,6.546,0,0,0-3.738,1.218,9.082,9.082,0,0,0-2.037,1.932Z" transform="translate(36 50.627)" fill="#191919"/>
      </g>
    </g>
  </g>
</svg>
