<svg xmlns="http://www.w3.org/2000/svg" width="205.574" height="106.703" viewBox="0 0 205.574 106.703">
  <g id="グループ_9651" data-name="グループ 9651" transform="translate(-80 -509.584)">
    <path id="黒背景" d="M21.919,0H200.574L177.747,99.7H0Z" transform="translate(85 516.584)"/>
    <path id="パス_4198" data-name="パス 4198" d="M21.919,0H200.574L177.747,99.7H0Z" transform="translate(80 509.584)" fill="#fcfcfc"/>
    <g id="グループ_9140" data-name="グループ 9140" transform="translate(-52.356 -55.416)">
      <path id="パス_6489" data-name="パス 6489" d="M.086-36.391,2.542-48.045q8-.114,11.426-1.542,5.941-2.4,7.484-9.712,1.028-4.742-1.114-7.712t-7.17-2.971a12.19,12.19,0,0,0-9.255,3.656A19.127,19.127,0,0,0-.771-56.558h-15.2A47.813,47.813,0,0,1-11.34-68.269a35.888,35.888,0,0,1,8.169-8.969A28.752,28.752,0,0,1,5.37-81.694a35.832,35.832,0,0,1,11.112-1.542q11.883,0,17.853,6.141t3.8,16.482a22.848,22.848,0,0,1-6.97,12.34,20.089,20.089,0,0,1-6.627,4.285q2.228,0,5.6,3.828,4.97,5.77,2.856,15.768-2.228,10.512-11.2,18.481T-1.457,2.057q-17.6,0-21.995-11.483-2.342-6.113-.628-16h16A18.336,18.336,0,0,0-8.255-17.2q1.714,6,9.541,6a14.686,14.686,0,0,0,9.083-3.285,15.47,15.47,0,0,0,5.6-9.455q1.714-8.169-4.342-10.912Q8.2-36.391.086-36.391Z" transform="translate(176 655)" fill="#d11838"/>
      <g id="グループ_9139" data-name="グループ 9139" transform="translate(215.116 601.152)">
        <path id="パス_6490" data-name="パス 6490" d="M-31.878-8.421H-35.07c-.987,0-1.68-.042-2.373-.105v2.709c.672-.063,1.554-.1,2.373-.1h1.953a11.828,11.828,0,0,1-1.764,1.974,17.175,17.175,0,0,1-3.213,2.31,8.459,8.459,0,0,1,1.638,2.5A11.648,11.648,0,0,0-34.314-.8a12.451,12.451,0,0,0,2.478-3.045c-.042,1.449-.042,2.163-.042,2.184V-.084C-31.9.567-31.92,1.092-32,1.806h2.9a11.743,11.743,0,0,1-.126-1.89V-1.638c0-.525-.042-1.659-.063-2.2A14.746,14.746,0,0,0-24.4.9a15.7,15.7,0,0,1,1.47-2.772,14.1,14.1,0,0,1-5.124-4.053h2.331c.672,0,1.491.042,2.31.126V-8.547a22.853,22.853,0,0,1-2.394.126h-3.423V-9.912h2.646l1.386.042a4.79,4.79,0,0,1,.63.021,18.673,18.673,0,0,1-.084-2.058v-3.045a14.787,14.787,0,0,1,.084-2.121,22.691,22.691,0,0,1-2.331.1h-6.93a15.735,15.735,0,0,1-2.31-.1c.042.63.084,1.134.084,1.953v3.192c0,.882-.042,1.449-.084,2.079.525-.042,1.2-.063,2.079-.063h2.184Zm-1.554-6.069h6.09v2.142h-6.09ZM-40.866-.651a21.656,21.656,0,0,1-.126,2.436h2.835a22.485,22.485,0,0,1-.1-2.415V-12.348a23.94,23.94,0,0,0,1.47-3.57c.231-.756.252-.84.378-1.155L-39.186-18a14.283,14.283,0,0,1-.777,2.835,13.692,13.692,0,0,1-3.3,5.229,17.754,17.754,0,0,1,1.092,3.192,12.181,12.181,0,0,0,1.344-1.722c-.042,1.281-.042,1.7-.042,2.2Zm33.2-.777H-9.3V-9.261A17.954,17.954,0,0,1-9.2-11.7h-2.793a19.535,19.535,0,0,1,.1,2.436v7.833a7.22,7.22,0,0,1-1.092-.084V1.26a18.721,18.721,0,0,1,2.436-.126h6.888a21.507,21.507,0,0,1,2.5.126V-1.554a21.656,21.656,0,0,1-2.436.126H-5.04V-7.119H-3.7a13.829,13.829,0,0,1,2.058.1V-9.786A13.489,13.489,0,0,1-3.7-9.681H-5.04v-4.725h1.176a20.759,20.759,0,0,1,2.5.126v-2.814a20.179,20.179,0,0,1-2.52.126h-6.09a19.948,19.948,0,0,1-2.52-.126v2.814a20.652,20.652,0,0,1,2.52-.126h2.31ZM-20.16-15.12c.525-.042.987-.063,1.827-.063H-15.2c.861,0,1.3.021,1.827.063v-2.2a13.979,13.979,0,0,1-1.827.084h-3.129a13.979,13.979,0,0,1-1.827-.084Zm-.651,3.255a12.691,12.691,0,0,1,1.7-.084h4.578a10.018,10.018,0,0,1,1.617.063v-2.457a11.547,11.547,0,0,1-1.7.084H-19.11a9.363,9.363,0,0,1-1.7-.1Zm.714,3a10.635,10.635,0,0,1,1.323-.063h4.032a10.346,10.346,0,0,1,1.281.063v-2.184a9.241,9.241,0,0,1-1.281.063h-4.032a10.18,10.18,0,0,1-1.323-.063Zm0,2.94a10.489,10.489,0,0,1,1.3-.063h4.011a7.665,7.665,0,0,1,1.323.063V-8.106a6.658,6.658,0,0,1-1.281.063h-4.032A7.665,7.665,0,0,1-20.1-8.106Zm2.352,7.728V.882h1.869v.63h2.394a14.3,14.3,0,0,1-.042-1.575v-3.57a13.166,13.166,0,0,1,.042-1.47,6.808,6.808,0,0,1-1.344.063h-3.843c-.63,0-1.134-.021-1.575-.063a12.768,12.768,0,0,1,.084,1.617V-.231c0,.714-.042,1.407-.1,2.037ZM-17.787-3h1.911V-1.26h-1.911ZM17.472-4.662v3.444c0,.357-.126.441-.777.441a11.93,11.93,0,0,1-1.7-.168,12.708,12.708,0,0,1,.651,2.709c.546.021.882.021,1.092.021a5.331,5.331,0,0,0,2.415-.357c.63-.336.924-1.029.924-2.142V-14.532a21.792,21.792,0,0,1,.084-2.436,16.372,16.372,0,0,1-2.373.105H14.658a19.7,19.7,0,0,1-2.457-.105,25.519,25.519,0,0,1,.105,2.94c0,9.135-.273,11.508-1.575,13.335A10.11,10.11,0,0,1,8.9-3.15L6.867-2A14.1,14.1,0,0,0,9.156,1.428,8.358,8.358,0,0,1,10.626.1a15.722,15.722,0,0,1,1.659,1.911C13.713.147,14.217-1.3,14.574-4.662Zm0-4.914v2.541h-2.73c.042-1.05.063-1.512.084-2.541Zm0-2.394H14.847v-2.394h2.625ZM2.919-15.519a5.8,5.8,0,0,1-1.449-.105v2.52a7.556,7.556,0,0,1,1.449-.084v7.707H2.814a8.945,8.945,0,0,1-1.533-.084v2.5a9.331,9.331,0,0,1,1.6-.084h1.3A9.928,9.928,0,0,1,1.218.021,12.616,12.616,0,0,1,3.129,1.974,14.26,14.26,0,0,0,6.342-1.932l-2-1.218h5.46a16.043,16.043,0,0,1,1.68.063V-5.565a9.609,9.609,0,0,1-1.05.084v-7.707a9.309,9.309,0,0,1,1.26.063v-2.5a7.142,7.142,0,0,1-1.26.105v-.336a9.25,9.25,0,0,1,.105-1.68H7.9a11.965,11.965,0,0,1,.084,1.68v.336H5.355v-.336a12.753,12.753,0,0,1,.084-1.68H2.814a9.535,9.535,0,0,1,.105,1.68ZM5.355-5.481v-1.2H7.98v1.2Zm0-3.318V-10H7.98v1.2Zm0-3.3v-1.092H7.98V-12.1ZM37.422-6.972c0-.8.021-1.323.063-1.827-.651.042-1.029.063-1.89.063H30.513c-.84,0-1.26-.021-1.89-.063.042.525.063,1.092.063,1.827v5.355c0,.819-.021,1.575-.084,2.184h2.52V-.483h4.431c.378,0,.567,0,.966.021a9.5,9.5,0,0,1,.441,2c1.134.042,1.2.042,1.512.042a6.808,6.808,0,0,0,2.541-.294c.756-.336,1.029-.966,1.029-2.373V-14.8c0-1.05.021-1.6.084-2.352a18.894,18.894,0,0,1-2.142.084H35.7a18.838,18.838,0,0,1-2.163-.084c.042.672.063,1.2.063,1.932V-11.7c0,1.029,0,1.239-.042,1.869.483-.021,1.176-.042,1.827-.042h4.032v8.379c0,.441-.147.525-.882.525-.273,0-.546-.021-1.092-.063-.021-.42-.021-.735-.021-1.2ZM36.1-15.141h3.318v.861H36.1Zm0,2.562h3.318v.861H36.1ZM31.122-6.657h3.885v1.071H31.122Zm0,3.045h3.885v1.05H31.122ZM26.775-9.87h3.738c.651,0,1.344.021,1.827.042-.042-.483-.042-.84-.042-1.869v-3.528c0-.84.021-1.323.063-1.932a17.3,17.3,0,0,1-2.142.084H26.187a19.132,19.132,0,0,1-2.142-.084,23.214,23.214,0,0,1,.084,2.373V-.966A20.156,20.156,0,0,1,24,1.743h2.9a19.79,19.79,0,0,1-.126-2.688Zm0-5.271h3.066v.861H26.775Zm0,2.562h3.066v.861H26.775Z" transform="translate(47 26)" fill="#191919"/>
        <path id="パス_6491" data-name="パス 6491" d="M-28.35-5.25h-.8a19.383,19.383,0,0,1-2.394-.126v2.793a19.624,19.624,0,0,1,2.394-.126h6.825V-.546a17.432,17.432,0,0,1-.126,2.436H-19.4A14.407,14.407,0,0,1-19.53-.5v-2.2h4.62a19.258,19.258,0,0,1,2.373.126V-5.376a18.327,18.327,0,0,1-2.373.126h-4.62V-8.358H-16.3a21.774,21.774,0,0,1,2.184.084v-2.6a22.175,22.175,0,0,1-2.289.084H-19.53v-2.394h4.011a16.475,16.475,0,0,1,2.247.126v-2.73a13.365,13.365,0,0,1-2.247.126h-9.534c.147-.336.231-.5.378-.84.294-.63.315-.672.462-.966l-2.982-.546a8.185,8.185,0,0,1-.525,1.512,12.884,12.884,0,0,1-4.053,5.061,12.167,12.167,0,0,1,1.827,2.331,18.07,18.07,0,0,0,1.554-1.554c.021.315.042.63.042,1.029Zm2.688,0V-8.358h3.339V-5.25Zm3.339-7.938v2.394h-4.62c-.525,0-.882-.021-1.3-.042a22.472,22.472,0,0,0,1.785-2.352ZM-5.8-14.7H-7.518a16.114,16.114,0,0,1-2.142-.126v2.688a14.686,14.686,0,0,1,1.995-.1h3.633a16.651,16.651,0,0,1-.693,3.99c-.861-.966-.861-.966-2.793-2.919L-9.3-9.282A38.038,38.038,0,0,1-5.838-5.565,13.5,13.5,0,0,1-9.912-.735,8.474,8.474,0,0,1-8.064,1.659,22.723,22.723,0,0,0-4.053-3.3,33.149,33.149,0,0,1-1.743.084L.168-2.184c-1.2-1.659-1.848-2.478-2.919-3.78a22.2,22.2,0,0,0,1.386-6.279,13.632,13.632,0,0,1,1.491.063V-14.8a14.533,14.533,0,0,1-2.058.1H-3.15v-1.071a12.072,12.072,0,0,1,.105-1.911H-5.922A12.084,12.084,0,0,1-5.8-15.771ZM5.061-11.151v9.723c0,.42-.168.483-1.176.483a21.96,21.96,0,0,1-2.6-.231,9.729,9.729,0,0,1,.777,2.73c.588.021.861.021,1.218.021.378,0,.819-.021,1.554-.042A4.508,4.508,0,0,0,6.825,1.2c.714-.42.945-.945.945-2.352v-10h.147a11.248,11.248,0,0,1,1.407.063,2.332,2.332,0,0,0,.483.042v-2.772a11.37,11.37,0,0,1-1.911.126H7.77v-1.323a20.908,20.908,0,0,1,.1-2.583H4.914a15.377,15.377,0,0,1,.147,2.583v1.323H2.541a12.591,12.591,0,0,1-1.995-.1v2.751a12.46,12.46,0,0,1,1.974-.1ZM-.672-8.862A19.774,19.774,0,0,1,2.2-3.654l2.289-1.47a28.756,28.756,0,0,0-2.9-4.935Zm22.827-4.431-1.638,1.428a19.243,19.243,0,0,1,5.271,3.759L27.7-10.143a30.515,30.515,0,0,0-4.746-3.15h6.111a22.021,22.021,0,0,1,2.562.1V-15.96a19.776,19.776,0,0,1-2.562.126H23.877v-.8a5.512,5.512,0,0,1,.084-1.155H20.979a5.9,5.9,0,0,1,.1,1.113v.84h-5.25c-.966,0-1.512-.021-2.247-.084.063.735.084,1.575.084,2.94A67.828,67.828,0,0,1,13.23-4.6a13.274,13.274,0,0,1-1.3,4.116,11.035,11.035,0,0,1,2.226,2.205,18.514,18.514,0,0,0,1.6-5.1,51.886,51.886,0,0,0,.588-9.912ZM18.4.462a26.955,26.955,0,0,0,1.617-8.61l-2.52-.63a31.938,31.938,0,0,1-.378,3.948A13.514,13.514,0,0,1,15.981-.987ZM20.727-9.849a11.636,11.636,0,0,1,.126,1.995V-.042a1.286,1.286,0,0,0,.84,1.386,8.687,8.687,0,0,0,2.793.273c1.869,0,2.709-.252,3.171-.924.441-.63.609-1.68.777-4.536a9.449,9.449,0,0,1-2.5-.84,16.942,16.942,0,0,1-.168,3.15c-.126.4-.378.5-1.26.5-.861,0-1.008-.084-1.008-.567V-7.833a12.563,12.563,0,0,1,.1-2.016Zm11.3,8.715A38.455,38.455,0,0,0,29.337-8.9L26.985-7.77A25.327,25.327,0,0,1,29.4.126Z" transform="translate(36 50.627)" fill="#191919"/>
      </g>
    </g>
  </g>
</svg>
