<svg xmlns="http://www.w3.org/2000/svg" width="758.557" height="523.988" viewBox="0 0 758.557 523.988">
  <g id="グループ_9650" data-name="グループ 9650" transform="translate(-80 -118.633)">
    <path id="パス_6483" data-name="パス 6483" d="M16.8-80.16c13.32,4.56,22.8,9.12,36.12,17.52L65.16-84.12c-10.08-6-20.4-10.56-35.76-16.08ZM7.56-50.28c14.04,5.4,24.48,11.04,35.4,19.32l11.88-22.2C43.68-60.48,35.16-64.8,20.52-70.56ZM18.6,7.8a73.137,73.137,0,0,1,8.52-2.04C38.16,3.84,43.56,2.64,50.4.48q28.8-9,46.92-29.52c7.92-9,12.96-17.4,19.08-32.04-9.96-6.84-12.96-9.36-20.88-17.64-3.6,10.8-6.96,17.64-12.96,26.16-9,12.84-18.24,20.04-32.64,25.8-12.72,5.04-27.96,8.28-38.4,8.28ZM151.56-63.24l-7.32,1.2a72.549,72.549,0,0,1-11.76,1.08l3.72,21.6A79.913,79.913,0,0,1,147.12-42l7.92-1.44L162.6.36a65.335,65.335,0,0,1,.96,10.08l23.88-4.2c-1.32-3.36-1.32-3.36-2.52-10.08l-8.16-43.32,22.56-3.96A55.118,55.118,0,0,1,182.76-33.6c7.8,4.2,10.8,6.48,17.76,13.32,6-5.52,9-8.64,12.12-12.84a85.928,85.928,0,0,0,12.12-23.04c1.68-5.28,1.68-5.28,3.12-6.84L214.8-75c-1.44,1.2-2.76,1.68-5.28,2.16l-36.48,6-1.44-7.44a78.189,78.189,0,0,1-1.08-9.6L147.84-80.4a43.743,43.743,0,0,1,2.4,9.36Zm102.36-5.04c6.72,16.68,6.72,16.8,10.44,32.4l21.96-6.48a149.264,149.264,0,0,0-11.76-31.56Zm27.24-5.28a193.564,193.564,0,0,1,10.68,31.32l21.48-6.36c-3.12-12.12-5.28-17.64-11.76-30.36Zm41.04-3c-.12,7.92-2.64,19.56-6,28.08-4.68,11.76-10.8,19.44-21.48,27.12A86.706,86.706,0,0,1,272.28-9.72c7.8,7.92,10.2,10.92,15.36,19.92a147.747,147.747,0,0,0,15.48-8.64,91.6,91.6,0,0,0,26.16-26.04c6.36-9.72,10.44-21,14.04-38.52.96-4.8,1.08-5.64,1.92-8.04Zm77.04-27a70.03,70.03,0,0,1-6.96,16.92C384.6-72.6,377.4-64.2,362.64-52.08c9.96,5.64,13.2,8.16,20.64,15.96,12.36-11.28,20.52-21.24,27.24-33.36l30.24-.12a70.106,70.106,0,0,1-8.52,18.36c-6.72-4.56-8.88-5.88-20.4-12l-15,18A126.526,126.526,0,0,1,417.6-31.8a76.574,76.574,0,0,1-17.4,12.72c-6.48,3.6-11.64,5.88-21.72,9.36,9.12,9.24,11.4,12.24,16.8,21.48,32.4-14.64,51.72-34.08,64.8-64.68,2.4-5.76,6.36-16.56,7.8-21.36.96-3.12,1.2-3.6,2.88-5.16L458.52-91.68A8.175,8.175,0,0,1,453-90l-32.88.36a68.611,68.611,0,0,1,4.32-9.12Zm86.28,71.4c7.08-.72,8.16-.72,27.96-.72h53.04c19.8,0,20.76,0,27.96.72v-27c-7.92.96-10.92,1.08-27.84,1.08H513.36c-16.92,0-19.92-.12-27.84-1.08ZM664.44,9.24c13.08-2.04,20.28-4.2,27.36-8.16,15.24-8.64,24.48-25.8,24.48-45.72,0-9.96-1.68-18.12-5.28-25.44-7.68-15.84-25.44-25.32-47.52-25.32-18.24,0-34.08,6.36-45,18.24-9.24,9.96-14.16,22.92-14.16,37.2,0,23.88,12.12,40.2,29.64,40.2,8.4,0,15-3.48,20.76-10.92C660.12-1.56,662.16,2.52,664.44,9.24ZM674.52-72.6a16.437,16.437,0,0,1,9,4.44c5.16,4.8,8.04,12.36,8.04,20.76,0,10.68-4.44,20.16-12,25.92-5.04,3.84-12.36,6.12-22.2,6.84,3-4.92,6.24-12.24,9.24-21.48C670.56-47.88,672.48-56.88,674.52-72.6Zm-24.48.12a143.074,143.074,0,0,1-8.52,34.44c-3.24,8.64-5.52,12-8.04,12-3.36,0-6.12-6-6.12-13.44C627.36-55.2,637.44-69.84,650.04-72.48ZM80.76,87.68a33.037,33.037,0,0,0,4.32-2.28c7.44,4.32,15.6,7.56,26.16,10.44a81.1,81.1,0,0,1,7.2-21.72c-7.44-.72-9.84-1.08-15.12-2.64a69.436,69.436,0,0,0,9.84-14.04c1.68-3.24,2.16-4.2,3.6-6.84l-9-11.4a55.558,55.558,0,0,1-8.88.48H74.16a120.372,120.372,0,0,1-12.72-.6v18a66.583,66.583,0,0,1,9.96-.48L59.76,62.48a67.634,67.634,0,0,0,8.52,9.96,54.737,54.737,0,0,1-10.44,2.64c-.12-1.44-.12-2.16-.12-5.04V63.2a34.269,34.269,0,0,1,.24-6c-1.8.12-2.04.12-5.16.12H49.68v-2.4h1.2a67.875,67.875,0,0,1,8.16.36V39.08c-4.2.36-8.76.6-13.68.6H18A87.357,87.357,0,0,1,7.2,39.2c.24,3.48.36,5.76.36,11.4V80.12a103.387,103.387,0,0,1-.48,11.52c3.12-.24,5.52-.36,8.64-.36H29.28L16.56,101.96A116.225,116.225,0,0,1,32.04,110c-23.52-.36-23.52-.36-28.56-1.08L5.4,128.36c2.16-.36,3.6-.48,13.08-.72,6.72-.12,6.72-.12,8.28-.24-6.48,3.48-14.88,6.12-24.48,7.8a82.169,82.169,0,0,1,12.24,16.92c13.08-3.96,24.96-10.2,33.24-17.64v4.32a74.128,74.128,0,0,1-.72,12.6H70.8a71.669,71.669,0,0,1-.72-12.6v-5.16c8.16,7.2,21.12,13.8,36,18.48,3.96-7.92,6.6-12.36,11.16-18.24-11.16-1.44-21.48-4.56-27.96-8.4,2.64-.12,2.64-.12,8.88-.36.84,1.68,1.2,2.4,2.28,4.68l18.36-10.68c-7.2-10.32-11.4-15.36-18.12-21.96l-15.96,8.28c1.68,1.92,2.28,2.52,3.48,4.08-2.76.12-6.84.24-12.48.36a188.372,188.372,0,0,0,15.36-12A31.922,31.922,0,0,1,94.56,95ZM66.6,92.84c1.68-.6,3-.96,3.72-1.2-5.28,5.04-9.72,9-14.88,13.2a34.264,34.264,0,0,1-3-1.92A121.5,121.5,0,0,0,66,91.04Zm-7.44-6.72V78.68a89.037,89.037,0,0,1-9.48.36v-2.4H52.8a42.669,42.669,0,0,1,4.44.12h.72a6.339,6.339,0,0,1-.12-1.56,63.4,63.4,0,0,1,7.32,13.56ZM91.32,56.6a29.2,29.2,0,0,1-6,6.6,31.56,31.56,0,0,1-7.44-6.6ZM70.08,133.04V126.2c7.68-.24,7.68-.24,12.36-.48Zm-22.32-6.12v6.72l-11.4-6.48Zm-4.2-35.64c-1.68,1.56-2.04,1.92-4.2,3.72-2.4-1.44-3.12-1.8-6.72-3.72ZM27,58.52v-3.6h4.56v3.6Zm0,6.84H39.36V68.6H27Zm0,10.08h4.56v3.6H27ZM206.88,62c3-2.76,6.36-6.12,7.8-7.8a14.458,14.458,0,0,1,2.76-2.76c.12,0,.24-.12.36-.24L206.64,40.76c-2.4.36-5.4.48-12.36.48h-18l1.68-2.52L153,35.48a60.652,60.652,0,0,1-17.4,18.84,95.8,95.8,0,0,1-14.04,8.4,115.181,115.181,0,0,1,10.8,19.8c3.48-2.04,4.56-2.76,7.32-4.68h64.08v2.52H150c-7.68,0-8.04,0-12.48-.48V94.76c4.56-.24,7.8-.36,12.48-.36h53.76v2.52H148.2a102.166,102.166,0,0,1-12.48-.48v16.2l-1.8-.96a48.512,48.512,0,0,1-4.56,12.36,69.224,69.224,0,0,1-8.16,13.44l17.4,14.4a101.027,101.027,0,0,0,11.52-25.8v11.16c0,6.12,1.32,9,4.92,11.04,3.6,1.92,9.36,2.64,21.96,2.64,17.88,0,25.08-.96,29.4-3.96,3-2.04,4.08-4.2,5.52-12a150.522,150.522,0,0,1,8.04,16.44l19.2-13.32c-6.96-12-9.84-16.2-16.92-25.32,1.56.12,1.56.12,3.24.24-.12-1.44-.24-3.72-.24-6.84V68.48c0-3.36.12-5.64.24-6.84a54.132,54.132,0,0,1-6.96.36Zm-48.24,0,3-3H183a23.332,23.332,0,0,1-2.64,3Zm21.84,50.64-8.88,5.04A122.827,122.827,0,0,1,183,131.6c-3.24.12-4.2.12-5.28.12-5.76,0-6.72-.48-6.72-3v-5.76c0-5.04.12-6.96.48-8.28H149.52a31.109,31.109,0,0,1,.6,5.64L136.32,113c3.72-.24,7.44-.36,11.88-.36Zm37.68,0-14.88,8.4c1.68,2.52,2.28,3.36,3.48,5.28a65.393,65.393,0,0,1-10.44-2.76l6.48-4.08a73.844,73.844,0,0,0-6.48-6.84Zm-25.92,13.32c-.36,2.88-.84,3.96-1.68,4.44-1.44.84-3.24,1.08-7.32,1.2Zm97.44-23.28H256.8c-6.96,0-9.72-.12-12.96-.6v15c3.24-.48,6-.6,13.32-.6h32.52v2.76H261.6c-6.72,0-8.28,0-11.4-.36V132.2a113.93,113.93,0,0,1,12.12-.48h27.36v1.32c0,1.92-.72,2.28-3.6,2.28a147.874,147.874,0,0,1-15.84-.96c3.48,6.24,4.68,9.84,5.88,17.28,4.44.24,7.68.36,10.8.36,11.4,0,17.28-1.2,20.16-3.84,2.4-2.4,3.24-5.88,3.24-13.32v-3.12h18.96v4.68H350.4a109.3,109.3,0,0,1-.6-13.92v-5.16a44.669,44.669,0,0,1,7.2.6V101.24a38.428,38.428,0,0,1-7.2.6v-3a89.533,89.533,0,0,1,.36-11.16c-3,.36-4.44.36-11.88.36H310.32V85.4h27.36c3.84,0,6.6.12,9.48.36a76.033,76.033,0,0,1-.36-8.28V69.44c0-3.6.12-6.36.36-8.76-2.88.24-5.52.36-10.56.36H310.32V58.4h30.84a129.347,129.347,0,0,1,14.76.6V41.6a141.908,141.908,0,0,1-16.2.72H310.44a24.742,24.742,0,0,1,.6-4.68H288.96a31.214,31.214,0,0,1,.6,4.68h-28.8a139.941,139.941,0,0,1-16.32-.72V59a131.619,131.619,0,0,1,14.88-.6h30.36v2.64H264.12c-5.04,0-7.68-.12-11.04-.36.24,2.76.36,5.28.36,8.76v8.04c0,3.24-.12,5.76-.36,8.28,3.24-.24,6-.36,10.68-.36h25.92v2.64H261.24c-5.28,0-8.04-.12-11.04-.36V100.4c3.6-.24,6.6-.36,10.8-.36h28.68Zm20.64,0v-2.64h18.96v2.64Zm0,13.8h18.96v2.76H310.32ZM289.68,71.72v3h-16.2v-3Zm20.64,0h16.44v3H310.32Zm59.16-4.92c.12,2.28.24,5.16.24,8.28v28.2a110.065,110.065,0,0,1-.6,13.56h4.2c-2.76,8.76-5.64,13.8-11.76,21.12l18.24,12a81.8,81.8,0,0,0,11.16-25.32V138.2c0,7.2,2.28,9.96,9.24,11.28,4.32.72,8.52.96,21.12.96,14.76,0,21-.6,24.48-2.16,4.44-2.16,6.36-5.64,7.44-13.8A117.771,117.771,0,0,1,459.36,149l18.84-10.68a141.192,141.192,0,0,0-13.8-22.08c6-.96,8.76-2.4,11.04-5.64,1.8-2.64,2.64-6.12,3.12-13.8a89.583,89.583,0,0,1-16.2-2.64c2.52-.48,5.64-1.08,8.76-1.8.72-.12,2.64-.6,5.76-1.2L463.8,77.24c5.16-.6,7.68-1.56,9.84-3.6,3-3,4.08-6.12,4.68-14.64a98.077,98.077,0,0,1-16.92-3.24c3.96-.96,6.6-1.56,11.04-2.76,2.88-.72,3.6-.96,5.76-1.44L463.32,37.04a68.455,68.455,0,0,1-21.12,7.2,53.1,53.1,0,0,1,.48-7.08H420.84a82.954,82.954,0,0,1,.48,11.16c-2.16-3.24-4.08-6-7.08-9.96l-15,6.72c1.32,2.04,1.44,2.16,2.64,4.08-4.08.24-4.08.24-7.08.36a66.8,66.8,0,0,0,4.32-6.36c2.52-4.08,2.52-4.08,3.12-4.92L381.12,35.6a61.813,61.813,0,0,1-7.44,14.52h-3a44.4,44.4,0,0,1-5.88-.24l1.68,17.28Zm24.48-2.28c6.48-.6,10.68-1.08,15.6-1.56.84,1.68,1.08,2.16,1.68,3.6H376.92a20.864,20.864,0,0,1-3.48-.24Zm27.36-1.56v1.8c0,7.8,2.4,10.68,10.56,12.36H420.84a84.341,84.341,0,0,1,.48,10.56V104c0,3.84.48,5.88,2.04,8.28l-9.48,4.56c4.44,5.64,5.76,7.8,8.28,13.2l11.16-5.76c-.12,3.6-.36,5.28-.84,6.12-.96,1.32-3.84,1.8-11.04,1.8-8.64,0-9.84-.36-9.84-2.88V118.88a24.816,24.816,0,0,1,.36-4.2,10.5,10.5,0,0,0,5.28-4.2c1.2-1.92,1.56-3.96,1.56-9V76.16c0-6,0-7.56.36-10.2a46.576,46.576,0,0,1-4.8.36ZM390.6,113.84a77.5,77.5,0,0,1,.36,7.8v.96l-14.64-5.76h13.92a86.594,86.594,0,0,1-.24-8.88v-5.52h8.76v1.2c0,1.68-.48,2.16-2.28,2.16a28.261,28.261,0,0,1-3-.12c-.36,0-.96-.12-1.68-.12a29.121,29.121,0,0,1,2.76,8.28Zm-.6-23.4h8.76v3.24H390Zm8.76-8.76H390V78.44h8.76Zm47.04,40.44c1.44,2.04,1.92,2.64,3,4.32a70.662,70.662,0,0,1-12.96-3.48l4.8-2.52c-1.08-1.68-1.32-2.16-2.28-3.48a52.292,52.292,0,0,0,6.48.24c5.76,0,8.28,0,12.12-.24Zm-3.24-44.28h3.12c7.8,0,11.88-.12,15.84-.36a59.706,59.706,0,0,1-19.32,5.04C442.32,80.48,442.44,79.16,442.56,77.84ZM442.2,96.8c8.4-.84,9.12-.96,17.28-2.16-.36,5.16-.96,5.64-8.52,5.64-7.92,0-8.76-.36-8.76-3.24Zm0-37.8c6.96-.84,11.76-1.68,17.64-2.88-.12,2.52-.6,4.32-1.32,5.04-.84.84-3.36,1.2-9.72,1.2C443.16,62.36,442.32,61.88,442.2,59Zm46.92,10.92h2.04c.6,0,2.16,0,4.44.12a44.139,44.139,0,0,0,4.68.12c1.32,0,1.56,0,7.68.24-6.96,11.76-14.76,21-23.04,27.24l17.88,17.64a84.2,84.2,0,0,1,15.72-15.6c7.2-5.52,13.08-8.16,18.12-8.16a4.41,4.41,0,0,1,3,.84c-8.16,3.6-12.72,6-16.92,8.88-10.44,7.32-15.48,15.12-15.48,24.12,0,9.36,5.04,16.44,14.4,20.4,5.52,2.28,14.16,3.48,24.6,3.48a266.59,266.59,0,0,0,31.32-2.04,90.555,90.555,0,0,1,11.16-.84l-1.56-25.44c-10.68,4.08-25.92,6.48-40.08,6.48-10.2,0-13.8-1.32-13.8-4.92,0-3.12,2.52-5.64,9.12-8.76-.12,6.96-.12,7.56-.6,10.2l23.4-.6a99.7,99.7,0,0,1-.48-11.4c0-1.32,0-1.32-.12-6.24,14.52-4.32,24.24-6.72,30.12-7.44l-8.28-22.2c-2.4,1.08-2.4,1.08-24.36,8.04-2.76-7.44-8.76-10.92-18.72-10.92a35.866,35.866,0,0,0-13.92,2.4c1.56-2.28,1.92-3,3.24-5.28,13.08-.36,28.44-1.2,37.56-2.16,2.76-.24,4.56-.36,5.04-.48,3.72-.24,3.72-.24,4.8-.24l-.84-22.44c-6.24,1.56-18.96,2.88-36.84,3.96q2.88-7.38,4.32-10.08l-25.8-1.68c-.36,3.84-1.08,6.48-3.12,12.36-18.36-.12-22.68-.48-28.32-1.8Z" transform="matrix(0.985, -0.174, 0.174, 0.985, 106.743, 351.432)" fill="#00347f"/>
    <path id="パス_6484" data-name="パス 6484" d="M16.8-80.16c13.32,4.56,22.8,9.12,36.12,17.52L65.16-84.12c-10.08-6-20.4-10.56-35.76-16.08ZM7.56-50.28c14.04,5.4,24.48,11.04,35.4,19.32l11.88-22.2C43.68-60.48,35.16-64.8,20.52-70.56ZM18.6,7.8a73.137,73.137,0,0,1,8.52-2.04C38.16,3.84,43.56,2.64,50.4.48q28.8-9,46.92-29.52c7.92-9,12.96-17.4,19.08-32.04-9.96-6.84-12.96-9.36-20.88-17.64-3.6,10.8-6.96,17.64-12.96,26.16-9,12.84-18.24,20.04-32.64,25.8-12.72,5.04-27.96,8.28-38.4,8.28ZM151.56-63.24l-7.32,1.2a72.549,72.549,0,0,1-11.76,1.08l3.72,21.6A79.913,79.913,0,0,1,147.12-42l7.92-1.44L162.6.36a65.335,65.335,0,0,1,.96,10.08l23.88-4.2c-1.32-3.36-1.32-3.36-2.52-10.08l-8.16-43.32,22.56-3.96A55.118,55.118,0,0,1,182.76-33.6c7.8,4.2,10.8,6.48,17.76,13.32,6-5.52,9-8.64,12.12-12.84a85.928,85.928,0,0,0,12.12-23.04c1.68-5.28,1.68-5.28,3.12-6.84L214.8-75c-1.44,1.2-2.76,1.68-5.28,2.16l-36.48,6-1.44-7.44a78.189,78.189,0,0,1-1.08-9.6L147.84-80.4a43.743,43.743,0,0,1,2.4,9.36Zm102.36-5.04c6.72,16.68,6.72,16.8,10.44,32.4l21.96-6.48a149.264,149.264,0,0,0-11.76-31.56Zm27.24-5.28a193.564,193.564,0,0,1,10.68,31.32l21.48-6.36c-3.12-12.12-5.28-17.64-11.76-30.36Zm41.04-3c-.12,7.92-2.64,19.56-6,28.08-4.68,11.76-10.8,19.44-21.48,27.12A86.706,86.706,0,0,1,272.28-9.72c7.8,7.92,10.2,10.92,15.36,19.92a147.747,147.747,0,0,0,15.48-8.64,91.6,91.6,0,0,0,26.16-26.04c6.36-9.72,10.44-21,14.04-38.52.96-4.8,1.08-5.64,1.92-8.04Zm77.04-27a70.03,70.03,0,0,1-6.96,16.92C384.6-72.6,377.4-64.2,362.64-52.08c9.96,5.64,13.2,8.16,20.64,15.96,12.36-11.28,20.52-21.24,27.24-33.36l30.24-.12a70.106,70.106,0,0,1-8.52,18.36c-6.72-4.56-8.88-5.88-20.4-12l-15,18A126.526,126.526,0,0,1,417.6-31.8a76.574,76.574,0,0,1-17.4,12.72c-6.48,3.6-11.64,5.88-21.72,9.36,9.12,9.24,11.4,12.24,16.8,21.48,32.4-14.64,51.72-34.08,64.8-64.68,2.4-5.76,6.36-16.56,7.8-21.36.96-3.12,1.2-3.6,2.88-5.16L458.52-91.68A8.175,8.175,0,0,1,453-90l-32.88.36a68.611,68.611,0,0,1,4.32-9.12Zm86.28,71.4c7.08-.72,8.16-.72,27.96-.72h53.04c19.8,0,20.76,0,27.96.72v-27c-7.92.96-10.92,1.08-27.84,1.08H513.36c-16.92,0-19.92-.12-27.84-1.08ZM664.44,9.24c13.08-2.04,20.28-4.2,27.36-8.16,15.24-8.64,24.48-25.8,24.48-45.72,0-9.96-1.68-18.12-5.28-25.44-7.68-15.84-25.44-25.32-47.52-25.32-18.24,0-34.08,6.36-45,18.24-9.24,9.96-14.16,22.92-14.16,37.2,0,23.88,12.12,40.2,29.64,40.2,8.4,0,15-3.48,20.76-10.92C660.12-1.56,662.16,2.52,664.44,9.24ZM674.52-72.6a16.437,16.437,0,0,1,9,4.44c5.16,4.8,8.04,12.36,8.04,20.76,0,10.68-4.44,20.16-12,25.92-5.04,3.84-12.36,6.12-22.2,6.84,3-4.92,6.24-12.24,9.24-21.48C670.56-47.88,672.48-56.88,674.52-72.6Zm-24.48.12a143.074,143.074,0,0,1-8.52,34.44c-3.24,8.64-5.52,12-8.04,12-3.36,0-6.12-6-6.12-13.44C627.36-55.2,637.44-69.84,650.04-72.48ZM80.76,85.68a33.037,33.037,0,0,0,4.32-2.28c7.44,4.32,15.6,7.56,26.16,10.44a81.1,81.1,0,0,1,7.2-21.72c-7.44-.72-9.84-1.08-15.12-2.64a69.436,69.436,0,0,0,9.84-14.04c1.68-3.24,2.16-4.2,3.6-6.84l-9-11.4a55.558,55.558,0,0,1-8.88.48H74.16a120.372,120.372,0,0,1-12.72-.6v18a66.583,66.583,0,0,1,9.96-.48L59.76,60.48a67.634,67.634,0,0,0,8.52,9.96,54.737,54.737,0,0,1-10.44,2.64c-.12-1.44-.12-2.16-.12-5.04V61.2a34.269,34.269,0,0,1,.24-6c-1.8.12-2.04.12-5.16.12H49.68v-2.4h1.2a67.875,67.875,0,0,1,8.16.36V37.08c-4.2.36-8.76.6-13.68.6H18A87.357,87.357,0,0,1,7.2,37.2c.24,3.48.36,5.76.36,11.4V78.12a103.387,103.387,0,0,1-.48,11.52c3.12-.24,5.52-.36,8.64-.36H29.28L16.56,99.96A116.225,116.225,0,0,1,32.04,108c-23.52-.36-23.52-.36-28.56-1.08L5.4,126.36c2.16-.36,3.6-.48,13.08-.72,6.72-.12,6.72-.12,8.28-.24-6.48,3.48-14.88,6.12-24.48,7.8a82.169,82.169,0,0,1,12.24,16.92c13.08-3.96,24.96-10.2,33.24-17.64v4.32a74.128,74.128,0,0,1-.72,12.6H70.8a71.669,71.669,0,0,1-.72-12.6v-5.16c8.16,7.2,21.12,13.8,36,18.48,3.96-7.92,6.6-12.36,11.16-18.24-11.16-1.44-21.48-4.56-27.96-8.4,2.64-.12,2.64-.12,8.88-.36.84,1.68,1.2,2.4,2.28,4.68l18.36-10.68c-7.2-10.32-11.4-15.36-18.12-21.96l-15.96,8.28c1.68,1.92,2.28,2.52,3.48,4.08-2.76.12-6.84.24-12.48.36a188.372,188.372,0,0,0,15.36-12A31.922,31.922,0,0,1,94.56,93ZM66.6,90.84c1.68-.6,3-.96,3.72-1.2-5.28,5.04-9.72,9-14.88,13.2a34.264,34.264,0,0,1-3-1.92A121.5,121.5,0,0,0,66,89.04Zm-7.44-6.72V76.68a89.037,89.037,0,0,1-9.48.36v-2.4H52.8a42.669,42.669,0,0,1,4.44.12h.72a6.339,6.339,0,0,1-.12-1.56,63.4,63.4,0,0,1,7.32,13.56ZM91.32,54.6a29.2,29.2,0,0,1-6,6.6,31.56,31.56,0,0,1-7.44-6.6ZM70.08,131.04V124.2c7.68-.24,7.68-.24,12.36-.48Zm-22.32-6.12v6.72l-11.4-6.48Zm-4.2-35.64c-1.68,1.56-2.04,1.92-4.2,3.72-2.4-1.44-3.12-1.8-6.72-3.72ZM27,56.52v-3.6h4.56v3.6Zm0,6.84H39.36V66.6H27Zm0,10.08h4.56v3.6H27ZM206.88,60c3-2.76,6.36-6.12,7.8-7.8a14.458,14.458,0,0,1,2.76-2.76c.12,0,.24-.12.36-.24L206.64,38.76c-2.4.36-5.4.48-12.36.48h-18l1.68-2.52L153,33.48a60.652,60.652,0,0,1-17.4,18.84,95.8,95.8,0,0,1-14.04,8.4,115.181,115.181,0,0,1,10.8,19.8c3.48-2.04,4.56-2.76,7.32-4.68h64.08v2.52H150c-7.68,0-8.04,0-12.48-.48V92.76c4.56-.24,7.8-.36,12.48-.36h53.76v2.52H148.2a102.166,102.166,0,0,1-12.48-.48v16.2l-1.8-.96a48.512,48.512,0,0,1-4.56,12.36,69.224,69.224,0,0,1-8.16,13.44l17.4,14.4a101.027,101.027,0,0,0,11.52-25.8v11.16c0,6.12,1.32,9,4.92,11.04,3.6,1.92,9.36,2.64,21.96,2.64,17.88,0,25.08-.96,29.4-3.96,3-2.04,4.08-4.2,5.52-12a150.522,150.522,0,0,1,8.04,16.44l19.2-13.32c-6.96-12-9.84-16.2-16.92-25.32,1.56.12,1.56.12,3.24.24-.12-1.44-.24-3.72-.24-6.84V66.48c0-3.36.12-5.64.24-6.84a54.132,54.132,0,0,1-6.96.36Zm-48.24,0,3-3H183a23.332,23.332,0,0,1-2.64,3Zm21.84,50.64-8.88,5.04A122.827,122.827,0,0,1,183,129.6c-3.24.12-4.2.12-5.28.12-5.76,0-6.72-.48-6.72-3v-5.76c0-5.04.12-6.96.48-8.28H149.52a31.109,31.109,0,0,1,.6,5.64L136.32,111c3.72-.24,7.44-.36,11.88-.36Zm37.68,0-14.88,8.4c1.68,2.52,2.28,3.36,3.48,5.28a65.393,65.393,0,0,1-10.44-2.76l6.48-4.08a73.844,73.844,0,0,0-6.48-6.84Zm-25.92,13.32c-.36,2.88-.84,3.96-1.68,4.44-1.44.84-3.24,1.08-7.32,1.2Zm97.44-23.28H256.8c-6.96,0-9.72-.12-12.96-.6v15c3.24-.48,6-.6,13.32-.6h32.52v2.76H261.6c-6.72,0-8.28,0-11.4-.36V130.2a113.93,113.93,0,0,1,12.12-.48h27.36v1.32c0,1.92-.72,2.28-3.6,2.28a147.874,147.874,0,0,1-15.84-.96c3.48,6.24,4.68,9.84,5.88,17.28,4.44.24,7.68.36,10.8.36,11.4,0,17.28-1.2,20.16-3.84,2.4-2.4,3.24-5.88,3.24-13.32v-3.12h18.96v4.68H350.4a109.3,109.3,0,0,1-.6-13.92v-5.16a44.669,44.669,0,0,1,7.2.6V99.24a38.428,38.428,0,0,1-7.2.6v-3a89.533,89.533,0,0,1,.36-11.16c-3,.36-4.44.36-11.88.36H310.32V83.4h27.36c3.84,0,6.6.12,9.48.36a76.033,76.033,0,0,1-.36-8.28V67.44c0-3.6.12-6.36.36-8.76-2.88.24-5.52.36-10.56.36H310.32V56.4h30.84a129.347,129.347,0,0,1,14.76.6V39.6a141.908,141.908,0,0,1-16.2.72H310.44a24.742,24.742,0,0,1,.6-4.68H288.96a31.214,31.214,0,0,1,.6,4.68h-28.8a139.941,139.941,0,0,1-16.32-.72V57a131.619,131.619,0,0,1,14.88-.6h30.36v2.64H264.12c-5.04,0-7.68-.12-11.04-.36.24,2.76.36,5.28.36,8.76v8.04c0,3.24-.12,5.76-.36,8.28,3.24-.24,6-.36,10.68-.36h25.92v2.64H261.24c-5.28,0-8.04-.12-11.04-.36V98.4c3.6-.24,6.6-.36,10.8-.36h28.68Zm20.64,0V98.04h18.96v2.64Zm0,13.8h18.96v2.76H310.32ZM289.68,69.72v3h-16.2v-3Zm20.64,0h16.44v3H310.32Zm59.16-4.92c.12,2.28.24,5.16.24,8.28v28.2a110.065,110.065,0,0,1-.6,13.56h4.2c-2.76,8.76-5.64,13.8-11.76,21.12l18.24,12a81.8,81.8,0,0,0,11.16-25.32V136.2c0,7.2,2.28,9.96,9.24,11.28,4.32.72,8.52.96,21.12.96,14.76,0,21-.6,24.48-2.16,4.44-2.16,6.36-5.64,7.44-13.8A117.771,117.771,0,0,1,459.36,147l18.84-10.68a141.192,141.192,0,0,0-13.8-22.08c6-.96,8.76-2.4,11.04-5.64,1.8-2.64,2.64-6.12,3.12-13.8a89.583,89.583,0,0,1-16.2-2.64c2.52-.48,5.64-1.08,8.76-1.8.72-.12,2.64-.6,5.76-1.2L463.8,75.24c5.16-.6,7.68-1.56,9.84-3.6,3-3,4.08-6.12,4.68-14.64a98.077,98.077,0,0,1-16.92-3.24c3.96-.96,6.6-1.56,11.04-2.76,2.88-.72,3.6-.96,5.76-1.44L463.32,35.04a68.455,68.455,0,0,1-21.12,7.2,53.1,53.1,0,0,1,.48-7.08H420.84a82.954,82.954,0,0,1,.48,11.16c-2.16-3.24-4.08-6-7.08-9.96l-15,6.72c1.32,2.04,1.44,2.16,2.64,4.08-4.08.24-4.08.24-7.08.36a66.8,66.8,0,0,0,4.32-6.36c2.52-4.08,2.52-4.08,3.12-4.92L381.12,33.6a61.813,61.813,0,0,1-7.44,14.52h-3a44.4,44.4,0,0,1-5.88-.24l1.68,17.28Zm24.48-2.28c6.48-.6,10.68-1.08,15.6-1.56.84,1.68,1.08,2.16,1.68,3.6H376.92a20.864,20.864,0,0,1-3.48-.24Zm27.36-1.56v1.8c0,7.8,2.4,10.68,10.56,12.36H420.84a84.341,84.341,0,0,1,.48,10.56V102c0,3.84.48,5.88,2.04,8.28l-9.48,4.56c4.44,5.64,5.76,7.8,8.28,13.2l11.16-5.76c-.12,3.6-.36,5.28-.84,6.12-.96,1.32-3.84,1.8-11.04,1.8-8.64,0-9.84-.36-9.84-2.88V116.88a24.816,24.816,0,0,1,.36-4.2,10.5,10.5,0,0,0,5.28-4.2c1.2-1.92,1.56-3.96,1.56-9V74.16c0-6,0-7.56.36-10.2a46.576,46.576,0,0,1-4.8.36ZM390.6,111.84a77.5,77.5,0,0,1,.36,7.8v.96l-14.64-5.76h13.92a86.594,86.594,0,0,1-.24-8.88v-5.52h8.76v1.2c0,1.68-.48,2.16-2.28,2.16a28.261,28.261,0,0,1-3-.12c-.36,0-.96-.12-1.68-.12a29.121,29.121,0,0,1,2.76,8.28Zm-.6-23.4h8.76v3.24H390Zm8.76-8.76H390V76.44h8.76Zm47.04,40.44c1.44,2.04,1.92,2.64,3,4.32a70.662,70.662,0,0,1-12.96-3.48l4.8-2.52c-1.08-1.68-1.32-2.16-2.28-3.48a52.292,52.292,0,0,0,6.48.24c5.76,0,8.28,0,12.12-.24Zm-3.24-44.28h3.12c7.8,0,11.88-.12,15.84-.36a59.706,59.706,0,0,1-19.32,5.04C442.32,78.48,442.44,77.16,442.56,75.84ZM442.2,94.8c8.4-.84,9.12-.96,17.28-2.16-.36,5.16-.96,5.64-8.52,5.64-7.92,0-8.76-.36-8.76-3.24Zm0-37.8c6.96-.84,11.76-1.68,17.64-2.88-.12,2.52-.6,4.32-1.32,5.04-.84.84-3.36,1.2-9.72,1.2C443.16,60.36,442.32,59.88,442.2,57Zm46.92,10.92h2.04c.6,0,2.16,0,4.44.12a44.139,44.139,0,0,0,4.68.12c1.32,0,1.56,0,7.68.24-6.96,11.76-14.76,21-23.04,27.24l17.88,17.64a84.2,84.2,0,0,1,15.72-15.6c7.2-5.52,13.08-8.16,18.12-8.16a4.41,4.41,0,0,1,3,.84c-8.16,3.6-12.72,6-16.92,8.88-10.44,7.32-15.48,15.12-15.48,24.12,0,9.36,5.04,16.44,14.4,20.4,5.52,2.28,14.16,3.48,24.6,3.48a266.59,266.59,0,0,0,31.32-2.04,90.555,90.555,0,0,1,11.16-.84l-1.56-25.44c-10.68,4.08-25.92,6.48-40.08,6.48-10.2,0-13.8-1.32-13.8-4.92,0-3.12,2.52-5.64,9.12-8.76-.12,6.96-.12,7.56-.6,10.2l23.4-.6a99.7,99.7,0,0,1-.48-11.4c0-1.32,0-1.32-.12-6.24,14.52-4.32,24.24-6.72,30.12-7.44l-8.28-22.2c-2.4,1.08-2.4,1.08-24.36,8.04-2.76-7.44-8.76-10.92-18.72-10.92a35.866,35.866,0,0,0-13.92,2.4c1.56-2.28,1.92-3,3.24-5.28,13.08-.36,28.44-1.2,37.56-2.16,2.76-.24,4.56-.36,5.04-.48,3.72-.24,3.72-.24,4.8-.24l-.84-22.44c-6.24,1.56-18.96,2.88-36.84,3.96q2.88-7.38,4.32-10.08l-25.8-1.68c-.36,3.84-1.08,6.48-3.12,12.36-18.36-.12-22.68-.48-28.32-1.8Z" transform="matrix(0.985, -0.174, 0.174, 0.985, 95.738, 345)" fill="#fff"/>
    <g id="グループ_9565" data-name="グループ 9565" transform="matrix(0.985, -0.174, 0.174, 0.985, -103.336, 765.019)">
      <path id="パス_6488" data-name="パス 6488" d="M39.767-31.654c-.133-2.261-.133-4.123-.133-5.985,0-3.059.133-5.852.532-11.039l3.192-40.3c.532-7.315.931-11.3,1.862-19.019H8.246c.931,8.512,1.33,12.5,1.862,19.019l3.192,40.3c.665,8.113.665,8.512.665,9.709a59.129,59.129,0,0,1-.266,7.315Zm2.66,37.24V-23.807H11.039V5.586Zm50.806-37.24c-.133-2.261-.133-4.123-.133-5.985,0-3.059.133-5.852.532-11.039l3.192-40.3c.532-7.315.931-11.3,1.862-19.019H61.712c.931,8.512,1.33,12.5,1.862,19.019l3.192,40.3c.665,8.113.665,8.512.665,9.709a59.129,59.129,0,0,1-.266,7.315Zm2.66,37.24V-23.807H64.5V5.586Z" transform="translate(804.796 -82.888)" fill="#00347f"/>
      <path id="パス_6486" data-name="パス 6486" d="M38.055-93.783a190.845,190.845,0,0,0-18.7-17.673L2.064-94.686c10.965,9.675,17.157,16.254,24.51,25.8L40.893-83.463c2.838-.129,5.289-.258,9.933-.258H69.015v2.967H53.922a112.875,112.875,0,0,1-13.287-.516,104.311,104.311,0,0,1,.516,11.481V-54.7a104.311,104.311,0,0,1-.516,11.481,116.061,116.061,0,0,1,13.158-.516h3.741A65.964,65.964,0,0,1,38.442-32.766V-49.407a135.373,135.373,0,0,1,.516-14.964,74.592,74.592,0,0,1-9.933.516H14.706A68.648,68.648,0,0,1,3.741-64.5v22.962a47.254,47.254,0,0,1,7.611-.645h4.515v22.575c-6.321,3.87-12.384,7.095-14.835,7.74l9.675,24.639c.9-.645,2.064-1.419,2.709-1.806A116.845,116.845,0,0,0,28.122.516a31.247,31.247,0,0,0,11.61,7.611c6.837,2.58,15.093,3.225,38.571,3.225,15.609,0,34.056-.258,44.634-.645a116.041,116.041,0,0,1,5.289-24.639c-4.515.645-5.418.774-9.675,1.161a88.417,88.417,0,0,1,9.159-20.253C117-35.6,109.65-38.958,104.232-43.731h4.257a106.83,106.83,0,0,1,12.9.516,99.875,99.875,0,0,1-.516-11.481V-69.789a98.445,98.445,0,0,1,.516-11.481,106.077,106.077,0,0,1-12.642.516H91.59v-2.967h20.124a115.76,115.76,0,0,1,12.771.516v-21.543c-5.16.645-8.772.774-17.415.774H91.59v-2.193a18.993,18.993,0,0,1,.516-4.644H68.5a34.91,34.91,0,0,1,.516,5.934v.9H55.47a127.461,127.461,0,0,1-17.415-.774Zm.387,65.661a80.266,80.266,0,0,1,9.933,15.738c-4-1.032-6.192-2.451-9.933-6.321ZM69.015-20a30.265,30.265,0,0,1-.516,6.45H92.106a27.719,27.719,0,0,1-.516-6.192V-22.7a25.336,25.336,0,0,0-.129-4.128v-.9a61.765,61.765,0,0,0,14.706,10.707,56.675,56.675,0,0,0,9.417,4.515c-11.223,1.032-26.7,1.548-43.344,1.548-12.513,0-17.931-.258-23.478-1.29,9.8-4.9,14.706-8.772,20.382-15.48a45.757,45.757,0,0,0-.129,4.644ZM91.59-60.243v-4h6.579v4Zm-22.575-4v4H62.823v-4Zm185.5-30.315a127.89,127.89,0,0,1-15.48.645H214.656c1.032-3.483,1.548-5.805,2.451-9.933.645-2.709.774-3.354,1.161-4.644l-24.252-3.354c-.129,6.192-.9,10.062-4.128,19.995C185.244-77.787,179.568-68.5,169.506-58.7c6.063,5.805,9.546,10.191,14.835,18.963,2.838-3.1,3.741-4.128,5.547-6.45a83.692,83.692,0,0,0,10.836,22.446c-9.288,8.256-18.447,12.9-32.637,16.254a79.928,79.928,0,0,1,10.836,21.156C189.243,10.707,195.177,8,203.175,2.709a76.148,76.148,0,0,0,11.868-9.417,93.182,93.182,0,0,0,29.8,19.995c3.225-9.8,6.45-16.512,12-24.123-11.352-4.257-18.7-8.385-26.316-14.577a98.429,98.429,0,0,0,15.093-46.311,73.335,73.335,0,0,1,8.9.516ZM222.654-71.724A72.34,72.34,0,0,1,215.3-42.957c-5.16-8.385-8.127-15.867-10.449-26.7a10.284,10.284,0,0,0,1.032-2.064Zm-76.5-7.1v49.536c-9.675,2.064-10.449,2.193-13.932,2.451L136.74-2.838a57.315,57.315,0,0,1,6.321-2.322c13.674-3.87,23.865-6.966,39.99-12.384l-.129-21.414c-6.579,1.935-6.579,1.935-14.19,4.128V-78.819h4.9a49.584,49.584,0,0,1,7.611.516v-22.962a86.853,86.853,0,0,1-12.771.645H146.931a83.7,83.7,0,0,1-12.771-.645V-78.3a81.35,81.35,0,0,1,8.514-.516ZM320.952-34.314a90.323,90.323,0,0,1,13.545,6.45,96.61,96.61,0,0,1-11.61-.516V-6.192a81.662,81.662,0,0,1,12.771-.645h7.482v4.773a92.262,92.262,0,0,1-.774,14.706h24.639a89.426,89.426,0,0,1-.774-14.706V-6.837h4.515a82.677,82.677,0,0,1,12.771.645V-28.38a109.94,109.94,0,0,1-12.771.516h-4.515v-5.16h5.16c4.257,0,7.224.129,10.32.387V-54.309c-2.322.516-5.031.645-10.32.645h-5.16v-7.224c5.16-.645,7.869-1.677,9.933-3.741,3.225-3.483,5.16-11.868,5.676-24.123.516-15.609.645-16.512,1.161-19.608a85.288,85.288,0,0,1-10.965.516H336.561a119.294,119.294,0,0,1-14.706-.645v12.126l-8.385-9.417a23.446,23.446,0,0,1-5.8.516h-9.933c.516-1.161.645-1.548,1.29-2.838l-23.994-3.612a52.939,52.939,0,0,1-3.483,12.126,79.531,79.531,0,0,1-12.384,22.059c3.225,2.322,4.257,3.1,6.192,4.644.129,4.128.129,6.063.129,12,0,33.411-1.29,44.634-6.579,55.083A125.629,125.629,0,0,1,274.77,12c4.773-9.675,6.579-15.867,8-28.9h20.511v5.8c0,2.064-1.161,2.58-6.321,2.58-1.29,0-4.515-.129-8.9-.516,2.967,7.611,4,12.255,4.9,20.9h5.16c11.094,0,14.835-.645,17.931-2.967,3.483-2.709,4.9-6.45,4.9-13.416Zm0-36.12a85.763,85.763,0,0,1,6.579,8.385l-3.87-.774a20.928,20.928,0,0,1,.129,2.967,86.63,86.63,0,0,1-2.838,19.092ZM288.444-81.141c1.29-2.709,1.29-2.709,1.935-4.128h5.031c-.9,2.064-1.161,2.58-1.935,4.128Zm33.411-5.418a57.5,57.5,0,0,1,9.675-.516c-2.064,5.418-5.289,9.159-10.578,12.513a47.127,47.127,0,0,1,.258-6.966c-1.548.129-2.58.258-5.8.387,2.709-4.773,4.386-8,5.418-10.191a15.315,15.315,0,0,1,1.032-2.064ZM283.671-35.346l.129-4.515h3.483v4.515Zm19.608,0h-3.225v-4.515h3.225Zm0-22.059h-3.225V-61.92h3.225Zm-16-4.515V-57.4h-3.225V-61.92ZM338.5-59.6a47.752,47.752,0,0,0,10.449-13.287,54.713,54.713,0,0,1,1.806,8.643h-6.708a33.712,33.712,0,0,1,.645,8v2.58h-2.967c.258-1.806.258-2.58.516-5.16Zm4.644,31.734h-5.676c.774-3.1.774-3.1,1.161-5.16h4.515Zm15.867-59.211c-.516,5.676-1.29,6.966-4.515,6.966-.387,0-.387,0-2.322-.129.774-2.193,1.032-2.838,2.193-6.837ZM449.823-74.3c-.129,9.8-.129,14.706-.129,14.835h-8.127a143.957,143.957,0,0,1-16.125-.645v22.962a136.523,136.523,0,0,1,16.254-.774H447.5a41.955,41.955,0,0,1-15.222,22.059c-4.773,3.612-8.127,5.418-14.964,8,2.838-8,4-12.126,6.966-23.22L405.447-44.247C399.771-24.639,394.1-11.352,388.419-4.515L408.285,12.9c4.128-7.869,5.418-10.965,8.9-20.511a85.938,85.938,0,0,1,13.8,21.285c17.931-9.546,27.735-19.221,34.572-34.185C472.269-7.482,485.814,4.515,503.1,12.642a151.122,151.122,0,0,1,11.223-24.768c-16.77-5.418-27.219-12.9-35.475-25.8h17.8a145.91,145.91,0,0,1,16.254.774V-60.243c-2.58.387-3.87.387-8.127.645v-27.09a66.6,66.6,0,0,1,.516-9.417,106.828,106.828,0,0,1-12.9.516H473.3c0-10.836,0-10.836.774-14.706h-24.9a62.384,62.384,0,0,1,.774,10.836v3.87h-4a143.026,143.026,0,0,1-15.48-.645V-95.2a189.788,189.788,0,0,0-24.381-16.125l-14.319,16.9a168.487,168.487,0,0,1,24.123,17.8l14.577-18.447v21.414a129.2,129.2,0,0,1,15.48-.645Zm32.25,0v14.835h-9.288c.258-6.063.387-8.772.387-14.835ZM388.935-60.888A208.584,208.584,0,0,1,413.7-43.731l12.9-19.092a178.389,178.389,0,0,0-24.51-15.48Z" transform="translate(279.462 -88.501)" fill="#00347f"/>
    </g>
    <g id="グループ_9564" data-name="グループ 9564" transform="matrix(0.985, -0.174, 0.174, 0.985, -95.952, 705.589)">
      <path id="パス_6487" data-name="パス 6487" d="M39.767-31.654c-.133-2.261-.133-4.123-.133-5.985,0-3.059.133-5.852.532-11.039l3.192-40.3c.532-7.315.931-11.3,1.862-19.019H8.246c.931,8.512,1.33,12.5,1.862,19.019l3.192,40.3c.665,8.113.665,8.512.665,9.709a59.129,59.129,0,0,1-.266,7.315Zm2.66,37.24V-23.807H11.039V5.586Zm50.806-37.24c-.133-2.261-.133-4.123-.133-5.985,0-3.059.133-5.852.532-11.039l3.192-40.3c.532-7.315.931-11.3,1.862-19.019H61.712c.931,8.512,1.33,12.5,1.862,19.019l3.192,40.3c.665,8.113.665,8.512.665,9.709a59.129,59.129,0,0,1-.266,7.315Zm2.66,37.24V-23.807H64.5V5.586Z" transform="translate(775.28 -33.471)" fill="#ffe935"/>
      <path id="パス_6485" data-name="パス 6485" d="M38.055-93.783a190.845,190.845,0,0,0-18.7-17.673L2.064-94.686c10.965,9.675,17.157,16.254,24.51,25.8L40.893-83.463c2.838-.129,5.289-.258,9.933-.258H69.015v2.967H53.922a112.875,112.875,0,0,1-13.287-.516,104.311,104.311,0,0,1,.516,11.481V-54.7a104.311,104.311,0,0,1-.516,11.481,116.061,116.061,0,0,1,13.158-.516h3.741A65.964,65.964,0,0,1,38.442-32.766V-49.407a135.373,135.373,0,0,1,.516-14.964,74.592,74.592,0,0,1-9.933.516H14.706A68.648,68.648,0,0,1,3.741-64.5v22.962a47.254,47.254,0,0,1,7.611-.645h4.515v22.575c-6.321,3.87-12.384,7.095-14.835,7.74l9.675,24.639c.9-.645,2.064-1.419,2.709-1.806A116.845,116.845,0,0,0,28.122.516a31.247,31.247,0,0,0,11.61,7.611c6.837,2.58,15.093,3.225,38.571,3.225,15.609,0,34.056-.258,44.634-.645a116.041,116.041,0,0,1,5.289-24.639c-4.515.645-5.418.774-9.675,1.161a88.417,88.417,0,0,1,9.159-20.253C117-35.6,109.65-38.958,104.232-43.731h4.257a106.83,106.83,0,0,1,12.9.516,99.875,99.875,0,0,1-.516-11.481V-69.789a98.445,98.445,0,0,1,.516-11.481,106.077,106.077,0,0,1-12.642.516H91.59v-2.967h20.124a115.76,115.76,0,0,1,12.771.516v-21.543c-5.16.645-8.772.774-17.415.774H91.59v-2.193a18.993,18.993,0,0,1,.516-4.644H68.5a34.91,34.91,0,0,1,.516,5.934v.9H55.47a127.461,127.461,0,0,1-17.415-.774Zm.387,65.661a80.266,80.266,0,0,1,9.933,15.738c-4-1.032-6.192-2.451-9.933-6.321ZM69.015-20a30.265,30.265,0,0,1-.516,6.45H92.106a27.719,27.719,0,0,1-.516-6.192V-22.7a25.336,25.336,0,0,0-.129-4.128v-.9a61.765,61.765,0,0,0,14.706,10.707,56.675,56.675,0,0,0,9.417,4.515c-11.223,1.032-26.7,1.548-43.344,1.548-12.513,0-17.931-.258-23.478-1.29,9.8-4.9,14.706-8.772,20.382-15.48a45.757,45.757,0,0,0-.129,4.644ZM91.59-60.243v-4h6.579v4Zm-22.575-4v4H62.823v-4Zm185.5-30.315a127.89,127.89,0,0,1-15.48.645H214.656c1.032-3.483,1.548-5.805,2.451-9.933.645-2.709.774-3.354,1.161-4.644l-24.252-3.354c-.129,6.192-.9,10.062-4.128,19.995C185.244-77.787,179.568-68.5,169.506-58.7c6.063,5.805,9.546,10.191,14.835,18.963,2.838-3.1,3.741-4.128,5.547-6.45a83.692,83.692,0,0,0,10.836,22.446c-9.288,8.256-18.447,12.9-32.637,16.254a79.928,79.928,0,0,1,10.836,21.156C189.243,10.707,195.177,8,203.175,2.709a76.148,76.148,0,0,0,11.868-9.417,93.182,93.182,0,0,0,29.8,19.995c3.225-9.8,6.45-16.512,12-24.123-11.352-4.257-18.7-8.385-26.316-14.577a98.429,98.429,0,0,0,15.093-46.311,73.335,73.335,0,0,1,8.9.516ZM222.654-71.724A72.34,72.34,0,0,1,215.3-42.957c-5.16-8.385-8.127-15.867-10.449-26.7a10.284,10.284,0,0,0,1.032-2.064Zm-76.5-7.1v49.536c-9.675,2.064-10.449,2.193-13.932,2.451L136.74-2.838a57.315,57.315,0,0,1,6.321-2.322c13.674-3.87,23.865-6.966,39.99-12.384l-.129-21.414c-6.579,1.935-6.579,1.935-14.19,4.128V-78.819h4.9a49.584,49.584,0,0,1,7.611.516v-22.962a86.853,86.853,0,0,1-12.771.645H146.931a83.7,83.7,0,0,1-12.771-.645V-78.3a81.35,81.35,0,0,1,8.514-.516ZM320.952-34.314a90.323,90.323,0,0,1,13.545,6.45,96.61,96.61,0,0,1-11.61-.516V-6.192a81.662,81.662,0,0,1,12.771-.645h7.482v4.773a92.262,92.262,0,0,1-.774,14.706h24.639a89.426,89.426,0,0,1-.774-14.706V-6.837h4.515a82.677,82.677,0,0,1,12.771.645V-28.38a109.94,109.94,0,0,1-12.771.516h-4.515v-5.16h5.16c4.257,0,7.224.129,10.32.387V-54.309c-2.322.516-5.031.645-10.32.645h-5.16v-7.224c5.16-.645,7.869-1.677,9.933-3.741,3.225-3.483,5.16-11.868,5.676-24.123.516-15.609.645-16.512,1.161-19.608a85.288,85.288,0,0,1-10.965.516H336.561a119.294,119.294,0,0,1-14.706-.645v12.126l-8.385-9.417a23.446,23.446,0,0,1-5.8.516h-9.933c.516-1.161.645-1.548,1.29-2.838l-23.994-3.612a52.939,52.939,0,0,1-3.483,12.126,79.531,79.531,0,0,1-12.384,22.059c3.225,2.322,4.257,3.1,6.192,4.644.129,4.128.129,6.063.129,12,0,33.411-1.29,44.634-6.579,55.083A125.629,125.629,0,0,1,274.77,12c4.773-9.675,6.579-15.867,8-28.9h20.511v5.8c0,2.064-1.161,2.58-6.321,2.58-1.29,0-4.515-.129-8.9-.516,2.967,7.611,4,12.255,4.9,20.9h5.16c11.094,0,14.835-.645,17.931-2.967,3.483-2.709,4.9-6.45,4.9-13.416Zm0-36.12a85.763,85.763,0,0,1,6.579,8.385l-3.87-.774a20.928,20.928,0,0,1,.129,2.967,86.63,86.63,0,0,1-2.838,19.092ZM288.444-81.141c1.29-2.709,1.29-2.709,1.935-4.128h5.031c-.9,2.064-1.161,2.58-1.935,4.128Zm33.411-5.418a57.5,57.5,0,0,1,9.675-.516c-2.064,5.418-5.289,9.159-10.578,12.513a47.127,47.127,0,0,1,.258-6.966c-1.548.129-2.58.258-5.8.387,2.709-4.773,4.386-8,5.418-10.191a15.315,15.315,0,0,1,1.032-2.064ZM283.671-35.346l.129-4.515h3.483v4.515Zm19.608,0h-3.225v-4.515h3.225Zm0-22.059h-3.225V-61.92h3.225Zm-16-4.515V-57.4h-3.225V-61.92ZM338.5-59.6a47.752,47.752,0,0,0,10.449-13.287,54.713,54.713,0,0,1,1.806,8.643h-6.708a33.712,33.712,0,0,1,.645,8v2.58h-2.967c.258-1.806.258-2.58.516-5.16Zm4.644,31.734h-5.676c.774-3.1.774-3.1,1.161-5.16h4.515Zm15.867-59.211c-.516,5.676-1.29,6.966-4.515,6.966-.387,0-.387,0-2.322-.129.774-2.193,1.032-2.838,2.193-6.837ZM449.823-74.3c-.129,9.8-.129,14.706-.129,14.835h-8.127a143.957,143.957,0,0,1-16.125-.645v22.962a136.523,136.523,0,0,1,16.254-.774H447.5a41.955,41.955,0,0,1-15.222,22.059c-4.773,3.612-8.127,5.418-14.964,8,2.838-8,4-12.126,6.966-23.22L405.447-44.247C399.771-24.639,394.1-11.352,388.419-4.515L408.285,12.9c4.128-7.869,5.418-10.965,8.9-20.511a85.938,85.938,0,0,1,13.8,21.285c17.931-9.546,27.735-19.221,34.572-34.185C472.269-7.482,485.814,4.515,503.1,12.642a151.122,151.122,0,0,1,11.223-24.768c-16.77-5.418-27.219-12.9-35.475-25.8h17.8a145.91,145.91,0,0,1,16.254.774V-60.243c-2.58.387-3.87.387-8.127.645v-27.09a66.6,66.6,0,0,1,.516-9.417,106.828,106.828,0,0,1-12.9.516H473.3c0-10.836,0-10.836.774-14.706h-24.9a62.384,62.384,0,0,1,.774,10.836v3.87h-4a143.026,143.026,0,0,1-15.48-.645V-95.2a189.788,189.788,0,0,0-24.381-16.125l-14.319,16.9a168.487,168.487,0,0,1,24.123,17.8l14.577-18.447v21.414a129.2,129.2,0,0,1,15.48-.645Zm32.25,0v14.835h-9.288c.258-6.063.387-8.772.387-14.835ZM388.935-60.888A208.584,208.584,0,0,1,413.7-43.731l12.9-19.092a178.389,178.389,0,0,0-24.51-15.48Z" transform="translate(254.973 -40.397)" fill="#ffe935"/>
    </g>
  </g>
</svg>
