<svg xmlns="http://www.w3.org/2000/svg" xmlns:xlink="http://www.w3.org/1999/xlink" width="331.754" height="230.97" viewBox="0 0 331.754 230.97">
  <defs>
    <linearGradient id="linear-gradient" x1="1" x2="0" y2="0.907" gradientUnits="objectBoundingBox">
      <stop offset="0" stop-color="#ba0505"/>
      <stop offset="1" stop-color="#ff072d"/>
    </linearGradient>
    <filter id="パス_6464" x="0" y="0" width="331.754" height="230.97" filterUnits="userSpaceOnUse">
      <feOffset dy="4" input="SourceAlpha"/>
      <feGaussianBlur stdDeviation="10" result="blur"/>
      <feFlood flood-opacity="0.161"/>
      <feComposite operator="in" in2="blur"/>
      <feComposite in="SourceGraphic"/>
    </filter>
  </defs>
  <g id="グループ_9653" data-name="グループ 9653" transform="translate(-785.246 -353.515)">
    <g transform="matrix(1, 0, 0, 1, 785.25, 353.51)" filter="url(#パス_6464)">
      <g id="パス_6464-2" data-name="パス 6464" transform="translate(34 30)" fill="url(#linear-gradient)">
        <path d="M 255.7536315917969 164.9703674316406 L 7.999994277954102 164.9703674316406 C 2.485958576202393 164.9703674316406 -2.000005722045898 160.4844055175781 -2.000005722045898 154.9703674316406 L -2.000005722045898 8.000004768371582 C -2.000005722045898 2.485969543457031 2.485958576202393 -1.999994874000549 7.999994277954102 -1.999994874000549 L 255.7536315917969 -1.999994874000549 C 261.2676696777344 -1.999994874000549 265.7536315917969 2.485969543457031 265.7536315917969 8.000004768371582 L 265.7536315917969 154.9703674316406 C 265.7536315917969 160.4844055175781 261.2676696777344 164.9703674316406 255.7536315917969 164.9703674316406 Z" stroke="none"/>
        <path d="M 8 0 C 3.581695556640625 0 0 3.58172607421875 0 8 L 0 154.9703674316406 C 0 159.3886413574219 3.581695556640625 162.9703674316406 8 162.9703674316406 L 255.7536315917969 162.9703674316406 C 260.171875 162.9703674316406 263.7536315917969 159.3886413574219 263.7536315917969 154.9703674316406 L 263.7536315917969 8 C 263.7536315917969 3.58172607421875 260.171875 0 255.7536315917969 0 L 8 0 M 8 -4 L 255.7536315917969 -4 C 258.9589538574219 -4 261.9723815917969 -2.751785278320312 264.2388916015625 -0.4852752685546875 C 266.5054321289062 1.781219482421875 267.7536315917969 4.794677734375 267.7536315917969 8 L 267.7536315917969 154.9703674316406 C 267.7536315917969 158.1756896972656 266.5054321289062 161.1891479492188 264.2388916015625 163.4556427001953 C 261.9723815917969 165.7221527099609 258.9589538574219 166.9703674316406 255.7536315917969 166.9703674316406 L 8 166.9703674316406 C 4.794677734375 166.9703674316406 1.781219482421875 165.7221527099609 -0.48529052734375 163.4556427001953 C -2.751800537109375 161.1891479492188 -4 158.1756896972656 -4 154.9703674316406 L -4 8 C -4 4.794677734375 -2.751800537109375 1.781219482421875 -0.48529052734375 -0.4852752685546875 C 1.781219482421875 -2.751785278320312 4.794677734375 -4 8 -4 Z" stroke="none" fill="#fff"/>
      </g>
    </g>
    <g id="グループ_9566" data-name="グループ 9566" transform="translate(842.615 405.038)">
      <path id="パス_6501" data-name="パス 6501" d="M11.585-15.61h.805a20.362,20.362,0,0,1,2.66.14v-2.695a18.1,18.1,0,0,1-2.66.14h-.805v-2.52h.805a19.356,19.356,0,0,1,2.66.14V-23.1a19.033,19.033,0,0,1-2.66.14h-.805v-2.59H12.74a19.228,19.228,0,0,1,3.08.175V-28.21a28.308,28.308,0,0,1-3.71.175H6.79A25.6,25.6,0,0,1,2.9-28.21a36.4,36.4,0,0,1,.14,4.025v10.43a26.827,26.827,0,0,1-.14,3.5c.98-.07,1.855-.105,3.15-.105H13.09a62.079,62.079,0,0,1-.455,7.84C12.39-.77,12.075-.35,11.1-.35A14.991,14.991,0,0,1,8.085-.7a7.278,7.278,0,0,1,.49,2.94,20.61,20.61,0,0,0,2.31.14C13.02,2.38,14,1.925,14.49.7c.665-1.575,1.085-5.04,1.26-9.975.07-2.94.07-2.94.14-3.64a20.4,20.4,0,0,1-3.045.14h-1.26Zm-2.52,0v2.835H5.81V-15.61Zm0-2.415H5.81v-2.52H9.065Zm0-4.935H5.81v-2.59H9.065ZM32.62-6.055a78.847,78.847,0,0,0-4.2-7.035,67.308,67.308,0,0,0,2.31-7.245c.385-1.435.525-1.89.735-2.485l-3.08-.77a31.314,31.314,0,0,1-1.89,7.7c-1.4-2.03-1.505-2.17-4.27-5.67L20.16-19.53a71.442,71.442,0,0,1,5.04,6.79,30.93,30.93,0,0,1-5.04,7.945,7.123,7.123,0,0,1,2.31,2.17A36.744,36.744,0,0,0,26.985-9.94a52.067,52.067,0,0,1,3.29,6.055Zm.525-21.84a22.288,22.288,0,0,1-3.57.245h-9.66c-1.365,0-2.31-.035-3.08-.1a29.221,29.221,0,0,1,.14,3.185V-1.05a29.318,29.318,0,0,1-.21,3.745H19.95V1.015h9.975a25.578,25.578,0,0,1,3.535.21V-2.03a23.025,23.025,0,0,1-3.5.245H19.95v-23.1h9.8a22.147,22.147,0,0,1,3.4.21ZM3.08-9.17A26.013,26.013,0,0,1,1.19-.105l2.1.98c1.12-3.01,1.435-4.62,1.855-9.59Zm2.52.525A49.219,49.219,0,0,1,5.915-3.08c0,.84,0,1.4-.07,2.695L7.77-.7a61.724,61.724,0,0,0-.56-8.155ZM7.945-8.75a33.371,33.371,0,0,1,.98,6.895l1.68-.455A42.356,42.356,0,0,0,9.45-8.995Zm2.24-.21A23.657,23.657,0,0,1,11.41-4.025l1.4-.665a22.953,22.953,0,0,0-1.3-4.655Zm38.36-8.155h.525a4.247,4.247,0,0,1,.63.035c1.96.07,2.94.1,4.025.1,1.68,0,3.885-.07,5.04-.175.035,1.12.035,1.435.035,1.855,0,4.935-.315,6.965-1.3,8.96-1.19,2.31-3.29,4.13-6.475,5.6A10.4,10.4,0,0,1,53.83,2c4.76-2.73,6.755-5.25,7.805-9.835a39.49,39.49,0,0,0,.6-8.015c0-.42,0-.8-.035-1.61A21.618,21.618,0,0,0,65.8-18.1c1.19-.28,1.33-.28,1.89-.385l-.175-3.465a20.223,20.223,0,0,1-5.39,1.4c-.07-2.31-.105-3.64-.14-4.06-.07-1.925-.07-2.1-.07-2.415a7.217,7.217,0,0,1,.07-1.155l-3.745.07c.21,1.155.21,1.54.455,7.875-1.715.14-2.555.175-3.99.175a29.33,29.33,0,0,1-6.125-.455Zm-6.79-10.6a14.53,14.53,0,0,1-.28,2.52,76,76,0,0,0-1.33,13.3A46.136,46.136,0,0,0,41.44-.875c.14.665.175.8.245,1.26L45.045.21c.07-2.31,1.575-6.65,3.85-10.99l-2.59-1.26a38.673,38.673,0,0,0-2.52,6.405c-.175-3.675-.245-5.775-.245-6.23a57.594,57.594,0,0,1,2.135-15.4ZM74.2-16.8a14.18,14.18,0,0,1,2.695-.945c5.81-1.68,10.36-2.485,14.035-2.485,4.62,0,7.315,2.2,7.315,5.985s-2.835,6.86-7.735,8.47A32.261,32.261,0,0,1,81.06-4.41a12.192,12.192,0,0,1,1.5,3.78c5.95-.6,8.82-1.26,12-2.835,4.865-2.38,7.56-6.23,7.56-10.85,0-5.7-4.305-9.38-11.025-9.38a45.757,45.757,0,0,0-10.15,1.225c-6.65,1.47-6.65,1.47-7.63,1.54Zm45.045-.315h.525a4.247,4.247,0,0,1,.63.035c1.96.07,2.94.1,4.025.1,1.68,0,3.885-.07,5.04-.175.035,1.12.035,1.435.035,1.855,0,4.935-.315,6.965-1.295,8.96-1.19,2.31-3.29,4.13-6.475,5.6A10.4,10.4,0,0,1,124.53,2c4.76-2.73,6.755-5.25,7.805-9.835a39.49,39.49,0,0,0,.6-8.015c0-.42,0-.8-.035-1.61a21.618,21.618,0,0,0,3.6-.63c1.19-.28,1.33-.28,1.89-.385l-.175-3.465a20.223,20.223,0,0,1-5.39,1.4c-.07-2.31-.1-3.64-.14-4.06-.07-1.925-.07-2.1-.07-2.415a7.218,7.218,0,0,1,.07-1.155l-3.745.07c.21,1.155.21,1.54.455,7.875-1.715.14-2.555.175-3.99.175a29.33,29.33,0,0,1-6.125-.455Zm-6.79-10.6a14.53,14.53,0,0,1-.28,2.52,76,76,0,0,0-1.33,13.3A46.136,46.136,0,0,0,112.14-.875c.14.665.175.8.245,1.26l3.36-.175c.07-2.31,1.575-6.65,3.85-10.99l-2.59-1.26a38.673,38.673,0,0,0-2.52,6.405c-.175-3.675-.245-5.775-.245-6.23a57.594,57.594,0,0,1,2.135-15.4Zm60.13,24.325a12,12,0,0,1-1.225-.8A32.211,32.211,0,0,0,161.735-9.2c-.035-.42-.07-1.995-.175-4.69,2.1-.1,4.62-.315,6.055-.525a30.851,30.851,0,0,1,3.465-.42l-.14-3.29a45.6,45.6,0,0,1-9.415,1.33c-.035-2.765-.035-2.765-.07-3.99,3.255-.175,4.83-.35,7.735-.735a20.058,20.058,0,0,1,2.59-.315l-.14-3.29c-2.205.7-5.18,1.085-10.15,1.4a24.789,24.789,0,0,1,.245-4.55h-3.78a35.012,35.012,0,0,1,.14,4.655c-1.05.035-2.205.035-2.765.035a48.927,48.927,0,0,1-9.24-.665L146.055-21a3.461,3.461,0,0,1,.525-.035,6.9,6.9,0,0,1,.735.035c2.555.175,6.545.35,8.54.35.665,0,1.225,0,2.275-.035l.07,4.025c-1.085.035-2.205.07-2.975.07a44.821,44.821,0,0,1-8.12-.56L147.07-14h.28c.245,0,.56,0,.98.035,2.66.21,3.99.245,6.16.245.91,0,2.38-.035,3.745-.035.035.7.035,1.225.07,1.575,0,.8.035,1.365.035,1.575a2.788,2.788,0,0,0,.035.385v.49a19.164,19.164,0,0,0-2.73-.14c-5.6,0-8.995,2.17-8.995,5.74,0,3.22,2.87,5.145,7.6,5.145,5.11,0,7.56-2,7.56-6.2v-.595c.455.21,1.26.56,1.645.77a24.176,24.176,0,0,1,7.14,5.04ZM158.41-6.58s.035.875.035,1.085a3.8,3.8,0,0,1-.49,2.24q-.84,1.26-3.57,1.26c-2.7,0-4.2-.8-4.2-2.275a2.015,2.015,0,0,1,.63-1.435,7.136,7.136,0,0,1,4.41-1.19A13.294,13.294,0,0,1,158.41-6.58Zm21.21-13.545c2.205-.35,10.64-.805,16.205-.875l.035,1.89v1.5a2.963,2.963,0,0,1,.035.455,5.362,5.362,0,0,0-3.71-1.19c-3.92,0-6.72,2.555-6.72,6.125a5.854,5.854,0,0,0,6.16,5.88,5.48,5.48,0,0,0,5.215-2.94c-.21,2.38-1.47,4.27-3.92,5.915a16.142,16.142,0,0,1-5.915,2.275A10.506,10.506,0,0,1,189.14,2.17a23.754,23.754,0,0,0,6.02-2.835,11.256,11.256,0,0,0,4.97-9.31,10.243,10.243,0,0,0-.98-4.62v-6.44c2.8-.07,3.4-.07,4.34-.07a57.574,57.574,0,0,1,5.88.175v-3.395c-1.225.14-3.885.21-10.255.245a28.947,28.947,0,0,1,.175-4.41h-3.71a29,29,0,0,1,.21,4.48c-6.16.175-6.16.175-8.435.245-3.885.175-5.285.21-6.265.21a13.244,13.244,0,0,1-1.575-.07Zm12.845,4.515a3.574,3.574,0,0,1,2.59.945,2.056,2.056,0,0,1,.7,1.715,3.476,3.476,0,0,1-3.675,3.535,2.987,2.987,0,0,1-3.185-3.08A3.289,3.289,0,0,1,192.465-15.61Z" transform="translate(0 115.925)" fill="#fff"/>
      <g id="グループ_9145" data-name="グループ 9145">
        <path id="パス_6498" data-name="パス 6498" d="M5.285-13.65V-2.38c-1.47.105-2.45.175-3.045.175H1.61L2.275.84C3.535.6,4.305.49,6.895.105,10.22-.35,10.535-.42,14.49-1.12v.56a16.709,16.709,0,0,1-.21,3.4h3.29A17.737,17.737,0,0,1,17.36-.6V-13.65H29.995a19.681,19.681,0,0,1,3.5.21v-2.94a17.925,17.925,0,0,1-3.465.21H5.11a17.5,17.5,0,0,1-3.465-.21v2.94a19.3,19.3,0,0,1,3.43-.21Zm2.9,0h6.3v1.96H8.19Zm0,4.165h6.3v2.03H8.19Zm0,4.235h6.3v1.715c-2.59.42-4.3.665-6.3.875ZM30.17-11.9a16.363,16.363,0,0,1-2.66.14H21.385a21.791,21.791,0,0,1-2.975-.14v2.765a19.74,19.74,0,0,1,2.555-.14H22.05l-2.555,1.12a24.076,24.076,0,0,0,3.43,4.865,18.353,18.353,0,0,1-5.39,2.975,7.845,7.845,0,0,1,1.75,2.59,23.9,23.9,0,0,0,5.7-3.57A21.275,21.275,0,0,0,31.85,2.52a12.178,12.178,0,0,1,1.61-2.8,18.347,18.347,0,0,1-6.44-2.94A24.518,24.518,0,0,0,31.115-9.2a11.282,11.282,0,0,1,.6-1.015ZM27.93-9.275A15.568,15.568,0,0,1,24.92-5.04a14.247,14.247,0,0,1-2.835-4.235ZM29.575-25.34a22.209,22.209,0,0,1,.14-2.94c-1.155.1-2.135.14-3.745.14H9.345c-1.61,0-2.59-.035-3.78-.14a22.894,22.894,0,0,1,.14,2.94v4.8a23.6,23.6,0,0,1-.14,2.94c1.155-.1,2.1-.14,3.675-.14H26.32c1.3,0,2.45.035,3.4.105a21.63,21.63,0,0,1-.14-2.905ZM8.715-25.8h17.85v1.785H8.715Zm0,3.99h17.85v1.82H8.715Zm34.125,0c-.035,4.13-.035,4.13-.175,5.915h-2.8a16.818,16.818,0,0,1-3.255-.21v3.4a21.43,21.43,0,0,1,3.255-.21H42.35C41.58-7.735,39.69-4.2,36.12-1.19a8.987,8.987,0,0,1,2.1,2.59,20.707,20.707,0,0,0,5.95-9.205A18.887,18.887,0,0,0,48.545-2.59,9.759,9.759,0,0,1,50.61-5.25a16.8,16.8,0,0,1-5.565-6.195c.105-.63.105-.665.245-1.47h1.89a17.519,17.519,0,0,1,2.87.175v-3.325a16.568,16.568,0,0,1-2.835.175H45.6c.14-1.89.14-1.89.21-5.915h.7a25.444,25.444,0,0,1,3.045.14v-3.15a17.494,17.494,0,0,1-3.045.175H42.14c.35-1.085.63-2.1.77-2.66a11.328,11.328,0,0,1,.42-1.505l-3.115-.56a11.684,11.684,0,0,1-.49,2.835,19.473,19.473,0,0,1-3.6,7.455A7.831,7.831,0,0,1,38.6-17.15a22.217,22.217,0,0,0,2.52-4.655ZM52.4-1.75A22.821,22.821,0,0,1,49-1.925V1.4a22.821,22.821,0,0,1,3.4-.175h12.95a22.312,22.312,0,0,1,3.36.175V-1.925a22.6,22.6,0,0,1-3.36.175H62.51a46.437,46.437,0,0,0,3.08-7.245l-3.08-1.05a40.222,40.222,0,0,1-3.08,8.3ZM50.225-24.4a23.4,23.4,0,0,1,3.4-.175H64.715a23.176,23.176,0,0,1,3.36.175V-27.72a21.753,21.753,0,0,1-3.36.175H53.62a21.977,21.977,0,0,1-3.4-.175Zm16.135,5.81a24.822,24.822,0,0,1,.14-3.01,29.085,29.085,0,0,1-3.325.14h-8.61a29.085,29.085,0,0,1-3.325-.14,25.959,25.959,0,0,1,.14,3.01v5.11a25.482,25.482,0,0,1-.14,2.94,28.007,28.007,0,0,1,3.185-.14H63.28a28.668,28.668,0,0,1,3.22.14,23.965,23.965,0,0,1-.14-2.94ZM54.39-18.62h8.89v5.075H54.39ZM57.75-3.675a26.256,26.256,0,0,0-3.045-6.335L52.01-8.855a21.276,21.276,0,0,1,2.9,6.4Z" transform="translate(0 69.738)" fill="#fff"/>
        <path id="パス_6500" data-name="パス 6500" d="M21.35-22.54v3.85H17.325a25.409,25.409,0,0,1-3.745-.21v3.185a27.986,27.986,0,0,1,3.71-.21h8.925v3.43H17.29a30.531,30.531,0,0,1-3.71-.175v3.22a29.158,29.158,0,0,1,3.64-.21h8.995v8.33c0,.84-.21.945-1.54.945a22.738,22.738,0,0,1-3.815-.35,7.875,7.875,0,0,1,.735,3.15c1.89.035,2.87.07,2.87.07a9.858,9.858,0,0,0,3.29-.42c1.12-.42,1.47-1.155,1.47-3.045V-9.66h.735a22.653,22.653,0,0,1,3.43.21v-3.22a26.555,26.555,0,0,1-3.43.175h-.735v-3.43h.805a22.022,22.022,0,0,1,3.43.21V-18.9a25,25,0,0,1-3.675.21H24.4v-3.85h4.3a24.45,24.45,0,0,1,3.465.175V-25.48a23.68,23.68,0,0,1-3.5.21H24.4v-1.015a15.322,15.322,0,0,1,.21-2.695H21.14a16.2,16.2,0,0,1,.21,2.695v1.015H17.99a23.354,23.354,0,0,1-3.5-.21v3.115A35.477,35.477,0,0,1,18.1-22.54ZM3.045-3.64A30.98,30.98,0,0,1,2.835.385H5.95v-2.94H9.7V-.77H12.7c-.07-.84-.1-1.68-.1-3.5V-23.94c0-1.96.035-2.625.1-3.43a29.848,29.848,0,0,1-3.08.105H6.055A30.625,30.625,0,0,1,2.9-27.37a31.409,31.409,0,0,1,.14,3.465ZM5.985-24.5H9.7v7.875H5.985Zm0,10.57H9.7v8.54H5.985ZM22.575-3.36a32.005,32.005,0,0,0-4.76-5.495L15.33-7.175A28.724,28.724,0,0,1,19.985-1.4ZM41.125-16.8h6.37c1.33,0,2.415.035,3.36.1-.07-.805-.1-1.68-.1-3.185v-5c0-1.365.035-2.2.1-3.29a30.326,30.326,0,0,1-3.57.14h-5.74a31.008,31.008,0,0,1-3.6-.14,38.8,38.8,0,0,1,.14,3.92V-1.5a29.067,29.067,0,0,1-.21,4.165h3.465a28.076,28.076,0,0,1-.21-4.165Zm0-8.855H47.88v2.135H41.125Zm0,4.375H47.88v2.17H41.125Zm25.83-3.01a32.283,32.283,0,0,1,.175-3.885,32,32,0,0,1-3.675.14H57.12a29.947,29.947,0,0,1-3.57-.14c.07,1.015.1,2.1.1,3.29v5c0,1.33-.035,2.24-.1,3.185.945-.07,2.03-.1,3.36-.1h7V-1.61c0,.77-.28.945-1.47.945a31.551,31.551,0,0,1-3.99-.35,11.852,11.852,0,0,1,.84,3.15c.6.035,2.59.105,3.36.105,3.395,0,4.305-.77,4.305-3.5Zm-10.43-1.365H63.91v2.135H56.525Zm0,4.375H63.91v2.17H56.525Zm2.73,10.01c0-1.365.035-2.275.1-3.22a28.313,28.313,0,0,1-3.325.14H48.79a28.7,28.7,0,0,1-3.325-.14c.07.98.1,1.96.1,3.22v8.26A24,24,0,0,1,45.4.385h3.08V-1.75H55.93c1.4,0,2.38.035,3.43.105-.07-.875-.1-1.785-.1-3.115Zm-10.78-.63h7.91v2.555h-7.91Zm0,4.97h7.91V-4.2h-7.91Zm24.535-13.2A103.2,103.2,0,0,1,83.9-21.21c3.71-.245,5.11-.385,7.56-.735a12.78,12.78,0,0,0-4.2,2.8C84.21-16.31,82.67-13.23,82.67-9.9A8.973,8.973,0,0,0,87.185-1.96C89.285-.7,91.315-.035,95.13.525c.56.07.7.105,1.155.175l.525-3.955a4.749,4.749,0,0,1-.63.035,20.6,20.6,0,0,1-5.145-.98c-3.01-1.015-4.76-3.255-4.76-6.02,0-3.78,2.94-7.56,7.7-9.94a15.781,15.781,0,0,1,6.545-1.68,4.047,4.047,0,0,1,.6.035l-.245-3.71a25.784,25.784,0,0,1-4.06.35c-8.225.385-16.625.875-20.65,1.12-.84.035-1.365.07-2,.07-.385,0-.805,0-1.365-.035ZM94.6-16.695a25.722,25.722,0,0,1,3.64,5.355l2.17-1.19a23.382,23.382,0,0,0-3.64-5.25ZM98.77-18.69a26.713,26.713,0,0,1,3.57,5.25l2.135-1.225a21.762,21.762,0,0,0-3.605-5.11Z" transform="translate(111.743 69.738)" fill="#fff"/>
        <path id="パス_6499" data-name="パス 6499" d="M14.055-77.484a14.828,14.828,0,0,0,1.336-3.229H28.583L11.439,0H-4.815l11.8-55.664H-12l2.282-10.8a74.281,74.281,0,0,0,10.743-1A19.068,19.068,0,0,0,9.713-71.7,17.7,17.7,0,0,0,14.055-77.484Z" transform="translate(84.503 75.407)" fill="#fff"/>
      </g>
    </g>
  </g>
</svg>
