<svg xmlns="http://www.w3.org/2000/svg" width="43.898" height="43.898" viewBox="0 0 43.898 43.898">
  <g id="icons8-line" transform="translate(-6 -6)">
    <path id="パス_4148" data-name="パス 4148" d="M13.926,49.9H41.972A7.926,7.926,0,0,0,49.9,41.972V13.926A7.926,7.926,0,0,0,41.972,6H13.926A7.926,7.926,0,0,0,6,13.926V41.972A7.926,7.926,0,0,0,13.926,49.9Z" transform="translate(0 0)" fill="#00c300"/>
    <path id="パス_4149" data-name="パス 4149" d="M42.864,24.751c0-7.152-7.17-12.971-15.983-12.971S10.9,17.6,10.9,24.751c0,6.412,5.686,11.782,13.367,12.8.521.112,1.229.344,1.408.788a3.287,3.287,0,0,1,.051,1.445s-.187,1.128-.228,1.368c-.07.4-.321,1.58,1.384.862s9.2-5.42,12.557-9.281h0A11.531,11.531,0,0,0,42.864,24.751ZM20.625,29.006H17.45a.839.839,0,0,1-.838-.839V21.816a.838.838,0,1,1,1.675,0v5.513h2.338a.839.839,0,0,1,0,1.678Zm3.284-.839a.838.838,0,1,1-1.675,0V21.816a.838.838,0,1,1,1.675,0Zm7.646,0a.838.838,0,0,1-1.508.5l-3.255-4.432v3.929a.839.839,0,1,1-1.678,0V21.816a.838.838,0,0,1,.573-.8.825.825,0,0,1,.266-.043.843.843,0,0,1,.669.335l3.256,4.432v-3.93a.838.838,0,0,1,1.677,0Zm5.139-4.014a.838.838,0,1,1,0,1.677H34.355v1.5h2.338a.838.838,0,1,1,0,1.677H33.518a.839.839,0,0,1-.838-.839V24.993h0V21.817a.838.838,0,0,1,.838-.838h3.175a.838.838,0,1,1,0,1.675H34.355v1.5h2.338Z" transform="translate(1.075 1.268)" fill="#fff"/>
  </g>
</svg>
