<svg xmlns="http://www.w3.org/2000/svg" width="144" height="227.5" viewBox="0 0 144 227.5">
  <g id="グループ_9654" data-name="グループ 9654" transform="translate(2789 1271)">
    <path id="パス_4150" data-name="パス 4150" d="M0,0V227.5l5.808-2.1h.014l7.444-2.682,4.725-1.712,54-19.444,54,19.444,12.171,4.394L144,227.5V0Z" transform="translate(-2789 -1271)" fill="#195eae"/>
    <path id="パス_6502" data-name="パス 6502" d="M-23.142-20.408A4.738,4.738,0,0,0-23.95-17.4h-4.676a12.572,12.572,0,0,1,.65-3.6,8.111,8.111,0,0,1,1.934-2.76A6.736,6.736,0,0,1-23.7-25.137a10.118,10.118,0,0,1,3.322-.475,8.842,8.842,0,0,1,5.9,1.89,6.294,6.294,0,0,1,2.241,5.071,5.606,5.606,0,0,1-1.336,3.8,4.562,4.562,0,0,1-1.758,1.318,3.616,3.616,0,0,1,1.969,1.178,6.29,6.29,0,0,1,1.916,4.852,8.171,8.171,0,0,1-2.241,5.687Q-15.935.633-20.329.633q-5.414,0-7.523-3.533a10.487,10.487,0,0,1-1.23-4.922h4.922a5.731,5.731,0,0,0,.492,2.531,3.373,3.373,0,0,0,3.322,1.846,3.681,3.681,0,0,0,2.575-1.011,3.756,3.756,0,0,0,1.1-2.909,3.277,3.277,0,0,0-2.039-3.357,10.351,10.351,0,0,0-3.656-.475v-3.586a9.486,9.486,0,0,0,3.41-.475,2.932,2.932,0,0,0,1.67-2.988,3.34,3.34,0,0,0-.853-2.373,3.12,3.12,0,0,0-2.4-.914A3.012,3.012,0,0,0-23.142-20.408ZM.993-16.541a7.307,7.307,0,0,1,5.563,2.3A8.24,8.24,0,0,1,8.728-8.35,9.94,9.94,0,0,1,6.6-2.057Q4.474.668-.009.668a7.607,7.607,0,0,1-7.1-4.025,16.414,16.414,0,0,1-1.775-8.121,36.93,36.93,0,0,1,.246-4.746,14.514,14.514,0,0,1,1.705-5.414,8.724,8.724,0,0,1,2.856-2.971A7.7,7.7,0,0,1,.149-25.734a8.369,8.369,0,0,1,5.66,1.819,6.918,6.918,0,0,1,2.373,4.843H3.19a2.555,2.555,0,0,0-.475-1.354,2.751,2.751,0,0,0-2.443-1.2q-2.443,0-3.48,2.742a17.017,17.017,0,0,0-.773,4.465,5.623,5.623,0,0,1,2.162-1.617A7.3,7.3,0,0,1,.993-16.541ZM-2.382-11.76A4.377,4.377,0,0,0-3.858-8.068,5,5,0,0,0-2.751-4.711,3.533,3.533,0,0,0,.062-3.41,3.124,3.124,0,0,0,2.689-4.667a5.232,5.232,0,0,0,.958-3.261,4.88,4.88,0,0,0-1.09-3.419A3.488,3.488,0,0,0-.114-12.533,3.568,3.568,0,0,0-2.382-11.76Zm21.99-.9a4.9,4.9,0,0,0-1.582.229,3.145,3.145,0,0,0-1.775,1.564l-4.5-.211,1.793-14.08H27.589V-20.9H17.165l-.914,5.572a10.473,10.473,0,0,1,1.811-1,7.665,7.665,0,0,1,2.654-.4,7.973,7.973,0,0,1,5.52,2.127A7.91,7.91,0,0,1,28.591-8.42a9.707,9.707,0,0,1-2.268,6.311Q24.056.668,19.538.668a9.012,9.012,0,0,1-5.977-1.951,7.58,7.58,0,0,1-2.6-5.537h4.992A4.835,4.835,0,0,0,17.095-4.3a3.236,3.236,0,0,0,2.461.888,3.321,3.321,0,0,0,2.839-1.31,5.366,5.366,0,0,0,.976-3.3,5.726,5.726,0,0,0-.914-3.3A3.2,3.2,0,0,0,19.608-12.656Z" transform="translate(-2725 -1201)" fill="#ffdc41"/>
    <path id="パス_6504" data-name="パス 6504" d="M-7.506-20.3a3.157,3.157,0,0,0-2.566-1.072,3.13,3.13,0,0,0-3.111,1.705,8.456,8.456,0,0,0-.562,3.129h-4.869A12.314,12.314,0,0,1-17.437-21.8q2-3.814,7.119-3.814A9.027,9.027,0,0,1-3.885-23.37a7.75,7.75,0,0,1,2.391,5.933A8.032,8.032,0,0,1-3.182-12.41,16.812,16.812,0,0,1-6.82-9.158l-2,1.424Q-10.705-6.4-11.4-5.8a5.666,5.666,0,0,0-1.169,1.389H-1.441V0H-18.9a11.977,11.977,0,0,1,1.178-5.01q1.072-2.549,5.063-5.4a37.125,37.125,0,0,0,4.482-3.551,5.248,5.248,0,0,0,1.564-3.656A4.05,4.05,0,0,0-7.506-20.3ZM18.826-9.4v3.92H15.943V0h-4.9V-5.484H.949V-9.861L10.318-25.33h5.625V-9.4ZM4.658-9.4h6.381v-11Z" transform="translate(-2735 -1158)" fill="#ffdc41"/>
    <path id="パス_6506" data-name="パス 6506" d="M-36.624-18.928a18.128,18.128,0,0,1,1.2,2.912h-1.764a21.7,21.7,0,0,1-3.08-.14c.084,1.008.112,1.6.112,2.38v2.1A12.957,12.957,0,0,1-40.32-9.52h3.108v-3.64h18.424v3.5h3.108a15.078,15.078,0,0,1-.14-2.072v-2.044c0-1.008.028-1.624.084-2.352a25.725,25.725,0,0,1-3.024.112h-1.848c.42-.7.448-.784,1.708-3.22l-2.716-.868c1.428-.224,2.3-.392,3.388-.644.672-.168.756-.168,1.2-.252l-1.932-2.716a28.724,28.724,0,0,1-5.656,1.26A113.186,113.186,0,0,1-37.3-21.7c-.5,0-1.26,0-2.212-.028a16.038,16.038,0,0,1,1.008,2.8Zm4.284,2.912a29.574,29.574,0,0,0-1.2-3.024c2.1-.112,3.192-.168,3.276-.2.42,1.008.784,2.044,1.148,3.22Zm6.16,0A20.718,20.718,0,0,0-27.3-19.46c.9-.112,1.624-.168,2.072-.224,1.036-.084,1.736-.168,2.044-.2.28-.028.476-.056,1.2-.168a23.648,23.648,0,0,1-1.848,4.032Zm5.124,4.788a13.418,13.418,0,0,1-2.436.14H-33.656a26.575,26.575,0,0,1-2.856-.14v2.884c.5-.056.56-.056,1.372-.112a22.358,22.358,0,0,0,4.508,5.124,32.8,32.8,0,0,1-10,2.688,13.147,13.147,0,0,1,1.54,3,35.862,35.862,0,0,0,11.06-3.808,26.026,26.026,0,0,0,3.864,1.9A31.873,31.873,0,0,0-16.576,2.3,11.772,11.772,0,0,1-15.12-.812C-19.936-1.4-22.232-1.96-25.2-3.276a26.992,26.992,0,0,0,3.5-3.08,33.365,33.365,0,0,1,2.464-2.716Zm-2.716,2.744a17.755,17.755,0,0,1-4.2,3.668,12.95,12.95,0,0,1-3.836-3.668ZM6.076-17.416H-1.68a24.739,24.739,0,0,1-3.164-.168v3.136a29.556,29.556,0,0,1,3.3-.168H6.076V-1.96c0,.616-.224.7-1.792.7A26.881,26.881,0,0,1,.84-1.54a10.137,10.137,0,0,1,.9,3.164c1.2.084,1.96.112,2.968.112,2.072,0,2.828-.112,3.444-.532C8.792.784,9.1-.084,9.1-1.54V-14.616H10c.98,0,1.876.056,2.632.112v-3.08a16.978,16.978,0,0,1-2.716.168H9.1V-19.88a31.3,31.3,0,0,1,.168-3.472H5.88a25.031,25.031,0,0,1,.2,3.472ZM-6.1-17c.784-1.568,1.568-3.332,1.9-4.256.28-.728.476-1.2.672-1.624l-3.22-.9a14.243,14.243,0,0,1-1.148,3.5,23.969,23.969,0,0,1-5.18,7.784A12.53,12.53,0,0,1-11.508-9.3,14.587,14.587,0,0,0-9.1-12.488c-.056,1.12-.056,1.764-.056,3.136v8.26a28.515,28.515,0,0,1-.168,3.36h3.36C-6.048,1.2-6.1.168-6.1-1.092Zm2.548,5.824a27.057,27.057,0,0,1,4.144,6.8l2.6-1.848A32.883,32.883,0,0,0-1.12-12.74Zm29.792-7.644H18.872a21.574,21.574,0,0,1-2.52-.112,21.92,21.92,0,0,1,.112,2.436v8.568a20.985,20.985,0,0,1-.14,2.8h3.3V-6.8h6.608V-1.12a23.476,23.476,0,0,1-.2,3.472h3.584a22.026,22.026,0,0,1-.2-3.472V-6.8h6.944v1.68h3.3a19.27,19.27,0,0,1-.14-2.8v-8.54a20.556,20.556,0,0,1,.112-2.464,20.025,20.025,0,0,1-2.548.112H29.428v-1.82a20.53,20.53,0,0,1,.168-2.94H26.068a18.154,18.154,0,0,1,.168,3.052Zm0,2.968v6.076H19.628v-6.076Zm3.192,6.076v-6.076h6.944v6.076Z" transform="translate(-2717 -1111.152)" fill="#fff"/>
    <path id="パス_4181" data-name="パス 4181" d="M-1278.307,120V323l62.355-21.863L-1152.307,323V120Z" transform="translate(-1501.693 -1379)" fill="none" stroke="#e8e8e8" stroke-width="1"/>
    <path id="パス_6503" data-name="パス 6503" d="M-6.246-.882A18.88,18.88,0,0,1-6.354,1.3h2.142V.216h8.37V1.3H6.336A18.235,18.235,0,0,1,6.228-.882V-12.51a16.264,16.264,0,0,1,.09-1.836,14.484,14.484,0,0,1-1.944.09H-4.338a15.89,15.89,0,0,1-2-.09c.054.594.09,1.224.09,1.926Zm2.034-11.466h8.37v4.176h-8.37Zm0,6.066h8.37v4.608h-8.37Z" transform="translate(-2687 -1202)" fill="#fff"/>
    <path id="パス_6505" data-name="パス 6505" d="M-12.924-12.456v3.618h-2.16v-3.618Zm-2.16,8.892v-3.8h2.16v3.8Zm3.744-10.4h-5.292V-.558h1.548V-2.07h3.744Zm1.3,10.314A13.351,13.351,0,0,1-7.866-.576l1.422-.864a13.256,13.256,0,0,0-2.25-2.988ZM-.7-8.154V-9.63H-5.076v-1.98h3.708v-1.458H-5.076V-15.12H-6.75v2.052h-3.6v1.458h3.6v1.98h-4.284v1.476h6.606v1.8H-10.98v1.476h6.552V-.486c0,.252-.09.324-.378.342-.27,0-1.26,0-2.268-.036a6.232,6.232,0,0,1,.54,1.566,8.851,8.851,0,0,0,2.952-.27c.594-.252.792-.7.792-1.566V-4.878H-.864V-6.354H-2.79v-1.8Zm7.38-4.968v1.242h-3.4v-1.242ZM3.276-9.36v-1.332h3.4V-9.36ZM8.262-8.118v-6.264H1.62v15.8H3.276v-9.54Zm3.024-1.206v-1.368H14.8v1.368Zm3.51-3.8v1.242h-3.51v-1.242ZM7.128-1.494V-2.988h3.654v1.494Zm3.654-4.122v1.4H7.128v-1.4Zm5.706-8.766h-6.8v6.3H14.8v7.4c0,.306-.09.4-.414.414-.288,0-1.152.018-2.034-.018V-6.876H5.6V.666h1.53v-.9h4.86A7.5,7.5,0,0,1,12.51,1.4a9.112,9.112,0,0,0,3.132-.288c.648-.288.846-.828.846-1.782Z" transform="translate(-2696 -1159)" fill="#fff"/>
  </g>
</svg>
