<svg xmlns="http://www.w3.org/2000/svg" xmlns:xlink="http://www.w3.org/1999/xlink" width="44" height="44" viewBox="0 0 44 44">
  <defs>
    <filter id="楕円形_34" x="0" y="0" width="44" height="44" filterUnits="userSpaceOnUse">
      <feOffset dy="2" input="SourceAlpha"/>
      <feGaussianBlur stdDeviation="2" result="blur"/>
      <feFlood flood-color="#333" flood-opacity="0.161"/>
      <feComposite operator="in" in2="blur"/>
      <feComposite in="SourceGraphic"/>
    </filter>
  </defs>
  <g id="グループ_9490" data-name="グループ 9490" transform="translate(-166 -740)">
    <g id="グループ_9569" data-name="グループ 9569">
      <g transform="matrix(1, 0, 0, 1, 166, 740)" filter="url(#楕円形_34)">
        <circle id="楕円形_34-2" data-name="楕円形 34" cx="16" cy="16" r="16" transform="translate(6 4)" fill="#fff"/>
      </g>
      <path id="phone-solid" d="M15.476,11.711l-.7,3.052a.941.941,0,0,1-.922.733A13.866,13.866,0,0,1,0,1.644.94.94,0,0,1,.733.722l3.052-.7A.95.95,0,0,1,4.868.567L6.277,3.852A.948.948,0,0,1,6,4.956L4.375,6.264A10.586,10.586,0,0,0,9.2,11.093l1.335-1.629a.942.942,0,0,1,1.1-.272L14.927,10.6A1.033,1.033,0,0,1,15.476,11.711Z" transform="translate(180 752.006)" fill="#ed072f"/>
    </g>
  </g>
</svg>
