<svg xmlns="http://www.w3.org/2000/svg" width="24.467" height="34.138" viewBox="0 0 24.467 34.138">
  <path id="ifn0609" d="M26.907,263.32a4.287,4.287,0,0,0-1.887-.455l0-.005-.036,0a3.858,3.858,0,0,0-.647.051l-.129.032a7.238,7.238,0,0,0-2.267.671c-5.571,2.816-6.4,12.4-1.845,21.4s12.757,14.014,18.328,11.2a7.162,7.162,0,0,0,1.627-1.161,3.846,3.846,0,0,0,.378-.317,4.15,4.15,0,0,0,1.195-2.308l-8.2-8.574a4.154,4.154,0,0,0-2.364,1.086,4.413,4.413,0,0,0-1.268,3.374,28.424,28.424,0,0,1-6.607-13.042,4.421,4.421,0,0,0,3.489.995,4.154,4.154,0,0,0,2.276-1.26Z" transform="translate(-17.158 -262.859)" fill="#fff"/>
</svg>
